<svg width="1206" height="241" viewBox="0 0 1206 241" fill="none" xmlns="http://www.w3.org/2000/svg">
<path d="M681.605 204.109H672.54V229.659H667.871V204.109H662.049V200.211H667.871V197.791C667.871 194.606 668.629 192.236 670.152 190.676C671.674 189.121 674.082 188.338 677.375 188.338H681.605V192.071H678.254C676.127 192.071 674.617 192.51 673.719 193.389C672.821 194.268 672.375 195.771 672.375 197.893V200.198H681.605V204.097V204.109Z" fill="black"/>
<path d="M691.465 228.305C689.063 226.968 687.178 225.12 685.802 222.757C684.426 220.394 683.745 217.751 683.745 214.82C683.745 211.89 684.433 209.24 685.802 206.884C687.178 204.52 689.051 202.673 691.433 201.336C693.815 199.998 696.491 199.329 699.452 199.329C702.414 199.329 705.102 199.998 707.504 201.336C709.905 202.673 711.791 204.52 713.16 206.884C714.536 209.247 715.218 211.89 715.218 214.82C715.218 217.751 714.53 220.4 713.16 222.757C711.791 225.114 709.899 226.968 707.504 228.305C705.102 229.643 702.421 230.312 699.452 230.312C696.484 230.312 693.853 229.643 691.458 228.305H691.465ZM705.09 224.375C706.759 223.426 708.064 222.114 709.02 220.445C709.969 218.776 710.447 216.903 710.447 214.814C710.447 212.725 709.969 210.852 709.02 209.183C708.064 207.514 706.759 206.208 705.09 205.253C703.421 204.298 701.548 203.826 699.459 203.826C697.37 203.826 695.49 204.304 693.828 205.253C692.159 206.208 690.86 207.514 689.93 209.183C688.993 210.852 688.528 212.725 688.528 214.814C688.528 216.903 688.993 218.782 689.93 220.445C690.866 222.114 692.165 223.42 693.828 224.375C695.497 225.331 697.37 225.802 699.459 225.802C701.548 225.802 703.421 225.324 705.09 224.375Z" fill="black"/>
<path d="M738.473 199.82V204.273H735.454C732.74 204.273 730.657 205.094 729.192 206.744C727.727 208.394 726.995 210.662 726.995 213.56V229.656H722.326V199.986H725.625L726.396 204.489C728.555 201.375 731.708 199.82 735.849 199.82H738.486H738.473Z" fill="black"/>
<path d="M781.77 200.781C783.343 201.749 784.56 203.1 785.426 204.819C786.286 206.539 786.719 208.501 786.719 210.699V229.655H782.05V212.126C782.05 209.45 781.464 207.361 780.292 205.864C779.12 204.361 777.47 203.609 775.349 203.609C773.922 203.609 772.603 204.03 771.393 204.87C770.183 205.711 769.221 206.864 768.508 208.329C767.794 209.794 767.438 211.425 767.438 213.221V229.649H762.877V212.119C762.877 209.444 762.284 207.355 761.093 205.858C759.902 204.354 758.246 203.603 756.118 203.603C754.692 203.603 753.373 204.023 752.163 204.864C750.952 205.705 749.991 206.858 749.277 208.323C748.564 209.788 748.207 211.419 748.207 213.215V229.643H743.538V199.972H746.889L747.659 204.036C748.793 202.533 750.194 201.373 751.863 200.545C753.532 199.724 755.297 199.31 757.163 199.31C759.252 199.31 761.08 199.813 762.66 200.819C764.234 201.826 765.425 203.208 766.234 204.966C767.367 203.208 768.826 201.826 770.603 200.819C772.38 199.813 774.272 199.31 776.291 199.31C778.311 199.31 780.209 199.794 781.789 200.768L781.77 200.781Z" fill="black"/>
<path d="M823.364 216.632H798.038C798.439 219.378 799.586 221.588 801.471 223.251C803.356 224.92 805.694 225.748 808.478 225.748C810.529 225.748 812.351 225.302 813.943 224.404C815.535 223.505 816.809 222.231 817.765 220.588H822.657C821.408 223.665 819.555 226.053 817.077 227.76C814.606 229.461 811.739 230.315 808.478 230.315C805.656 230.315 803.095 229.64 800.783 228.283C798.477 226.926 796.662 225.066 795.343 222.703C794.025 220.34 793.362 217.715 793.362 214.817C793.362 211.919 794.025 209.294 795.343 206.931C796.662 204.568 798.477 202.708 800.783 201.351C803.089 199.995 805.656 199.319 808.478 199.319C811.3 199.319 814.007 200.007 816.281 201.377C818.548 202.753 820.319 204.625 821.58 207.008C822.842 209.39 823.479 212.027 823.479 214.919C823.479 215.32 823.44 215.887 823.37 216.62L823.364 216.632ZM801.688 206.084C799.84 207.619 798.656 209.689 798.146 212.295H818.752C818.275 209.657 817.102 207.581 815.236 206.059C813.37 204.536 811.115 203.778 808.478 203.778C805.841 203.778 803.541 204.549 801.694 206.084H801.688Z" fill="black"/>
<path d="M846.6 199.82V204.273H843.581C840.867 204.273 838.784 205.094 837.319 206.744C835.854 208.394 835.122 210.662 835.122 213.56V229.656H830.453V199.986H833.752L834.523 204.489C836.682 201.375 839.835 199.82 843.976 199.82H846.613H846.6Z" fill="black"/>
<path d="M851.658 189.383H856.327V229.659H851.658V189.383Z" fill="black"/>
<path d="M892.367 199.99L878.246 230.871C877.144 233.253 876.067 235.12 875.003 236.476C873.94 237.833 872.748 238.801 871.43 239.387C870.111 239.973 868.5 240.266 866.595 240.266H863.792V236.037H866.213C867.57 236.037 868.659 235.865 869.481 235.515C870.302 235.164 871.054 234.572 871.736 233.731C872.411 232.89 873.156 231.603 873.959 229.884L875.003 227.629L861.818 199.99H866.926L877.475 222.463L887.367 199.99H892.367Z" fill="black"/>
<path d="M921.383 212.02H916.217V229.658H911.44V191.197H916.217V207.517H921.326L933.632 191.197H939.785L925.721 209.714L941.053 229.658H934.9L921.383 212.02Z" fill="black"/>
<path d="M972.589 199.985V229.656H968.69L968.193 225.152C966.837 226.764 965.155 228.031 963.136 228.942C961.123 229.86 958.925 230.318 956.543 230.318C953.683 230.318 951.084 229.643 948.74 228.286C946.396 226.929 944.555 225.069 943.217 222.706C941.88 220.343 941.211 217.719 941.211 214.82C941.211 211.922 941.88 209.24 943.217 206.884C944.555 204.52 946.396 202.673 948.74 201.336C951.084 199.998 953.683 199.329 956.543 199.329C958.963 199.329 961.174 199.788 963.193 200.705C965.206 201.622 966.894 202.903 968.251 204.552L968.856 199.992H972.595L972.589 199.985ZM962.505 224.381C964.174 223.432 965.473 222.12 966.403 220.451C967.34 218.782 967.805 216.91 967.805 214.82C967.805 212.731 967.34 210.858 966.403 209.19C965.467 207.521 964.168 206.215 962.505 205.259C960.836 204.304 958.976 203.833 956.925 203.833C954.874 203.833 953.014 204.31 951.345 205.259C949.676 206.215 948.371 207.533 947.415 209.215C946.46 210.903 945.988 212.769 945.988 214.82C945.988 216.871 946.466 218.738 947.415 220.426C948.371 222.114 949.676 223.432 951.345 224.381C953.014 225.337 954.868 225.808 956.925 225.808C958.983 225.808 960.836 225.331 962.505 224.381Z" fill="black"/>
<path d="M1002.86 200.95C1004.58 202.033 1005.92 203.524 1006.85 205.428C1007.78 207.333 1008.25 209.492 1008.25 211.913V229.659H1003.58V213.008C1003.58 209.97 1002.89 207.645 1001.52 206.034C1000.14 204.422 998.176 203.613 995.616 203.613C993.966 203.613 992.456 204.046 991.08 204.906C989.705 205.766 988.628 206.951 987.838 208.448C987.048 209.951 986.66 211.613 986.66 213.448V229.659H981.991V199.989H985.29L986.227 204.658C987.329 202.976 988.8 201.664 990.647 200.728C992.494 199.791 994.558 199.326 996.826 199.326C999.094 199.326 1001.14 199.868 1002.87 200.944L1002.86 200.95Z" fill="black"/>
<path d="M1040.8 201.332C1043.13 202.669 1044.94 204.516 1046.24 206.88C1047.54 209.243 1048.19 211.886 1048.19 214.816C1048.19 217.747 1047.54 220.384 1046.24 222.728C1044.94 225.072 1043.13 226.925 1040.8 228.276C1038.48 229.633 1035.85 230.308 1032.92 230.308C1030.61 230.308 1028.48 229.875 1026.52 229.015C1024.55 228.155 1022.88 226.957 1021.49 225.416L1020.89 229.645H1017.26V189.369H1021.93V203.708C1023.29 202.319 1024.9 201.236 1026.79 200.465C1028.68 199.695 1030.72 199.312 1032.92 199.312C1035.85 199.312 1038.48 199.981 1040.8 201.319V201.332ZM1038.14 224.384C1039.79 223.435 1041.08 222.123 1042.01 220.454C1042.95 218.785 1043.42 216.912 1043.42 214.823C1043.42 212.734 1042.95 210.861 1042.01 209.192C1041.08 207.523 1039.79 206.217 1038.14 205.262C1036.49 204.306 1034.62 203.835 1032.54 203.835C1030.45 203.835 1028.62 204.313 1026.96 205.262C1025.29 206.217 1023.98 207.536 1023.03 209.217C1022.07 210.905 1021.6 212.772 1021.6 214.823C1021.6 216.874 1022.08 218.734 1023.03 220.403C1023.98 222.072 1025.29 223.39 1026.96 224.358C1028.62 225.327 1030.48 225.817 1032.54 225.817C1034.59 225.817 1036.49 225.339 1038.14 224.39V224.384Z" fill="black"/>
<path d="M1084.29 199.985V229.656H1080.39L1079.89 225.152C1078.54 226.764 1076.86 228.031 1074.84 228.942C1072.82 229.86 1070.63 230.318 1068.24 230.318C1065.38 230.318 1062.78 229.643 1060.44 228.286C1058.1 226.929 1056.26 225.069 1054.92 222.706C1053.58 220.343 1052.91 217.719 1052.91 214.82C1052.91 211.922 1053.58 209.24 1054.92 206.884C1056.26 204.52 1058.1 202.673 1060.44 201.336C1062.78 199.998 1065.38 199.329 1068.24 199.329C1070.66 199.329 1072.87 199.788 1074.89 200.705C1076.91 201.622 1078.59 202.903 1079.95 204.552L1080.56 199.992H1084.3L1084.29 199.985ZM1074.21 224.381C1075.87 223.432 1077.17 222.12 1078.1 220.451C1079.04 218.782 1079.51 216.91 1079.51 214.82C1079.51 212.731 1079.04 210.858 1078.1 209.19C1077.17 207.521 1075.87 206.215 1074.21 205.259C1072.54 204.304 1070.68 203.833 1068.63 203.833C1066.57 203.833 1064.71 204.31 1063.05 205.259C1061.38 206.215 1060.07 207.533 1059.12 209.215C1058.16 210.903 1057.69 212.769 1057.69 214.82C1057.69 216.871 1058.17 218.738 1059.12 220.426C1060.07 222.114 1061.38 223.432 1063.05 224.381C1064.71 225.337 1066.57 225.808 1068.63 225.808C1070.68 225.808 1072.54 225.331 1074.21 224.381Z" fill="black"/>
<path d="M1114.56 200.95C1116.28 202.033 1117.62 203.524 1118.55 205.428C1119.48 207.333 1119.95 209.492 1119.95 211.913V229.659H1115.28V213.008C1115.28 209.97 1114.59 207.645 1113.22 206.034C1111.84 204.422 1109.88 203.613 1107.32 203.613C1105.67 203.613 1104.16 204.046 1102.78 204.906C1101.4 205.766 1100.33 206.951 1099.54 208.448C1098.75 209.951 1098.36 211.613 1098.36 213.448V229.659H1093.69V199.989H1096.99L1097.93 204.658C1099.03 202.976 1100.5 201.664 1102.35 200.728C1104.19 199.791 1106.26 199.326 1108.53 199.326C1110.79 199.326 1112.84 199.868 1114.57 200.944L1114.56 200.95Z" fill="black"/>
<path d="M1128.75 189.489H1133.8V194.821H1128.75V189.489ZM1128.96 199.987H1133.63V229.657H1128.96V199.987Z" fill="black"/>
<path d="M1162.92 225.262V229.657H1139.67V228.944L1155.45 204.331H1140.72V199.993H1162.86V200.764L1147.2 225.268H1162.92V225.262Z" fill="black"/>
<path d="M1196.54 216.632H1171.22C1171.62 219.378 1172.77 221.588 1174.65 223.251C1176.54 224.92 1178.87 225.748 1181.66 225.748C1183.71 225.748 1185.53 225.302 1187.12 224.404C1188.72 223.505 1189.99 222.231 1190.95 220.588H1195.84C1194.59 223.665 1192.74 226.053 1190.26 227.76C1187.79 229.461 1184.92 230.315 1181.66 230.315C1178.84 230.315 1176.28 229.64 1173.96 228.283C1171.66 226.926 1169.84 225.066 1168.52 222.703C1167.21 220.34 1166.54 217.715 1166.54 214.817C1166.54 211.919 1167.21 209.294 1168.52 206.931C1169.84 204.568 1171.66 202.708 1173.96 201.351C1176.27 199.995 1178.84 199.319 1181.66 199.319C1184.48 199.319 1187.19 200.007 1189.46 201.377C1191.73 202.753 1193.5 204.625 1194.76 207.008C1196.02 209.39 1196.66 212.027 1196.66 214.919C1196.66 215.32 1196.62 215.887 1196.55 216.62L1196.54 216.632ZM1174.87 206.084C1173.02 207.619 1171.84 209.689 1171.33 212.295H1191.93C1191.46 209.657 1190.28 207.581 1188.42 206.059C1186.55 204.536 1184.3 203.778 1181.66 203.778C1179.02 203.778 1176.72 204.549 1174.87 206.084H1174.87Z" fill="black"/>
<path d="M47.6572 91.4345C51.1223 94.8996 51.1223 100.537 47.6572 104.435L31.6244 120.462C28.1656 123.927 22.5283 123.927 18.6364 120.462L2.60365 104.435C-0.867884 100.964 -0.867884 95.3328 2.60365 91.4345L18.6364 75.4017C22.0952 71.9429 27.7325 71.9429 31.6244 75.4017L47.6572 91.4345Z" fill="#E2196A"/>
<path d="M111.342 68.0375C107.884 64.5787 107.884 58.9414 111.342 55.0431L127.375 39.0167C130.84 35.5452 136.478 35.5452 140.37 39.0167L176.333 74.9742L192.366 91.0069C195.825 94.4657 195.825 100.103 192.366 103.995L139.936 156.425C136.478 159.883 130.84 159.883 126.948 156.425L110.916 140.392C107.444 136.92 107.444 131.289 110.916 127.818L134.306 104.428C137.771 100.963 137.771 94.8989 134.306 91.4337L111.342 68.0375Z" fill="#43AC49"/>
<path d="M67.5824 111.356C66.7161 110.49 65.8498 110.057 64.9835 109.624V85.7941C65.8498 85.3674 66.7161 84.9278 67.5824 84.0616L83.6151 68.0352C87.0803 64.57 87.0803 58.9391 83.6151 55.0408L67.5824 39.0081C64.1236 35.5429 58.4863 35.5429 54.5817 39.0081L38.9884 55.0408C35.5169 58.4996 35.5169 64.1369 38.9884 68.0352L55.0212 84.0616C55.8875 84.9342 56.7537 85.3674 57.62 85.7941V109.624C56.7474 110.057 55.8875 110.496 55.0212 111.356L38.9884 127.389C35.5169 130.854 35.5169 136.491 38.9884 140.383L55.0212 156.416C58.4863 159.881 64.1236 159.881 68.0155 156.416L84.0483 140.383C87.5071 136.918 87.5071 131.281 84.0483 127.389L67.5824 111.356Z" fill="#EF872F"/>
<path d="M103.979 147.321C103.113 146.455 102.246 146.021 101.38 145.588V121.759C102.246 121.332 103.113 120.893 103.979 120.026L120.005 104C123.47 100.535 123.47 94.9039 120.005 91.0056L103.979 74.9728C103.113 74.1065 102.246 73.6734 101.38 73.2402V49.4109C102.246 48.9777 103.113 48.5446 103.979 47.6783L120.005 31.6455C123.47 28.174 123.47 22.5495 120.005 18.6448L103.979 2.6184C100.514 -0.84676 94.8765 -0.84676 90.9782 2.6184L74.9518 18.6448C71.4803 22.1163 71.4803 27.7472 74.9518 31.6455L90.9782 47.6783C91.8508 48.5446 92.7108 48.9713 93.5834 49.4109V73.2402C92.7108 73.6734 91.8508 74.1129 90.9782 74.9728L74.9518 91.0056C71.4803 94.4643 71.4803 100.102 74.9518 104L90.9782 120.026C91.8508 120.899 92.7108 121.332 93.5834 121.759V145.588C92.7108 146.021 91.8508 146.461 90.9782 147.321L74.9518 163.354C71.4803 166.819 71.4803 172.45 74.9518 176.348L90.9782 192.374C94.4433 195.846 100.074 195.846 103.979 192.374L120.005 176.348C123.47 172.883 123.47 167.246 120.005 163.354L103.979 147.321Z" fill="#3167B0"/>
<path d="M611.594 100.08V146.681H592.555V102.519C592.555 88.0537 585.395 81.0469 573.216 81.0469C559.661 81.0469 550.527 89.2703 550.527 105.564V146.681H531.488V65.3581H549.61V75.8683C555.852 68.4029 565.751 64.4473 577.631 64.4473C597.122 64.4473 611.594 75.5625 611.594 100.086V100.08Z" fill="black"/>
<path d="M1205.2 104.91C1205.2 130.191 1187.69 146.638 1163.93 146.638C1153.57 146.638 1144.44 143.135 1137.89 135.676V175.117H1118.85V64.2449H1136.97V74.9079C1143.37 67.1431 1152.81 63.334 1163.92 63.334C1187.68 63.334 1205.19 79.7808 1205.19 104.91H1205.2ZM1185.86 104.91C1185.86 89.3737 1175.5 79.4814 1161.8 79.4814C1148.1 79.4814 1137.58 89.38 1137.58 104.91C1137.58 120.439 1148.09 130.344 1161.8 130.344C1175.51 130.344 1185.86 120.445 1185.86 104.91Z" fill="black"/>
<path d="M1005.81 98.9666V145.568H986.775V101.406C986.775 86.9404 980.073 79.9336 968.5 79.9336C956.015 79.9336 947.333 88.157 947.333 104.298V145.568H928.293V101.406C928.293 86.9404 921.592 79.9336 910.019 79.9336C897.381 79.9336 888.852 88.157 888.852 104.298V145.568H869.812V64.2449H887.935V74.6021C894.024 67.2896 903.464 63.334 914.586 63.334C926.465 63.334 936.364 67.7482 941.995 76.8889C948.543 68.5126 959.505 63.334 972.449 63.334C992.093 63.334 1005.8 74.4493 1005.8 98.9729L1005.81 98.9666Z" fill="black"/>
<path d="M323.343 107.501C323.343 132.783 305.832 149.23 282.073 149.23C270.958 149.23 261.518 145.421 255.123 137.656V148.166H237V35.166H256.04V76.7416C262.588 69.4291 271.722 65.9257 282.079 65.9257C305.839 65.9257 323.349 82.2196 323.349 107.501H323.343ZM304.004 107.501C304.004 91.9654 293.647 82.0731 279.946 82.0731C266.244 82.0731 255.728 91.9718 255.728 107.501C255.728 123.031 266.238 132.936 279.946 132.936C293.653 132.936 304.004 123.037 304.004 107.501Z" fill="black"/>
<path d="M351.536 144.173C345.816 141.077 341.382 136.726 338.236 131.108C335.089 125.49 333.522 118.974 333.522 111.553V63.3145H350.682V109.081C350.682 116.298 352.542 121.993 356.249 126.165C359.957 130.337 365.008 132.427 371.403 132.427C377.798 132.427 382.996 130.337 386.71 126.165C390.417 121.993 392.277 116.298 392.277 109.081V63.3145H409.437V111.553C409.437 118.974 407.864 125.496 404.717 131.108C401.57 136.726 397.143 141.083 391.423 144.173C385.703 147.262 379.028 148.81 371.403 148.81C363.778 148.81 357.256 147.262 351.536 144.173Z" fill="black"/>
<path d="M705.696 110.934H637.979C639.011 117.635 641.788 122.941 646.329 126.859C650.865 130.776 656.585 132.732 663.49 132.732C668.439 132.732 672.866 131.649 676.783 129.483C680.701 127.317 683.739 124.33 685.905 120.514H703.995C700.696 129.279 695.441 136.184 688.224 141.235C681.007 146.286 672.764 148.809 663.483 148.809C655.445 148.809 648.151 146.904 641.603 143.089C635.061 139.28 629.908 134.018 626.144 127.317C622.379 120.616 620.5 113.195 620.5 105.055C620.5 96.9143 622.379 89.3597 626.144 82.716C629.908 76.066 635.061 70.8364 641.603 67.0209C648.145 63.2117 655.445 61.3008 663.483 61.3008C671.522 61.3008 679.229 63.2627 685.669 67.1737C692.109 71.0911 697.109 76.3972 700.67 83.0982C704.224 89.7992 706.002 97.1691 706.002 105.208C706.002 106.545 705.9 108.456 705.69 110.928L705.696 110.934ZM647.1 82.1746C642.667 85.7862 639.73 90.7292 638.284 97.0162H688.841C687.294 90.7292 684.281 85.7862 679.796 82.1746C675.312 78.5693 669.872 76.7603 663.483 76.7603C657.094 76.7603 651.527 78.5629 647.094 82.1746H647.1Z" fill="black"/>
<path d="M499.626 32.6992H517.411V50.3244H499.626V32.6992ZM499.939 63.3124H517.099V146.801H499.939V63.3124Z" fill="black"/>
<path d="M428.156 141.082C421.971 135.929 418.78 129.024 418.57 120.361H435.418C435.622 124.692 437.373 127.992 440.673 130.253C443.973 132.521 448.196 133.655 453.355 133.655C458.094 133.655 461.986 132.706 465.031 130.795C468.069 128.89 469.592 126.234 469.592 122.832C469.592 119.431 467.993 116.8 464.802 115.259C461.604 113.711 456.814 112.424 450.419 111.392C444.234 110.36 439.081 109.15 434.959 107.762C430.838 106.373 427.328 103.972 424.443 100.57C421.557 97.1686 420.118 92.4804 420.118 86.4992C420.118 81.5499 421.455 77.1738 424.137 73.3583C426.819 69.5492 430.602 66.5809 435.501 64.4661C440.393 62.3577 446.036 61.2939 452.432 61.2939C462.12 61.2939 469.878 63.7145 475.7 68.5619C481.522 73.4093 484.535 79.9001 484.746 88.0407H468.515C468.413 84.0213 466.916 80.983 464.031 78.9191C461.145 76.8617 457.177 75.8298 452.126 75.8298C447.387 75.8298 443.622 76.7598 440.839 78.6134C438.055 80.467 436.666 82.8939 436.666 85.8813C436.666 89.1809 438.189 91.5249 441.227 92.9199C444.266 94.3085 448.979 95.4678 455.374 96.3978C462.075 97.5317 467.458 98.7674 471.528 100.111C475.599 101.449 479.127 103.85 482.121 107.303C485.109 110.755 486.606 115.679 486.606 122.068C486.606 130.107 483.516 136.578 477.331 141.47C471.146 146.369 462.948 148.815 452.75 148.815C442.552 148.815 434.348 146.241 428.163 141.082H428.156Z" fill="black"/>
<path d="M723.67 141.082C717.485 135.929 714.294 129.024 714.084 120.361H730.932C731.136 124.692 732.888 127.992 736.187 130.253C739.487 132.521 743.71 133.655 748.869 133.655C753.608 133.655 757.5 132.706 760.545 130.795C763.584 128.89 765.106 126.234 765.106 122.832C765.106 119.431 763.507 116.8 760.316 115.259C757.118 113.711 752.328 112.424 745.933 111.392C739.748 110.36 734.595 109.15 730.473 107.762C726.352 106.373 722.842 103.972 719.957 100.57C717.071 97.1686 715.632 92.4804 715.632 86.4992C715.632 81.5499 716.969 77.1738 719.651 73.3583C722.333 69.5492 726.116 66.5809 731.015 64.4661C735.907 62.3577 741.55 61.2939 747.946 61.2939C757.634 61.2939 765.393 63.7145 771.215 68.5619C777.037 73.4093 780.049 79.9001 780.26 88.0407H764.029C763.927 84.0213 762.431 80.983 759.545 78.9191C756.66 76.8617 752.691 75.8298 747.64 75.8298C742.901 75.8298 739.136 76.7598 736.353 78.6134C733.569 80.467 732.18 82.8939 732.18 85.8813C732.18 89.1809 733.703 91.5249 736.741 92.9199C739.78 94.3085 744.493 95.4678 750.889 96.3978C757.59 97.5317 762.972 98.7674 767.042 100.111C771.113 101.449 774.641 103.85 777.635 107.303C780.623 110.755 782.12 115.679 782.12 122.068C782.12 130.107 779.03 136.578 772.845 141.47C766.66 146.369 758.462 148.815 748.264 148.815C738.066 148.815 729.862 146.241 723.677 141.082H723.67Z" fill="black"/>
<path d="M801.02 141.082C794.835 135.929 791.644 129.024 791.434 120.361H808.282C808.486 124.692 810.237 127.992 813.537 130.253C816.836 132.521 821.059 133.655 826.219 133.655C830.958 133.655 834.85 132.706 837.895 130.795C840.933 128.89 842.456 126.234 842.456 122.832C842.456 119.431 840.857 116.8 837.666 115.259C834.468 113.711 829.678 112.424 823.283 111.392C817.097 110.36 811.944 109.15 807.823 107.762C803.702 106.373 800.192 103.972 797.307 100.57C794.421 97.1686 792.981 92.4804 792.981 86.4992C792.981 81.5499 794.319 77.1738 797.001 73.3583C799.682 69.5492 803.466 66.5809 808.365 64.4661C813.257 62.3577 818.9 61.2939 825.295 61.2939C834.984 61.2939 842.742 63.7145 848.564 68.5619C854.386 73.4093 857.399 79.9001 857.609 88.0407H841.379C841.277 84.0213 839.78 80.983 836.895 78.9191C834.009 76.8617 830.041 75.8298 824.99 75.8298C820.251 75.8298 816.486 76.7598 813.702 78.6134C810.919 80.467 809.53 82.8939 809.53 85.8813C809.53 89.1809 811.053 91.5249 814.091 92.9199C817.129 94.3085 821.843 95.4678 828.238 96.3978C834.939 97.5317 840.322 98.7674 844.392 100.111C848.462 101.449 851.991 103.85 854.985 107.303C857.972 110.755 859.469 115.679 859.469 122.068C859.469 130.107 856.38 136.578 850.195 141.47C844.01 146.369 835.812 148.815 825.614 148.815C815.416 148.815 807.212 146.241 801.027 141.082H801.02Z" fill="black"/>
<path d="M1105.85 63.5822V147.071H1091.71L1091.68 135.726C1087.86 139.644 1081.94 143.797 1076.79 145.912C1071.63 148.02 1066.07 149.077 1060.08 149.077C1051.94 149.077 1044.55 147.173 1037.9 143.357C1031.25 139.548 1026.02 134.312 1022.21 127.669C1018.39 121.019 1016.49 113.572 1016.49 105.33C1016.49 97.0873 1018.39 89.6091 1022.21 82.9081C1026.02 76.2071 1031.25 70.9775 1037.9 67.213C1044.55 63.4548 1051.94 61.5693 1060.08 61.5693C1066.07 61.5693 1071.68 62.6522 1076.94 64.8179C1082.19 66.9837 1087.9 70.2768 1091.71 74.1943V63.5822H1105.85ZM1075.31 129.14C1079.49 126.77 1082.74 123.496 1085.05 119.324C1087.37 115.152 1088.53 110.489 1088.53 105.33C1088.53 100.17 1087.37 95.5139 1085.05 91.3353C1082.74 87.1631 1079.49 83.8891 1075.31 81.5195C1071.14 79.1499 1066.47 77.9652 1061.32 77.9652C1056.17 77.9652 1051.5 79.1499 1047.33 81.5195C1043.15 83.8891 1039.88 87.1631 1037.51 91.3353C1035.14 95.5076 1033.96 100.177 1033.96 105.33C1033.96 110.483 1035.14 115.146 1037.51 119.324C1039.88 123.496 1043.15 126.77 1047.33 129.14C1051.5 131.51 1056.17 132.694 1061.32 132.694C1066.47 132.694 1071.14 131.51 1075.31 129.14Z" fill="black"/>
</svg>
