<?xml version="1.0" encoding="utf-8"?>
<!-- Generator: Adobe Illustrator 24.1.0, SVG Export Plug-In . SVG Version: 6.00 Build 0)  -->
<svg version="1.1" id="Google_Maps_Platform" xmlns="http://www.w3.org/2000/svg" xmlns:xlink="http://www.w3.org/1999/xlink"
	 x="0px" y="0px" viewBox="0 0 256.2 32.1" style="enable-background:new 0 0 256.2 32.1;" xml:space="preserve">
<style type="text/css">
	.st0{fill:#5F6368;}
	.st1{fill:#1967D2;}
	.st2{fill:#EA4335;}
	.st3{fill:#4285F4;}
	.st4{fill:#FBBC04;}
	.st5{fill:#34A853;}
</style>
<g>
	<g>
		<path class="st0" d="M115.4,8.3h2.1l5.7,10h0.1l5.7-10h2.1v16.5h-2.1V15l0.1-2.8h-0.1l-5.2,9h-1.2l-5.2-9h-0.1l0.1,2.8v9.8h-2.1
			L115.4,8.3L115.4,8.3z"/>
		<path class="st0" d="M143.4,17.9v6.9h-2v-1.6h-0.1c-0.6,0.9-1.8,1.9-3.5,1.9c-2.5,0-4.4-1.7-4.4-3.9c0-2.5,2.1-3.8,4.9-3.8
			c1.6,0,2.7,0.4,3.1,0.7v-0.5c0-1.6-1.5-2.6-2.9-2.6c-1.2,0-2.1,0.4-2.8,1.5l-1.9-1.2c1-1.4,2.5-2.2,4.6-2.2
			C141.5,13.2,143.4,15,143.4,17.9z M141.4,20c0,0-1-0.8-2.8-0.8c-1.8,0-3,1-3,2.2c0,1.2,1.3,1.9,2.4,1.9
			C139.7,23.3,141.4,21.8,141.4,20z"/>
		<path class="st0" d="M147.9,23.2L147.9,23.2v1.6v5h-2.1V13.5h2v1.6h0.1c0.6-1,2.1-1.9,3.8-1.9c2.9,0,5.4,2.6,5.4,6s-2.5,6-5.4,6
			C149.9,25.2,148.5,24.3,147.9,23.2z M154.9,19.2c0-2.5-1.7-4.1-3.6-4.1s-3.6,1.5-3.6,4.1s1.7,4.1,3.6,4.1S154.9,21.7,154.9,19.2z"
			/>
		<path class="st0" d="M158.1,22l1.9-0.8c0.6,1.5,1.8,2.1,2.9,2.1c1.4,0,2.4-0.7,2.4-1.5c0-0.7-0.4-1.3-2.2-1.7l-1.7-0.4
			c-1.3-0.3-3-1.2-3-3.1c0-2.2,2.1-3.4,4.5-3.4c1.8,0,3.7,0.9,4.4,2.6l-1.9,0.8c-0.5-1.1-1.6-1.5-2.7-1.5c-0.9,0-2.1,0.5-2.1,1.4
			c0,0.7,0.5,1.1,1.8,1.4l1.7,0.4c2.3,0.5,3.4,1.8,3.4,3.4c0,1.9-1.8,3.5-4.5,3.5C160.3,25.2,158.7,23.6,158.1,22z"/>
		<path class="st0" d="M174.7,24.8V8.3h5.6c2.7,0,5.1,2,5.1,4.9s-2.4,4.9-5.1,4.9h-3.5v6.7H174.7z M180.3,16.1
			c1.9,0,2.9-1.6,2.9-2.9s-1.1-2.9-2.9-2.9h-3.5v5.8L180.3,16.1L180.3,16.1z"/>
		<path class="st0" d="M187,24.8V8.3h2.1v16.5H187z"/>
		<path class="st0" d="M200.9,17.9v6.9h-2v-1.6h-0.1c-0.6,0.9-1.8,1.9-3.5,1.9c-2.5,0-4.4-1.7-4.4-3.9c0-2.5,2.1-3.8,4.9-3.8
			c1.6,0,2.7,0.4,3.1,0.7v-0.5c0-1.6-1.5-2.6-2.9-2.6c-1.2,0-2.1,0.4-2.8,1.5l-1.9-1.2c1-1.4,2.5-2.2,4.6-2.2
			C199,13.2,200.9,15,200.9,17.9z M198.9,20c0,0-1-0.8-2.8-0.8c-1.8,0-3,1-3,2.2c0,1.2,1.3,1.9,2.4,1.9
			C197.2,23.3,198.9,21.8,198.9,20z"/>
		<path class="st0" d="M205.1,24.1c-0.6-0.6-0.9-1.4-0.9-2.5v-6.2h-2v-1.9h2v-3.4h2.1v3.4h5.1v-1.6c0-2.3,1.7-3.8,3.8-3.8
			c0.9,0,1.4,0.2,1.9,0.4l-0.6,1.9c-0.3-0.2-0.6-0.3-1.2-0.3c-0.9,0-1.8,0.7-1.8,2v1.4h2.9v1.9h-2.9v9.3h-2.1v-9.3h-5.1v5.6
			c0,0.6,0.1,1.1,0.3,1.4c0.2,0.3,0.7,0.5,1,0.5c0.5,0,0.7-0.1,1-0.2l0.7,1.9c-0.6,0.2-1.1,0.3-1.9,0.3
			C206.5,25,205.7,24.6,205.1,24.1z"/>
		<path class="st0" d="M229,19.2c0,3.4-2.4,6-5.8,6c-3.4,0-5.8-2.6-5.8-6c0-3.4,2.4-6,5.8-6C226.6,13.2,229,15.7,229,19.2z
			 M226.9,19.2c0-2.6-1.8-4.1-3.7-4.1c-1.9,0-3.7,1.5-3.7,4.1s1.8,4.1,3.7,4.1S226.9,21.7,226.9,19.2z"/>
		<path class="st0" d="M230.8,24.8V13.5h2v1.8h0.1c0.5-1.3,2.1-2.2,3.3-2.2c0.7,0,1.1,0.1,1.6,0.3l-0.6,2.1
			c-0.3-0.1-0.7-0.2-1.2-0.2c-1.6,0-3,1.5-3,3.2v6.2L230.8,24.8L230.8,24.8z"/>
		<path class="st0" d="M239.1,13.5h2v1.6h0.1c0.6-1.1,2.1-1.9,3.5-1.9c1.7,0,3,0.8,3.6,2.2c0.8-1.3,2.1-2.2,3.9-2.2
			c2.8,0,4.1,1.8,4.1,4.6v7H254v-6.7c0-2.3-0.9-3-2.5-3c-1.7,0-2.9,1.8-2.9,3.5v6.2h-2.1v-6.7c0-2.3-0.9-3-2.5-3
			c-1.7,0-2.9,1.8-2.9,3.5v6.2H239L239.1,13.5L239.1,13.5z"/>
	</g>
	<g id="_x37_5x24px_2_">
		<path class="st0" d="M42.9,25.2c-5.2,0-9.5-4.2-9.5-9.3s4.3-9.3,9.5-9.3c2.8,0,4.9,1.1,6.4,2.6l-1.8,1.8c-1.1-1-2.6-1.8-4.6-1.8
			c-3.8,0-6.7,3-6.7,6.8s2.9,6.8,6.7,6.8c2.4,0,3.8-1,4.7-1.9c0.7-0.7,1.2-1.8,1.4-3.2h-6.1V15h8.6c0.1,0.4,0.1,1,0.1,1.6
			c0,1.9-0.5,4.3-2.2,6C47.8,24.2,45.7,25.2,42.9,25.2z"/>
		<path class="st0" d="M64.9,19.2c0,3.5-2.7,6-5.9,6c-3.3,0-5.9-2.5-5.9-6c0-3.5,2.7-6,5.9-6C62.2,13.2,64.9,15.7,64.9,19.2z
			 M62.3,19.2c0-2.2-1.5-3.6-3.3-3.6s-3.3,1.5-3.3,3.6c0,2.1,1.5,3.6,3.3,3.6C60.8,22.8,62.3,21.3,62.3,19.2z"/>
		<path class="st0" d="M78.2,19.2c0,3.5-2.7,6-5.9,6s-5.9-2.5-5.9-6c0-3.5,2.7-6,5.9-6C75.6,13.2,78.2,15.7,78.2,19.2z M75.6,19.2
			c0-2.2-1.6-3.6-3.3-3.6c-1.8,0-3.3,1.5-3.3,3.6c0,2.1,1.6,3.6,3.3,3.6C74.1,22.8,75.6,21.3,75.6,19.2z"/>
		<path class="st0" d="M91.2,13.5v10.8c0,4.4-2.6,6.2-5.7,6.2c-2.9,0-4.7-2-5.3-3.5l2.3-1c0.4,1,1.4,2.1,3,2.1c2,0,3.2-1.2,3.2-3.5
			v-0.9h-0.1c-0.6,0.7-1.7,1.4-3.2,1.4c-3,0-5.8-2.6-5.8-6c0-3.4,2.8-6,5.8-6c1.4,0,2.6,0.6,3.2,1.3h0.1v-1
			C88.7,13.5,91.2,13.5,91.2,13.5z M88.9,19.2c0-2.1-1.4-3.7-3.2-3.7c-1.8,0-3.3,1.5-3.3,3.7c0,2.1,1.5,3.6,3.3,3.6
			C87.4,22.8,88.9,21.3,88.9,19.2z"/>
		<path class="st0" d="M95.8,7.2v17.6h-2.7V7.2H95.8z"/>
		<path class="st0" d="M106.2,21.1l2.1,1.4c-0.7,1-2.3,2.7-5,2.7c-3.4,0-5.9-2.6-5.9-6c0-3.6,2.5-6,5.6-6c3.1,0,4.7,2.5,5.2,3.8
			l0.3,0.7l-8.1,3.3c0.6,1.2,1.6,1.8,2.9,1.8C104.6,22.8,105.5,22.1,106.2,21.1z M99.9,19l5.4-2.2c-0.3-0.8-1.2-1.3-2.2-1.3
			C101.7,15.5,99.8,16.7,99.9,19z"/>
	</g>
	<g>
		<path class="st1" d="M14.6,0.5C13.5,0.2,12.4,0,11.2,0C7.8,0,4.7,1.5,2.6,4l5.3,4.4L14.6,0.5z"/>
		<path class="st2" d="M2.6,4C1,5.9,0,8.4,0,11.2c0,2.1,0.4,3.8,1.1,5.3l6.8-8.1L2.6,4z"/>
		<path class="st3" d="M11.2,6.9c2.4,0,4.3,1.9,4.3,4.3c0,1.1-0.4,2-1,2.8c0,0,3.4-4,6.7-7.9c-1.4-2.6-3.7-4.6-6.6-5.5L7.9,8.4
			C8.7,7.5,9.9,6.9,11.2,6.9z"/>
		<path class="st4" d="M11.2,15.5c-2.4,0-4.3-1.9-4.3-4.3c0-1.1,0.4-2,1-2.8l-6.8,8.1c1.2,2.6,3.1,4.6,5.1,7.3l8.3-9.8
			C13.7,14.9,12.5,15.5,11.2,15.5z"/>
		<path class="st5" d="M14.3,26.5c3.7-5.8,8.1-8.5,8.1-15.3c0-1.9-0.5-3.6-1.3-5.2L6.2,23.8c0.6,0.8,1.3,1.7,1.9,2.7
			c2.3,3.5,1.6,5.6,3.1,5.6S12,30,14.3,26.5z"/>
	</g>
</g>
</svg>
