<?xml version="1.0" standalone="no"?>
<!DOCTYPE svg PUBLIC "-//W3C//DTD SVG 20010904//EN"
 "http://www.w3.org/TR/2001/REC-SVG-20010904/DTD/svg10.dtd">
<svg version="1.0" xmlns="http://www.w3.org/2000/svg"
 width="1200.000000pt" height="187.000000pt" viewBox="0 0 1200.000000 187.000000"
 preserveAspectRatio="xMidYMid meet">

<g transform="translate(0.000000,187.000000) scale(0.100000,-0.100000)"
fill="#000000" stroke="none">
<path d="M7212 1058 l3 -813 28 -57 c16 -32 46 -73 69 -92 63 -54 114 -68 271
-74 l137 -4 -2 168 -3 169 -57 5 c-42 4 -64 11 -80 28 l-23 23 -3 729 -2 730
-170 0 -170 0 2 -812z"/>
<path d="M11650 1523 l-1 -348 -21 30 c-114 156 -302 196 -487 104 -106 -53
-181 -164 -216 -319 -22 -101 -31 -374 -16 -513 26 -241 116 -385 279 -448 44
-17 80 -22 152 -23 82 -1 102 3 150 25 57 27 100 62 137 114 l22 30 1 -77 0
-78 175 0 175 0 0 925 0 925 -175 0 -175 0 0 -347z m-92 -510 c19 -9 46 -34
60 -56 27 -40 27 -41 30 -266 3 -222 3 -227 -21 -271 -32 -61 -86 -91 -165
-91 -97 -1 -152 33 -189 116 -22 51 -31 333 -13 418 18 89 69 150 141 167 43
11 114 3 157 -17z"/>
<path d="M6095 1764 c-221 -46 -378 -203 -432 -431 -16 -68 -18 -125 -18 -448
0 -323 2 -378 18 -435 62 -228 197 -365 413 -420 96 -25 263 -27 349 -5 213
55 367 219 439 469 15 49 26 94 26 102 0 11 -32 14 -170 14 -143 0 -170 -2
-170 -15 0 -35 -44 -127 -80 -168 -57 -65 -116 -90 -204 -90 -128 1 -221 61
-262 172 -26 68 -33 639 -9 733 20 80 58 134 120 173 45 28 55 30 145 30 90 0
100 -2 145 -30 57 -35 108 -105 132 -181 l17 -54 168 0 c137 0 168 3 168 14 0
8 -11 53 -26 102 -73 253 -230 418 -445 469 -80 18 -231 18 -324 -1z"/>
<path d="M0 890 l0 -870 163 2 162 3 3 342 2 343 338 2 337 3 3 158 3 157
-341 0 -340 0 0 210 0 210 405 0 405 0 0 155 0 155 -570 0 -570 0 0 -870z"/>
<path d="M3357 1349 c-74 -17 -144 -68 -199 -143 l-28 -39 0 86 0 87 -175 0
-175 0 0 -660 0 -660 175 0 175 0 0 429 c0 279 4 440 11 458 14 38 57 83 96
99 43 19 145 18 190 -1 50 -21 72 -42 94 -90 17 -37 19 -74 19 -467 l0 -428
176 0 176 0 -4 473 c-5 511 -6 525 -63 643 -81 167 -279 258 -468 213z"/>
<path d="M4668 1350 c-196 -36 -329 -129 -402 -283 -54 -115 -61 -159 -61
-387 0 -165 4 -218 18 -269 67 -246 234 -380 507 -407 l70 -7 0 170 0 169 -55
11 c-93 20 -159 80 -184 168 -6 22 -11 99 -11 171 0 154 14 208 70 264 90 90
286 95 411 10 l44 -29 108 107 c59 59 107 110 107 114 0 5 -21 28 -46 52 -97
93 -240 145 -419 151 -60 2 -131 0 -157 -5z"/>
<path d="M8403 1345 c-200 -36 -344 -168 -400 -365 -26 -94 -26 -494 0 -590
53 -196 183 -323 377 -371 33 -9 105 -14 180 -13 105 1 137 5 202 26 179 59
284 172 335 358 23 84 26 482 4 570 -51 210 -198 348 -408 385 -96 17 -195 17
-290 0z m257 -347 c93 -47 113 -110 108 -342 -3 -155 -5 -175 -26 -213 -34
-66 -90 -97 -177 -101 -120 -6 -197 43 -224 143 -15 53 -14 352 0 396 18 53
58 99 103 120 60 27 159 25 216 -3z"/>
<path d="M1340 873 c0 -508 3 -541 56 -646 40 -79 73 -117 137 -158 97 -63
232 -84 337 -53 74 22 132 64 180 131 l40 56 0 -91 0 -92 175 0 175 0 0 660 0
660 -175 0 -175 0 0 -427 c0 -395 -2 -431 -19 -469 -34 -75 -102 -109 -206
-102 -76 5 -133 38 -161 95 -18 35 -19 69 -22 471 l-3 432 -169 0 -170 0 0
-467z"/>
<path d="M9463 858 c4 -518 4 -524 58 -635 111 -230 455 -297 615 -120 22 24
49 56 61 73 l22 29 0 -92 1 -93 170 0 170 0 0 660 0 660 -169 0 -170 0 -3
-428 -3 -428 -25 -49 c-33 -64 -89 -95 -170 -95 -70 0 -116 15 -154 49 -56 51
-56 53 -56 521 l0 430 -176 0 -175 0 4 -482z"/>
<path d="M4970 185 l0 -165 160 0 160 0 0 165 0 165 -160 0 -160 0 0 -165z"/>
</g>
</svg>
