<?xml version="1.0" encoding="UTF-8" standalone="no"?>
<svg
   version="1.1"
   viewBox="11.479928 -145.125 607.02165 250.14862"
   width="607.02165"
   height="250.14862"
   id="svg1003727"
   xmlns:xlink="http://www.w3.org/1999/xlink"
   xmlns="http://www.w3.org/2000/svg"
   xmlns:svg="http://www.w3.org/2000/svg">
  <defs
     id="defs1003592">
    <radialGradient
       cx="0"
       cy="0"
       r="1"
       id="Gradient"
       gradientUnits="userSpaceOnUse">
      <stop
         offset="0"
         stop-color="white"
         id="stop1003562" />
      <stop
         offset="1"
         stop-color="#d2e3fc"
         id="stop1003564" />
    </radialGradient>
    <radialGradient
       id="Obj_Gradient"
       xlink:href="#Gradient"
       gradientTransform="translate(67.28997 -75.4252) scale(89.11496)" />
    <radialGradient
       cx="0"
       cy="0"
       r="1"
       id="Gradient_2"
       gradientUnits="userSpaceOnUse">
      <stop
         offset="0"
         stop-color="white"
         id="stop1003568" />
      <stop
         offset="1"
         stop-color="#fad2cf"
         id="stop1003570" />
    </radialGradient>
    <radialGradient
       id="Obj_Gradient_2"
       xlink:href="#Gradient_2"
       gradientTransform="translate(191.0695 -75.4252) scale(89.11496)" />
    <radialGradient
       cx="0"
       cy="0"
       r="1"
       id="Gradient_3"
       gradientUnits="userSpaceOnUse">
      <stop
         offset="0"
         stop-color="white"
         id="stop1003574" />
      <stop
         offset="1"
         stop-color="#ceead6"
         id="stop1003576" />
    </radialGradient>
    <radialGradient
       id="Obj_Gradient_3"
       xlink:href="#Gradient_3"
       gradientTransform="translate(438.6286 -75.4252) scale(89.11496)" />
    <radialGradient
       cx="0"
       cy="0"
       r="1"
       id="Gradient_4"
       gradientUnits="userSpaceOnUse">
      <stop
         offset="0"
         stop-color="white"
         id="stop1003580" />
      <stop
         offset="1"
         stop-color="#feefc3"
         id="stop1003582" />
    </radialGradient>
    <radialGradient
       id="Obj_Gradient_4"
       xlink:href="#Gradient_4"
       gradientTransform="translate(314.84904 -75.4252) scale(89.11496)" />
    <radialGradient
       cx="0"
       cy="0"
       r="1"
       id="Gradient_5"
       gradientUnits="userSpaceOnUse">
      <stop
         offset="0"
         stop-color="white"
         id="stop1003586" />
      <stop
         offset="1"
         stop-color="#f1f3f4"
         id="stop1003588" />
    </radialGradient>
    <radialGradient
       id="Obj_Gradient_5"
       xlink:href="#Gradient_5"
       gradientTransform="translate(562.5498 -75.45669) scale(89.17902)" />
  </defs>
  <g
     id="Canvas_1"
     stroke-opacity="1"
     fill="none"
     stroke="none"
     fill-opacity="1"
     stroke-dasharray="none">
    <title
       id="title1003594">Canvas 1</title>
    <g
       id="Canvas_1_Layer_1">
      <title
         id="title1003596">Layer 1</title>
      <g
         id="Group_193">
        <g
           id="Graphic_127">
          <path
             d="m 11.604928,50.055436 c 0,-7.630722 3.031291,-14.948896 8.427022,-20.344636 5.395732,-5.395736 12.713916,-8.427016 20.34463,-8.427016 H 589.6049 c 15.89015,0 28.7717,12.8815 28.7717,28.771652 0,15.890134 -12.88155,28.771654 -28.7717,28.771654 H 40.37658 c -15.890143,0 -28.771652,-12.88152 -28.771652,-28.771654 z"
             fill="#f1f3f4"
             id="path1003598" />
          <path
             d="m 11.604928,50.055436 c 0,-7.630722 3.031291,-14.948896 8.427022,-20.344636 5.395732,-5.395736 12.713916,-8.427016 20.34463,-8.427016 H 589.6049 c 15.89015,0 28.7717,12.8815 28.7717,28.771652 0,15.890134 -12.88155,28.771654 -28.7717,28.771654 H 40.37658 c -15.890143,0 -28.771652,-12.88152 -28.771652,-28.771654 z"
             stroke="#9aa0a6"
             stroke-linecap="butt"
             stroke-linejoin="round"
             stroke-width="0.25"
             id="path1003600" />
        </g>
        <g
           id="Graphic_124">
          <path
             d="M 288.9435,79.51181 C 288.9435,65.42203 300.60526,54 314.99075,54 c 6.90815,0 13.53335,2.68785 18.41819,7.47223 4.88479,4.78439 7.62906,11.27342 7.62906,18.03958 0,14.08978 -11.66175,25.51181 -26.04725,25.51181 -14.38549,0 -26.04725,-11.42203 -26.04725,-25.51181 z"
             fill="#202124"
             id="path1003603" />
        </g>
        <g
           id="Graphic_130">
          <g
             aria-label="System design"
             transform="translate(275.73275,31)"
             id="text1003608"
             style="fill:#000000">
            <path
               d="m 3.36,12.192 q -0.624,0 -1.236,-0.264 Q 1.512,11.664 1.044,11.148 0.576,10.632 0.36,9.864 L 1.332,9.468 q 0.204,0.744 0.744,1.248 0.54,0.504 1.308,0.504 0.48,0 0.876,-0.168 0.408,-0.18 0.648,-0.516 Q 5.16,10.2 5.16,9.72 5.16,9.288 4.944,8.988 4.74,8.688 4.32,8.46 3.9,8.22 3.288,8.004 L 2.748,7.812 Q 2.388,7.68 2.016,7.5 1.656,7.308 1.344,7.044 1.044,6.768 0.864,6.396 0.684,6.012 0.684,5.496 0.684,4.872 1.02,4.356 1.356,3.84 1.944,3.528 2.532,3.216 3.3,3.216 q 0.804,0 1.344,0.3 0.552,0.288 0.864,0.696 0.324,0.396 0.432,0.732 L 4.992,5.352 Q 4.92,5.1 4.716,4.836 4.512,4.56 4.164,4.38 3.828,4.188 3.312,4.188 2.892,4.188 2.52,4.356 2.16,4.524 1.932,4.824 1.716,5.112 1.716,5.496 q 0,0.54 0.432,0.852 0.432,0.312 1.164,0.564 l 0.564,0.192 q 0.384,0.132 0.78,0.324 0.408,0.192 0.756,0.492 0.348,0.3 0.564,0.744 0.216,0.432 0.216,1.044 0,0.66 -0.264,1.14 -0.252,0.468 -0.672,0.768 -0.42,0.3 -0.924,0.432 -0.492,0.144 -0.972,0.144 z"
               style="font-size:12px;font-family:'Google Sans'"
               id="path1003731" />
            <path
               d="m 9.0119978,14.28 q -0.036,0.084 -0.084,0.18 -0.048,0.108 -0.06,0.132 h -1.056 q 0.072,-0.156 0.156,-0.348 0.084,-0.18 0.204,-0.444 0.072,-0.156 0.132,-0.288 0.06,-0.132 0.132,-0.3 0.084,-0.156 0.192,-0.396 l 0.552,-1.2 -2.532,-5.736 h 1.104 l 1.92,4.548 h 0.024 L 11.543998,5.88 h 1.104 l -3.1680002,7.308 q -0.048,0.108 -0.156,0.336 -0.096,0.24 -0.192,0.456 -0.084,0.228 -0.12,0.3 z"
               style="font-size:12px;font-family:'Google Sans'"
               id="path1003733" />
            <path
               d="m 15.552004,12.192 q -0.684,0 -1.212,-0.216 -0.516,-0.228 -0.864,-0.6 -0.336,-0.384 -0.504,-0.828 l 0.912,-0.408 q 0.24,0.552 0.696,0.852 0.456,0.3 1.044,0.3 0.564,0 0.936,-0.228 0.384,-0.228 0.384,-0.672 0,-0.276 -0.156,-0.456 -0.156,-0.192 -0.456,-0.324 -0.3,-0.132 -0.732,-0.24 l -0.744,-0.192 q -0.432,-0.12 -0.816,-0.336 -0.384,-0.216 -0.624,-0.552 -0.228,-0.348 -0.228,-0.84 0,-0.552 0.324,-0.948 0.324,-0.396 0.852,-0.6 0.528,-0.216 1.128,-0.216 0.528,0 0.984,0.156 0.468,0.144 0.816,0.444 0.348,0.288 0.528,0.72 l -0.888,0.408 q -0.228,-0.456 -0.612,-0.636 -0.384,-0.18 -0.852,-0.18 -0.504,0 -0.876,0.228 -0.372,0.216 -0.372,0.6 0,0.384 0.3,0.576 0.312,0.192 0.756,0.312 l 0.888,0.228 q 0.9,0.228 1.356,0.684 0.456,0.444 0.456,1.092 0,0.576 -0.324,0.996 -0.324,0.42 -0.876,0.648 -0.552,0.228 -1.224,0.228 z"
               style="font-size:12px;font-family:'Google Sans'"
               id="path1003735" />
            <path
               d="m 18.612009,5.88 h 1.068 V 4.152 h 1.02 V 5.88 h 1.5 v 0.924 h -1.5 v 3.336 q 0,0.48 0.192,0.744 0.204,0.264 0.66,0.264 0.204,0 0.372,-0.06 0.168,-0.06 0.3,-0.144 v 0.996 q -0.156,0.072 -0.348,0.108 -0.18,0.048 -0.492,0.048 -0.768,0 -1.236,-0.444 -0.468,-0.456 -0.468,-1.26 V 6.804 h -1.068 z"
               style="font-size:12px;font-family:'Google Sans'"
               id="path1003737" />
            <path
               d="m 25.872014,12.192 q -0.888,0 -1.584,-0.42 -0.684,-0.42 -1.08,-1.152 -0.384,-0.732 -0.384,-1.668 0,-0.876 0.36,-1.62 0.372,-0.744 1.032,-1.188 0.672,-0.456 1.572,-0.456 0.912,0 1.56,0.408 0.66,0.396 1.008,1.104 0.36,0.708 0.36,1.62 0,0.084 -0.012,0.168 0,0.084 -0.012,0.144 h -4.848 q 0.036,0.66 0.3,1.116 0.3,0.516 0.768,0.768 0.48,0.252 0.996,0.252 0.672,0 1.104,-0.312 0.444,-0.324 0.708,-0.792 l 0.864,0.42 q -0.36,0.696 -1.032,1.152 -0.672,0.456 -1.68,0.456 z m -1.968,-3.9 h 3.732 q -0.012,-0.252 -0.12,-0.54 -0.096,-0.3 -0.324,-0.552 -0.216,-0.264 -0.564,-0.42 -0.336,-0.168 -0.84,-0.168 -0.6,0 -1.044,0.312 -0.432,0.3 -0.66,0.828 -0.12,0.252 -0.18,0.54 z"
               style="font-size:12px;font-family:'Google Sans'"
               id="path1003739" />
            <path
               d="M 29.90401,12 V 5.88 h 0.972 v 0.9 h 0.048 q 0.168,-0.3 0.456,-0.54 0.3,-0.252 0.672,-0.396 0.384,-0.156 0.78,-0.156 0.684,0 1.176,0.336 0.492,0.324 0.708,0.852 0.312,-0.516 0.84,-0.852 0.528,-0.336 1.26,-0.336 1.092,0 1.608,0.66 0.516,0.66 0.516,1.728 V 12 h -1.008 V 8.232 q 0,-0.888 -0.36,-1.248 -0.36,-0.372 -1.02,-0.372 -0.468,0 -0.84,0.276 -0.36,0.264 -0.576,0.708 -0.204,0.432 -0.204,0.948 V 12 h -1.02 V 8.244 q 0,-0.888 -0.36,-1.26 -0.36,-0.372 -1.008,-0.372 -0.468,0 -0.84,0.276 -0.36,0.276 -0.576,0.72 -0.204,0.444 -0.204,0.96 V 12 Z"
               style="font-size:12px;font-family:'Google Sans'"
               id="path1003741" />
            <path
               d="m 45.792014,12.192 q -0.828,0 -1.5,-0.42 -0.66,-0.42 -1.044,-1.152 -0.384,-0.732 -0.384,-1.68 0,-0.948 0.384,-1.68 0.384,-0.732 1.044,-1.152 0.672,-0.42 1.5,-0.42 0.492,0 0.9,0.156 0.408,0.156 0.708,0.408 0.312,0.252 0.48,0.54 h 0.048 l -0.048,-0.852 V 3.408 h 1.02 V 12 h -0.972 v -0.9 h -0.048 q -0.168,0.276 -0.48,0.528 -0.3,0.252 -0.708,0.408 -0.408,0.156 -0.9,0.156 z m 0.108,-0.924 q 0.528,0 0.984,-0.276 0.468,-0.288 0.756,-0.804 0.288,-0.528 0.288,-1.248 0,-0.72 -0.288,-1.236 -0.288,-0.528 -0.756,-0.804 -0.456,-0.288 -0.984,-0.288 -0.528,0 -0.996,0.288 -0.456,0.276 -0.744,0.804 -0.288,0.516 -0.288,1.236 0,0.708 0.288,1.236 0.288,0.528 0.744,0.816 0.468,0.276 0.996,0.276 z"
               style="font-size:12px;font-family:'Google Sans'"
               id="path1003743" />
            <path
               d="m 53.076016,12.192 q -0.888,0 -1.584,-0.42 -0.684,-0.42 -1.08,-1.152 -0.384,-0.732 -0.384,-1.668 0,-0.876 0.36,-1.62 0.372,-0.744 1.032,-1.188 0.672,-0.456 1.572,-0.456 0.912,0 1.56,0.408 0.66,0.396 1.008,1.104 0.36,0.708 0.36,1.62 0,0.084 -0.012,0.168 0,0.084 -0.012,0.144 h -4.848 q 0.036,0.66 0.3,1.116 0.3,0.516 0.768,0.768 0.48,0.252 0.996,0.252 0.672,0 1.104,-0.312 0.444,-0.324 0.708,-0.792 l 0.864,0.42 q -0.36,0.696 -1.032,1.152 -0.672,0.456 -1.68,0.456 z m -1.968,-3.9 h 3.732 q -0.012,-0.252 -0.12,-0.54 -0.096,-0.3 -0.324,-0.552 -0.216,-0.264 -0.564,-0.42 -0.336,-0.168 -0.84,-0.168 -0.6,0 -1.044,0.312 -0.432,0.3 -0.66,0.828 -0.12,0.252 -0.18,0.54 z"
               style="font-size:12px;font-family:'Google Sans'"
               id="path1003745" />
            <path
               d="m 59.304003,12.192 q -0.684,0 -1.212,-0.216 -0.516,-0.228 -0.864,-0.6 -0.336,-0.384 -0.504,-0.828 l 0.912,-0.408 q 0.24,0.552 0.696,0.852 0.456,0.3 1.044,0.3 0.564,0 0.936,-0.228 0.384,-0.228 0.384,-0.672 0,-0.276 -0.156,-0.456 -0.156,-0.192 -0.456,-0.324 -0.3,-0.132 -0.732,-0.24 l -0.744,-0.192 q -0.432,-0.12 -0.816,-0.336 -0.384,-0.216 -0.624,-0.552 -0.228,-0.348 -0.228,-0.84 0,-0.552 0.324,-0.948 0.324,-0.396 0.852,-0.6 0.528,-0.216 1.128,-0.216 0.528,0 0.984,0.156 0.468,0.144 0.816,0.444 0.348,0.288 0.528,0.72 l -0.888,0.408 q -0.228,-0.456 -0.612,-0.636 -0.384,-0.18 -0.852,-0.18 -0.504,0 -0.876,0.228 -0.372,0.216 -0.372,0.6 0,0.384 0.3,0.576 0.312,0.192 0.756,0.312 l 0.888,0.228 q 0.9,0.228 1.356,0.684 0.456,0.444 0.456,1.092 0,0.576 -0.324,0.996 -0.324,0.42 -0.876,0.648 -0.552,0.228 -1.224,0.228 z"
               style="font-size:12px;font-family:'Google Sans'"
               id="path1003747" />
            <path
               d="M 62.880008,12 V 5.88 h 1.02 V 12 Z m 0.504,-7.248 q -0.3,0 -0.516,-0.216 -0.216,-0.216 -0.216,-0.516 0,-0.312 0.216,-0.516 0.216,-0.216 0.516,-0.216 0.312,0 0.516,0.216 0.216,0.204 0.216,0.516 0,0.3 -0.216,0.516 -0.204,0.216 -0.516,0.216 z"
               style="font-size:12px;font-family:'Google Sans'"
               id="path1003749" />
            <path
               d="m 68.124016,14.784 q -0.78,0 -1.344,-0.264 -0.552,-0.252 -0.9,-0.648 -0.336,-0.396 -0.48,-0.804 l 0.936,-0.396 q 0.192,0.504 0.648,0.84 0.468,0.348 1.14,0.348 0.96,0 1.476,-0.564 0.516,-0.552 0.516,-1.548 v -0.684 h -0.048 q -0.288,0.444 -0.828,0.756 -0.54,0.3 -1.26,0.3 -0.792,0 -1.452,-0.408 -0.648,-0.408 -1.032,-1.128 -0.384,-0.732 -0.384,-1.68 0,-0.948 0.384,-1.668 0.384,-0.732 1.032,-1.14 0.66,-0.408 1.452,-0.408 0.72,0 1.26,0.312 0.54,0.3 0.828,0.756 h 0.048 V 5.88 h 0.972 v 5.88 q 0,1.02 -0.396,1.692 -0.384,0.672 -1.056,0.996 -0.66,0.336 -1.512,0.336 z m 0,-3.588 q 0.54,0 0.996,-0.264 0.456,-0.276 0.72,-0.792 0.276,-0.516 0.276,-1.236 0,-0.744 -0.276,-1.248 -0.264,-0.516 -0.72,-0.78 -0.456,-0.264 -0.996,-0.264 -0.54,0 -0.996,0.276 -0.456,0.264 -0.732,0.78 -0.276,0.504 -0.276,1.236 0,0.732 0.276,1.248 0.276,0.504 0.732,0.78 0.456,0.264 0.996,0.264 z"
               style="font-size:12px;font-family:'Google Sans'"
               id="path1003751" />
            <path
               d="M 72.600017,12 V 5.88 h 0.972 v 0.9 h 0.048 q 0.24,-0.444 0.78,-0.768 0.552,-0.324 1.2,-0.324 1.128,0 1.692,0.66 0.576,0.648 0.576,1.728 V 12 h -1.02 V 8.232 q 0,-0.888 -0.432,-1.248 -0.42,-0.372 -1.092,-0.372 -0.504,0 -0.888,0.288 -0.384,0.276 -0.6,0.72 -0.216,0.444 -0.216,0.936 V 12 Z"
               style="font-size:12px;font-family:'Google Sans'"
               id="path1003753" />
          </g>
        </g>
        <g
           id="Group_157">
          <g
             id="Graphic_160">
            <path
               d="m 306.65325,91.73681 0.3,2.775 2.025,-1.925 4.8,-13.2 c -0.825,-0.125 -1.625,-0.4 -2.35,-0.8 z"
               fill="#ffffff"
               id="path1003611" />
          </g>
          <g
             id="Graphic_159">
            <path
               d="m 318.52825,78.58681 c -0.725,0.4 -1.525,0.675 -2.375,0.8 l 4.8,13.2 2.05,1.925 0.325,-2.775 z"
               fill="#ffffff"
               id="path1003614" />
          </g>
          <g
             id="Graphic_158">
            <path
               d="m 319.97825,72.01181 c 0,-2.325 -1.6,-4.275 -3.75,-4.825 v -2.675 h -2.5 v 2.675 c -2.15,0.55 -3.75,2.5 -3.75,4.825 0,2.75 2.25,5 5,5 2.75,0 5,-2.25 5,-5 z m -5,2.5 c -1.375,0 -2.5,-1.125 -2.5,-2.5 0,-1.375 1.125,-2.5 2.5,-2.5 1.375,0 2.5,1.125 2.5,2.5 0,1.375 -1.125,2.5 -2.5,2.5 z"
               fill="#ffffff"
               id="path1003617" />
          </g>
        </g>
      </g>
      <g
         id="Group_188">
        <g
           id="Graphic_116">
          <path
             d="m 24.813422,-145 h 84.953098 c 3.50311,0 6.86274,1.3916 9.33981,3.86868 2.47707,2.47707 3.86867,5.8367 3.86867,9.33981 v 70.25607 c 0,30.754 -24.93103,55.685037 -55.68503,55.685037 -30.754,0 -55.685042,-24.931037 -55.685042,-55.685037 v -70.25607 c 0,-7.29485 5.913642,-13.20849 13.20849,-13.20849 z"
             fill="url(#Obj_Gradient)"
             id="path1003622" />
          <path
             d="m 24.813422,-145 h 84.953098 c 3.50311,0 6.86274,1.3916 9.33981,3.86868 2.47707,2.47707 3.86867,5.8367 3.86867,9.33981 v 70.25607 c 0,30.754 -24.93103,55.685037 -55.68503,55.685037 -30.754,0 -55.685042,-24.931037 -55.685042,-55.685037 v -70.25607 c 0,-7.29485 5.913642,-13.20849 13.20849,-13.20849 z"
             stroke="#4285f4"
             stroke-linecap="butt"
             stroke-linejoin="round"
             stroke-width="0.25"
             id="path1003624" />
        </g>
        <g
           id="Graphic_135">
          <g
             aria-label="Operationalexcellence"
             transform="translate(34.289966,-106)"
             id="text1003631"
             style="fill:#000000">
            <path
               d="M 5.922,12.192 Q 4.974,12.192 4.17,11.844 3.366,11.496 2.766,10.884 2.178,10.26 1.842,9.456 1.518,8.64 1.518,7.704 1.518,6.768 1.842,5.964 2.178,5.148 2.766,4.536 3.366,3.912 4.17,3.564 4.974,3.216 5.922,3.216 q 0.948,0 1.752,0.348 0.804,0.348 1.392,0.972 0.6,0.612 0.924,1.428 0.336,0.804 0.336,1.74 0,0.936 -0.336,1.752 -0.324,0.804 -0.924,1.428 -0.588,0.612 -1.392,0.96 -0.804,0.348 -1.752,0.348 z m 0,-0.972 q 0.936,0 1.692,-0.444 Q 8.382,10.332 8.838,9.54 9.294,8.736 9.294,7.704 9.294,6.66 8.838,5.868 8.382,5.076 7.614,4.632 6.858,4.188 5.922,4.188 4.998,4.188 4.23,4.632 3.462,5.076 3.006,5.868 2.55,6.66 2.55,7.704 q 0,1.032 0.456,1.836 0.456,0.792 1.224,1.236 0.768,0.444 1.692,0.444 z"
               style="font-size:12px;font-family:'Google Sans'"
               id="path1003756" />
            <path
               d="M 11.621993,14.592 V 5.88 h 0.972 v 0.912 h 0.048 q 0.168,-0.288 0.468,-0.54 0.312,-0.252 0.72,-0.408 0.408,-0.156 0.9,-0.156 0.84,0 1.5,0.42 0.66,0.42 1.044,1.152 0.384,0.732 0.384,1.68 0,0.948 -0.384,1.68 -0.384,0.732 -1.044,1.152 -0.66,0.42 -1.5,0.42 -0.732,0 -1.284,-0.336 -0.552,-0.336 -0.804,-0.756 h -0.048 l 0.048,0.84 v 2.652 z m 3,-3.324 q 0.528,0 0.984,-0.276 0.468,-0.288 0.744,-0.816 0.288,-0.528 0.288,-1.236 0,-0.72 -0.288,-1.236 -0.276,-0.528 -0.744,-0.804 -0.456,-0.288 -0.984,-0.288 -0.528,0 -0.996,0.288 -0.456,0.276 -0.744,0.804 -0.288,0.516 -0.288,1.236 0,0.72 0.288,1.248 0.288,0.516 0.744,0.804 0.468,0.276 0.996,0.276 z"
               style="font-size:12px;font-family:'Google Sans'"
               id="path1003758" />
            <path
               d="m 21.569984,12.192 q -0.888,0 -1.584,-0.42 -0.684,-0.42 -1.08,-1.152 -0.384,-0.732 -0.384,-1.668 0,-0.876 0.36,-1.62 0.372,-0.744 1.032,-1.188 0.672,-0.456 1.572,-0.456 0.912,0 1.56,0.408 0.66,0.396 1.008,1.104 0.36,0.708 0.36,1.62 0,0.084 -0.012,0.168 0,0.084 -0.012,0.144 h -4.848 q 0.036,0.66 0.3,1.116 0.3,0.516 0.768,0.768 0.48,0.252 0.996,0.252 0.672,0 1.104,-0.312 0.444,-0.324 0.708,-0.792 l 0.864,0.42 q -0.36,0.696 -1.032,1.152 -0.672,0.456 -1.68,0.456 z m -1.968,-3.9 h 3.732 q -0.012,-0.252 -0.12,-0.54 -0.096,-0.3 -0.324,-0.552 -0.216,-0.264 -0.564,-0.42 -0.336,-0.168 -0.84,-0.168 -0.6,0 -1.044,0.312 -0.432,0.3 -0.66,0.828 -0.12,0.252 -0.18,0.54 z"
               style="font-size:12px;font-family:'Google Sans'"
               id="path1003760" />
            <path
               d="M 25.601981,12 V 5.88 h 0.972 v 0.984 h 0.048 q 0.12,-0.348 0.396,-0.6 0.288,-0.264 0.648,-0.408 0.372,-0.156 0.732,-0.156 0.276,0 0.432,0.036 0.156,0.024 0.288,0.084 v 1.104 q -0.192,-0.096 -0.42,-0.144 -0.216,-0.048 -0.444,-0.048 -0.444,0 -0.816,0.252 -0.372,0.252 -0.6,0.672 -0.216,0.42 -0.216,0.924 V 12 Z"
               style="font-size:12px;font-family:'Google Sans'"
               id="path1003762" />
            <path
               d="m 31.817975,12.192 q -0.684,0 -1.2,-0.264 -0.516,-0.264 -0.816,-0.72 -0.288,-0.468 -0.288,-1.056 0,-0.672 0.348,-1.128 0.348,-0.468 0.936,-0.696 0.588,-0.24 1.296,-0.24 0.408,0 0.756,0.072 0.348,0.06 0.6,0.156 0.264,0.084 0.396,0.168 V 8.112 q 0,-0.696 -0.492,-1.104 -0.492,-0.408 -1.2,-0.408 -0.504,0 -0.948,0.228 -0.432,0.216 -0.684,0.612 l -0.768,-0.576 q 0.24,-0.36 0.6,-0.624 0.36,-0.264 0.816,-0.408 0.468,-0.144 0.984,-0.144 1.248,0 1.956,0.66 0.708,0.66 0.708,1.776 V 12 h -0.972 v -0.876 h -0.048 q -0.156,0.264 -0.444,0.516 -0.288,0.24 -0.684,0.396 -0.384,0.156 -0.852,0.156 z m 0.096,-0.9 q 0.528,0 0.96,-0.264 0.444,-0.264 0.708,-0.708 0.264,-0.444 0.264,-0.972 -0.276,-0.192 -0.696,-0.312 -0.408,-0.12 -0.9,-0.12 -0.876,0 -1.284,0.36 -0.408,0.36 -0.408,0.888 0,0.504 0.384,0.816 0.384,0.312 0.972,0.312 z"
               style="font-size:12px;font-family:'Google Sans'"
               id="path1003764" />
            <path
               d="m 35.693974,5.88 h 1.068 V 4.152 h 1.02 V 5.88 h 1.5 v 0.924 h -1.5 v 3.336 q 0,0.48 0.192,0.744 0.204,0.264 0.66,0.264 0.204,0 0.372,-0.06 0.168,-0.06 0.3,-0.144 v 0.996 q -0.156,0.072 -0.348,0.108 -0.18,0.048 -0.492,0.048 -0.768,0 -1.236,-0.444 -0.468,-0.456 -0.468,-1.26 V 6.804 h -1.068 z"
               style="font-size:12px;font-family:'Google Sans'"
               id="path1003766" />
            <path
               d="M 40.649962,12 V 5.88 h 1.02 V 12 Z m 0.504,-7.248 q -0.3,0 -0.516,-0.216 -0.216,-0.216 -0.216,-0.516 0,-0.312 0.216,-0.516 0.216,-0.216 0.516,-0.216 0.312,0 0.516,0.216 0.216,0.204 0.216,0.516 0,0.3 -0.216,0.516 -0.204,0.216 -0.516,0.216 z"
               style="font-size:12px;font-family:'Google Sans'"
               id="path1003768" />
            <path
               d="m 46.02597,12.192 q -0.924,0 -1.632,-0.432 -0.708,-0.432 -1.116,-1.164 -0.396,-0.744 -0.396,-1.656 0,-0.912 0.396,-1.644 0.408,-0.744 1.116,-1.176 0.708,-0.432 1.632,-0.432 0.924,0 1.632,0.444 0.708,0.432 1.104,1.176 0.408,0.732 0.408,1.632 0,0.912 -0.408,1.656 -0.396,0.732 -1.104,1.164 -0.708,0.432 -1.632,0.432 z m 0,-0.924 q 0.552,0 1.032,-0.276 0.492,-0.276 0.792,-0.792 0.3,-0.528 0.3,-1.26 0,-0.732 -0.3,-1.248 -0.3,-0.528 -0.792,-0.804 -0.48,-0.276 -1.032,-0.276 -0.552,0 -1.044,0.276 -0.492,0.276 -0.792,0.804 -0.3,0.516 -0.3,1.248 0,0.732 0.3,1.26 0.3,0.516 0.792,0.792 0.492,0.276 1.044,0.276 z"
               style="font-size:12px;font-family:'Google Sans'"
               id="path1003770" />
            <path
               d="M 50.237975,12 V 5.88 h 0.972 v 0.9 h 0.048 q 0.24,-0.444 0.78,-0.768 0.552,-0.324 1.2,-0.324 1.128,0 1.692,0.66 0.576,0.648 0.576,1.728 V 12 h -1.02 V 8.232 q 0,-0.888 -0.432,-1.248 -0.42,-0.372 -1.092,-0.372 -0.504,0 -0.888,0.288 -0.384,0.276 -0.6,0.72 -0.216,0.444 -0.216,0.936 V 12 Z"
               style="font-size:12px;font-family:'Google Sans'"
               id="path1003772" />
            <path
               d="m 58.865995,12.192 q -0.684,0 -1.2,-0.264 -0.516,-0.264 -0.816,-0.72 -0.288,-0.468 -0.288,-1.056 0,-0.672 0.348,-1.128 0.348,-0.468 0.936,-0.696 0.588,-0.24 1.296,-0.24 0.408,0 0.756,0.072 0.348,0.06 0.6,0.156 0.264,0.084 0.396,0.168 V 8.112 q 0,-0.696 -0.492,-1.104 -0.492,-0.408 -1.2,-0.408 -0.504,0 -0.948,0.228 -0.432,0.216 -0.684,0.612 l -0.768,-0.576 q 0.24,-0.36 0.6,-0.624 0.36,-0.264 0.816,-0.408 0.468,-0.144 0.984,-0.144 1.248,0 1.956,0.66 0.708,0.66 0.708,1.776 V 12 h -0.972 v -0.876 h -0.048 q -0.156,0.264 -0.444,0.516 -0.288,0.24 -0.684,0.396 -0.384,0.156 -0.852,0.156 z m 0.096,-0.9 q 0.528,0 0.96,-0.264 0.444,-0.264 0.708,-0.708 0.264,-0.444 0.264,-0.972 -0.276,-0.192 -0.696,-0.312 -0.408,-0.12 -0.9,-0.12 -0.876,0 -1.284,0.36 -0.408,0.36 -0.408,0.888 0,0.504 0.384,0.816 0.384,0.312 0.972,0.312 z"
               style="font-size:12px;font-family:'Google Sans'"
               id="path1003774" />
            <path
               d="M 63.281997,12 V 3.408 h 1.02 V 12 Z"
               style="font-size:12px;font-family:'Google Sans'"
               id="path1003776" />
            <path
               d="m 7.8359999,28.192 q -0.888,0 -1.584,-0.42 -0.684,-0.42 -1.08,-1.152 -0.384,-0.732 -0.384,-1.668 0,-0.876 0.36,-1.62 0.372,-0.744 1.032,-1.188 0.672,-0.456 1.572,-0.456 0.912,0 1.56,0.408 0.66,0.396 1.0080001,1.104 0.36,0.708 0.36,1.62 0,0.084 -0.012,0.168 0,0.084 -0.012,0.144 H 5.8079999 q 0.036,0.66 0.3,1.116 0.3,0.516 0.768,0.768 0.48,0.252 0.996,0.252 0.672,0 1.104,-0.312 0.444,-0.324 0.708,-0.792 L 10.548,26.584 q -0.36,0.696 -1.0320001,1.152 -0.672,0.456 -1.68,0.456 z m -1.968,-3.9 h 3.732 q -0.012,-0.252 -0.12,-0.54 -0.096,-0.3 -0.324,-0.552 -0.216,-0.264 -0.564,-0.42 -0.336,-0.168 -0.84,-0.168 -0.6,0 -1.044,0.312 -0.432,0.3 -0.66,0.828 -0.12,0.252 -0.18,0.54 z"
               style="font-size:12px;font-family:'Google Sans'"
               id="path1003778" />
            <path
               d="m 11.147994,28 2.16,-3.108 -2.112,-3.012 h 1.152 l 1.584,2.268 1.512,-2.268 h 1.2 l -2.148,3.012 2.184,3.108 h -1.188 l -1.584,-2.352 -1.572,2.352 z"
               style="font-size:12px;font-family:'Google Sans'"
               id="path1003780" />
            <path
               d="m 20.183995,28.192 q -0.9,0 -1.608,-0.42 -0.696,-0.432 -1.092,-1.164 -0.396,-0.744 -0.396,-1.668 0,-0.936 0.396,-1.668 0.396,-0.732 1.092,-1.152 0.708,-0.432 1.608,-0.432 1.032,0 1.692,0.48 0.672,0.468 0.948,1.212 l -0.924,0.384 q -0.228,-0.564 -0.684,-0.852 -0.444,-0.3 -1.08,-0.3 -0.54,0 -1.008,0.288 -0.456,0.288 -0.744,0.816 -0.288,0.516 -0.288,1.224 0,0.696 0.288,1.224 0.288,0.528 0.744,0.816 0.468,0.288 1.008,0.288 0.648,0 1.116,-0.3 0.468,-0.3 0.696,-0.852 l 0.912,0.384 q -0.3,0.708 -0.972,1.2 -0.672,0.492 -1.704,0.492 z"
               style="font-size:12px;font-family:'Google Sans'"
               id="path1003782" />
            <path
               d="m 26.628,28.192 q -0.888,0 -1.584,-0.42 -0.684,-0.42 -1.08,-1.152 -0.384,-0.732 -0.384,-1.668 0,-0.876 0.36,-1.62 0.372,-0.744 1.032,-1.188 0.672,-0.456 1.572,-0.456 0.912,0 1.56,0.408 0.66,0.396 1.008,1.104 0.36,0.708 0.36,1.62 0,0.084 -0.012,0.168 0,0.084 -0.012,0.144 H 24.6 q 0.036,0.66 0.3,1.116 0.3,0.516 0.768,0.768 0.48,0.252 0.996,0.252 0.672,0 1.104,-0.312 0.444,-0.324 0.708,-0.792 l 0.864,0.42 q -0.36,0.696 -1.032,1.152 -0.672,0.456 -1.68,0.456 z m -1.968,-3.9 h 3.732 q -0.012,-0.252 -0.12,-0.54 -0.096,-0.3 -0.324,-0.552 -0.216,-0.264 -0.564,-0.42 -0.336,-0.168 -0.84,-0.168 -0.6,0 -1.044,0.312 -0.432,0.3 -0.66,0.828 -0.12,0.252 -0.18,0.54 z"
               style="font-size:12px;font-family:'Google Sans'"
               id="path1003784" />
            <path
               d="m 30.659996,28 v -8.592 h 1.02 V 28 Z"
               style="font-size:12px;font-family:'Google Sans'"
               id="path1003786" />
            <path
               d="m 33.192002,28 v -8.592 h 1.02 V 28 Z"
               style="font-size:12px;font-family:'Google Sans'"
               id="path1003788" />
            <path
               d="m 38.388017,28.192 q -0.888,0 -1.584,-0.42 -0.684,-0.42 -1.08,-1.152 -0.384,-0.732 -0.384,-1.668 0,-0.876 0.36,-1.62 0.372,-0.744 1.032,-1.188 0.672,-0.456 1.572,-0.456 0.912,0 1.56,0.408 0.66,0.396 1.008,1.104 0.36,0.708 0.36,1.62 0,0.084 -0.012,0.168 0,0.084 -0.012,0.144 h -4.848 q 0.036,0.66 0.3,1.116 0.3,0.516 0.768,0.768 0.48,0.252 0.996,0.252 0.672,0 1.104,-0.312 0.444,-0.324 0.708,-0.792 l 0.864,0.42 q -0.36,0.696 -1.032,1.152 -0.672,0.456 -1.68,0.456 z m -1.968,-3.9 h 3.732 q -0.012,-0.252 -0.12,-0.54 -0.096,-0.3 -0.324,-0.552 -0.216,-0.264 -0.564,-0.42 -0.336,-0.168 -0.84,-0.168 -0.6,0 -1.044,0.312 -0.432,0.3 -0.66,0.828 -0.12,0.252 -0.18,0.54 z"
               style="font-size:12px;font-family:'Google Sans'"
               id="path1003790" />
            <path
               d="m 42.420014,28 v -6.12 h 0.972 v 0.9 h 0.048 q 0.24,-0.444 0.78,-0.768 0.552,-0.324 1.2,-0.324 1.128,0 1.692,0.66 0.576,0.648 0.576,1.728 V 28 h -1.02 v -3.768 q 0,-0.888 -0.432,-1.248 -0.42,-0.372 -1.092,-0.372 -0.504,0 -0.888,0.288 -0.384,0.276 -0.6,0.72 -0.216,0.444 -0.216,0.936 V 28 Z"
               style="font-size:12px;font-family:'Google Sans'"
               id="path1003792" />
            <path
               d="m 51.924024,28.192 q -0.9,0 -1.608,-0.42 -0.696,-0.432 -1.092,-1.164 -0.396,-0.744 -0.396,-1.668 0,-0.936 0.396,-1.668 0.396,-0.732 1.092,-1.152 0.708,-0.432 1.608,-0.432 1.032,0 1.692,0.48 0.672,0.468 0.948,1.212 l -0.924,0.384 q -0.228,-0.564 -0.684,-0.852 -0.444,-0.3 -1.08,-0.3 -0.54,0 -1.008,0.288 -0.456,0.288 -0.744,0.816 -0.288,0.516 -0.288,1.224 0,0.696 0.288,1.224 0.288,0.528 0.744,0.816 0.468,0.288 1.008,0.288 0.648,0 1.116,-0.3 0.468,-0.3 0.696,-0.852 l 0.912,0.384 q -0.3,0.708 -0.972,1.2 -0.672,0.492 -1.704,0.492 z"
               style="font-size:12px;font-family:'Google Sans'"
               id="path1003794" />
            <path
               d="m 58.368028,28.192 q -0.888,0 -1.584,-0.42 -0.684,-0.42 -1.08,-1.152 -0.384,-0.732 -0.384,-1.668 0,-0.876 0.36,-1.62 0.372,-0.744 1.032,-1.188 0.672,-0.456 1.572,-0.456 0.912,0 1.56,0.408 0.66,0.396 1.008,1.104 0.36,0.708 0.36,1.62 0,0.084 -0.012,0.168 0,0.084 -0.012,0.144 h -4.848 q 0.036,0.66 0.3,1.116 0.3,0.516 0.768,0.768 0.48,0.252 0.996,0.252 0.672,0 1.104,-0.312 0.444,-0.324 0.708,-0.792 l 0.864,0.42 q -0.36,0.696 -1.032,1.152 -0.672,0.456 -1.68,0.456 z m -1.968,-3.9 h 3.732 q -0.012,-0.252 -0.12,-0.54 -0.096,-0.3 -0.324,-0.552 -0.216,-0.264 -0.564,-0.42 -0.336,-0.168 -0.84,-0.168 -0.6,0 -1.044,0.312 -0.432,0.3 -0.66,0.828 -0.12,0.252 -0.18,0.54 z"
               style="font-size:12px;font-family:'Google Sans'"
               id="path1003796" />
          </g>
        </g>
        <g
           id="Graphic_136">
          <path
             id="circle1003634"
             style="fill:#4285f4"
             d="M 93.290012,-13 A 26.000042,26.000042 0 0 1 67.28997,13.000042 26.000042,26.000042 0 0 1 41.289928,-13 26.000042,26.000042 0 0 1 67.28997,-39.000042 26.000042,26.000042 0 0 1 93.290012,-13 Z" />
        </g>
        <g
           id="Group_163">
          <g
             id="Group_164">
            <g
               id="Graphic_166">
              <path
                 d="m 70.28502,-7.827337 3.02812,-3.028121 8.32734,8.327334 -3.028125,3.02812154 z"
                 fill="#ffffff"
                 id="path1003637" />
            </g>
            <g
               id="Graphic_165">
              <path
                 d="m 76.34735,-14.584076 c 2.95489,0 5.35307,-2.398173 5.35307,-5.353064 0,-1.092025 -0.32119,-2.098402 -0.89932,-2.954892 l -4.45375,4.45375 -1.52027,-1.520271 4.45375,-4.453749 c -0.85649,-0.556718 -1.86287,-0.899315 -2.95489,-0.899315 -2.95489,0 -5.353066,2.398173 -5.353066,5.353064 0,0.685193 0.149886,1.348973 0.385421,1.948516 l -2.590885,2.612296 -2.248285,-2.269699 1.52027,-1.520271 -3.040541,-3.019129 3.019126,-3.04054 c -1.67015,-1.670157 -4.38951,-1.670157 -6.05967,0 l -6.03825,6.059669 2.269696,2.269699 h -4.560811 l -0.749429,0.749429 6.059669,6.059669 0.749429,-0.749429 0.02142,-4.539398 2.269696,2.269699 1.520274,-1.52027 2.269696,2.269699 -9.849636,9.849639 3.019125,3.0191283 15.459655,-15.4596503 c 0.59954,0.235535 1.26332,0.38542 1.94851,0.38542 z"
                 fill="#ffffff"
                 id="path1003640" />
            </g>
          </g>
        </g>
      </g>
      <g
         id="Group_189">
        <g
           id="Graphic_119">
          <path
             d="m 148.59295,-145 h 84.9531 c 3.50311,0 6.86275,1.3916 9.33981,3.86868 2.47708,2.47707 3.86868,5.8367 3.86868,9.33981 v 70.25607 c 0,30.754 -24.93104,55.685037 -55.68504,55.685037 -30.754,0 -55.68504,-24.931037 -55.68504,-55.685037 v -70.25607 c 0,-7.29485 5.91364,-13.20849 13.20849,-13.20849 z"
             fill="url(#Obj_Gradient_2)"
             id="path1003646" />
          <path
             d="m 148.59295,-145 h 84.9531 c 3.50311,0 6.86275,1.3916 9.33981,3.86868 2.47708,2.47707 3.86868,5.8367 3.86868,9.33981 v 70.25607 c 0,30.754 -24.93104,55.685037 -55.68504,55.685037 -30.754,0 -55.68504,-24.931037 -55.68504,-55.685037 v -70.25607 c 0,-7.29485 5.91364,-13.20849 13.20849,-13.20849 z"
             stroke="#ea4335"
             stroke-linecap="butt"
             stroke-linejoin="round"
             stroke-width="0.25"
             id="path1003648" />
        </g>
        <g
           id="Graphic_131">
          <g
             aria-label="Security,privacy, andcompliance"
             transform="translate(156.0695,-113)"
             id="text1003657"
             style="fill:#000000">
            <path
               d="m 15.014,12.192 q -0.624,0 -1.236,-0.264 -0.612,-0.264 -1.08,-0.78 -0.468,-0.516 -0.684,-1.284 l 0.972,-0.396 q 0.204,0.744 0.744,1.248 0.54,0.504 1.308,0.504 0.48,0 0.876,-0.168 0.408,-0.18 0.648,-0.516 0.252,-0.336 0.252,-0.816 0,-0.432 -0.216,-0.732 Q 16.394,8.688 15.974,8.46 15.554,8.22 14.942,8.004 L 14.402,7.812 Q 14.042,7.68 13.67,7.5 13.31,7.308 12.998,7.044 q -0.3,-0.276 -0.48,-0.648 -0.18,-0.384 -0.18,-0.9 0,-0.624 0.336,-1.14 0.336,-0.516 0.924,-0.828 0.588,-0.312 1.356,-0.312 0.804,0 1.344,0.3 0.552,0.288 0.864,0.696 0.324,0.396 0.432,0.732 L 16.646,5.352 Q 16.574,5.1 16.37,4.836 16.166,4.56 15.818,4.38 15.482,4.188 14.966,4.188 q -0.42,0 -0.792,0.168 -0.36,0.168 -0.588,0.468 -0.216,0.288 -0.216,0.672 0,0.54 0.432,0.852 0.432,0.312 1.164,0.564 l 0.564,0.192 q 0.384,0.132 0.78,0.324 0.408,0.192 0.756,0.492 0.348,0.3 0.564,0.744 0.216,0.432 0.216,1.044 0,0.66 -0.264,1.14 -0.252,0.468 -0.672,0.768 -0.42,0.3 -0.924,0.432 -0.492,0.144 -0.972,0.144 z"
               style="font-size:12px;font-family:'Google Sans'"
               id="path1003800" />
            <path
               d="m 21.878004,12.192 q -0.888,0 -1.584,-0.42 -0.684,-0.42 -1.08,-1.152 -0.384,-0.732 -0.384,-1.668 0,-0.876 0.36,-1.62 0.372,-0.744 1.032,-1.188 0.672,-0.456 1.572,-0.456 0.912,0 1.56,0.408 0.66,0.396 1.008,1.104 0.36,0.708 0.36,1.62 0,0.084 -0.012,0.168 0,0.084 -0.012,0.144 h -4.848 q 0.036,0.66 0.3,1.116 0.3,0.516 0.768,0.768 0.48,0.252 0.996,0.252 0.672,0 1.104,-0.312 0.444,-0.324 0.708,-0.792 l 0.864,0.42 q -0.36,0.696 -1.032,1.152 -0.672,0.456 -1.68,0.456 z m -1.968,-3.9 h 3.732 q -0.012,-0.252 -0.12,-0.54 -0.096,-0.3 -0.324,-0.552 -0.216,-0.264 -0.564,-0.42 -0.336,-0.168 -0.84,-0.168 -0.6,0 -1.044,0.312 -0.432,0.3 -0.66,0.828 -0.12,0.252 -0.18,0.54 z"
               style="font-size:12px;font-family:'Google Sans'"
               id="path1003802" />
            <path
               d="m 28.74199,12.192 q -0.9,0 -1.608,-0.42 -0.696,-0.432 -1.092,-1.164 -0.396,-0.744 -0.396,-1.668 0,-0.936 0.396,-1.668 0.396,-0.732 1.092,-1.152 0.708,-0.432 1.608,-0.432 1.032,0 1.692,0.48 0.672,0.468 0.948,1.212 l -0.924,0.384 q -0.228,-0.564 -0.684,-0.852 -0.444,-0.3 -1.08,-0.3 -0.54,0 -1.008,0.288 -0.456,0.288 -0.744,0.816 -0.288,0.516 -0.288,1.224 0,0.696 0.288,1.224 0.288,0.528 0.744,0.816 0.468,0.288 1.008,0.288 0.648,0 1.116,-0.3 0.468,-0.3 0.696,-0.852 l 0.912,0.384 q -0.3,0.708 -0.972,1.2 -0.672,0.492 -1.704,0.492 z"
               style="font-size:12px;font-family:'Google Sans'"
               id="path1003804" />
            <path
               d="m 34.741985,12.192 q -1.128,0 -1.704,-0.66 -0.564,-0.66 -0.564,-1.8 V 5.88 h 1.02 v 3.696 q 0,0.912 0.42,1.308 0.42,0.384 1.044,0.384 0.54,0 0.936,-0.276 0.396,-0.288 0.612,-0.732 0.216,-0.444 0.216,-0.924 V 5.88 h 1.02 V 12 h -0.972 v -0.888 h -0.048 q -0.156,0.288 -0.468,0.54 -0.3,0.24 -0.696,0.384 -0.384,0.156 -0.816,0.156 z"
               style="font-size:12px;font-family:'Google Sans'"
               id="path1003806" />
            <path
               d="M 39.253994,12 V 5.88 h 0.972 v 0.984 h 0.048 q 0.12,-0.348 0.396,-0.6 0.288,-0.264 0.648,-0.408 0.372,-0.156 0.732,-0.156 0.276,0 0.432,0.036 0.156,0.024 0.288,0.084 v 1.104 q -0.192,-0.096 -0.42,-0.144 -0.216,-0.048 -0.444,-0.048 -0.444,0 -0.816,0.252 -0.372,0.252 -0.6,0.672 -0.216,0.42 -0.216,0.924 V 12 Z"
               style="font-size:12px;font-family:'Google Sans'"
               id="path1003808" />
            <path
               d="M 43.849994,12 V 5.88 h 1.02 V 12 Z m 0.504,-7.248 q -0.3,0 -0.516,-0.216 -0.216,-0.216 -0.216,-0.516 0,-0.312 0.216,-0.516 0.216,-0.216 0.516,-0.216 0.312,0 0.516,0.216 0.216,0.204 0.216,0.516 0,0.3 -0.216,0.516 -0.204,0.216 -0.516,0.216 z"
               style="font-size:12px;font-family:'Google Sans'"
               id="path1003810" />
            <path
               d="m 45.986002,5.88 h 1.068 V 4.152 h 1.02 V 5.88 h 1.5 v 0.924 h -1.5 v 3.336 q 0,0.48 0.192,0.744 0.204,0.264 0.66,0.264 0.204,0 0.372,-0.06 0.168,-0.06 0.3,-0.144 v 0.996 q -0.156,0.072 -0.348,0.108 -0.18,0.048 -0.492,0.048 -0.768,0 -1.236,-0.444 -0.468,-0.456 -0.468,-1.26 V 6.804 h -1.068 z"
               style="font-size:12px;font-family:'Google Sans'"
               id="path1003812" />
            <path
               d="m 52.59799,14.28 q -0.036,0.084 -0.084,0.18 -0.048,0.108 -0.06,0.132 h -1.056 q 0.072,-0.156 0.156,-0.348 0.084,-0.18 0.204,-0.444 0.072,-0.156 0.132,-0.288 0.06,-0.132 0.132,-0.3 0.084,-0.156 0.192,-0.396 l 0.552,-1.2 -2.532,-5.736 h 1.104 l 1.92,4.548 h 0.024 l 1.848,-4.548 h 1.104 l -3.168,7.308 q -0.048,0.108 -0.156,0.336 -0.096,0.24 -0.192,0.456 -0.084,0.228 -0.12,0.3 z"
               style="font-size:12px;font-family:'Google Sans'"
               id="path1003814" />
            <path
               d="m 56.630002,13.32 -0.492,-0.324 0.648,-0.996 q -0.192,-0.036 -0.384,-0.216 -0.18,-0.18 -0.18,-0.48 0,-0.312 0.216,-0.528 0.228,-0.228 0.552,-0.228 0.168,0 0.3,0.06 0.144,0.06 0.24,0.168 0.108,0.096 0.168,0.24 0.06,0.132 0.06,0.288 0,0.144 -0.048,0.288 -0.048,0.132 -0.12,0.264 -0.072,0.132 -0.168,0.264 z"
               style="font-size:12px;font-family:'Google Sans'"
               id="path1003816" />
            <path
               d="M 3.4579999,30.592 V 21.88 h 0.972 v 0.912 h 0.048 q 0.168,-0.288 0.468,-0.54 0.312,-0.252 0.72,-0.408 0.408,-0.156 0.9,-0.156 0.84,0 1.5,0.42 0.66,0.42 1.044,1.152 0.384,0.732 0.384,1.68 0,0.948 -0.384,1.68 -0.384,0.732 -1.044,1.152 -0.66,0.42 -1.5,0.42 -0.732,0 -1.284,-0.336 -0.552,-0.336 -0.804,-0.756 h -0.048 l 0.048,0.84 v 2.652 z m 3,-3.324 q 0.528,0 0.984,-0.276 0.468,-0.288 0.744,-0.816 0.288,-0.528 0.288,-1.236 0,-0.72 -0.288,-1.236 -0.276,-0.528 -0.744,-0.804 -0.456,-0.288 -0.984,-0.288 -0.528,0 -0.996,0.288 -0.456,0.276 -0.744,0.804 -0.288,0.516 -0.288,1.236 0,0.72 0.288,1.248 0.288,0.516 0.744,0.804 0.468,0.276 0.996,0.276 z"
               style="font-size:12px;font-family:'Google Sans'"
               id="path1003818" />
            <path
               d="m 10.622001,28 v -6.12 h 0.972 v 0.984 h 0.048 q 0.12,-0.348 0.396,-0.6 0.288,-0.264 0.648,-0.408 0.372,-0.156 0.732,-0.156 0.276,0 0.432,0.036 0.156,0.024 0.288,0.084 v 1.104 q -0.192,-0.096 -0.42,-0.144 -0.216,-0.048 -0.444,-0.048 -0.444,0 -0.816,0.252 -0.372,0.252 -0.6,0.672 -0.216,0.42 -0.216,0.924 V 28 Z"
               style="font-size:12px;font-family:'Google Sans'"
               id="path1003820" />
            <path
               d="m 15.218001,28 v -6.12 h 1.02 V 28 Z m 0.504,-7.248 q -0.3,0 -0.516,-0.216 -0.216,-0.216 -0.216,-0.516 0,-0.312 0.216,-0.516 0.216,-0.216 0.516,-0.216 0.312,0 0.516,0.216 0.216,0.204 0.216,0.516 0,0.3 -0.216,0.516 -0.204,0.216 -0.516,0.216 z"
               style="font-size:12px;font-family:'Google Sans'"
               id="path1003822" />
            <path
               d="m 19.633999,28 -2.472,-6.12 h 1.092 l 1.896,4.92 h 0.024 l 1.92,-4.92 h 1.068 l -2.496,6.12 z"
               style="font-size:12px;font-family:'Google Sans'"
               id="path1003824" />
            <path
               d="m 25.837996,28.192 q -0.684,0 -1.2,-0.264 -0.516,-0.264 -0.816,-0.72 -0.288,-0.468 -0.288,-1.056 0,-0.672 0.348,-1.128 0.348,-0.468 0.936,-0.696 0.588,-0.24 1.296,-0.24 0.408,0 0.756,0.072 0.348,0.06 0.6,0.156 0.264,0.084 0.396,0.168 v -0.372 q 0,-0.696 -0.492,-1.104 -0.492,-0.408 -1.2,-0.408 -0.504,0 -0.948,0.228 -0.432,0.216 -0.684,0.612 l -0.768,-0.576 q 0.24,-0.36 0.6,-0.624 0.36,-0.264 0.816,-0.408 0.468,-0.144 0.984,-0.144 1.248,0 1.956,0.66 0.708,0.66 0.708,1.776 V 28 h -0.972 v -0.876 h -0.048 q -0.156,0.264 -0.444,0.516 -0.288,0.24 -0.684,0.396 -0.384,0.156 -0.852,0.156 z m 0.096,-0.9 q 0.528,0 0.96,-0.264 0.444,-0.264 0.708,-0.708 0.264,-0.444 0.264,-0.972 -0.276,-0.192 -0.696,-0.312 -0.408,-0.12 -0.9,-0.12 -0.876,0 -1.284,0.36 -0.408,0.36 -0.408,0.888 0,0.504 0.384,0.816 0.384,0.312 0.972,0.312 z"
               style="font-size:12px;font-family:'Google Sans'"
               id="path1003826" />
            <path
               d="m 32.966008,28.192 q -0.9,0 -1.608,-0.42 -0.696,-0.432 -1.092,-1.164 -0.396,-0.744 -0.396,-1.668 0,-0.936 0.396,-1.668 0.396,-0.732 1.092,-1.152 0.708,-0.432 1.608,-0.432 1.032,0 1.692,0.48 0.672,0.468 0.948,1.212 l -0.924,0.384 q -0.228,-0.564 -0.684,-0.852 -0.444,-0.3 -1.08,-0.3 -0.54,0 -1.008,0.288 -0.456,0.288 -0.744,0.816 -0.288,0.516 -0.288,1.224 0,0.696 0.288,1.224 0.288,0.528 0.744,0.816 0.468,0.288 1.008,0.288 0.648,0 1.116,-0.3 0.468,-0.3 0.696,-0.852 l 0.912,0.384 q -0.3,0.708 -0.972,1.2 -0.672,0.492 -1.704,0.492 z"
               style="font-size:12px;font-family:'Google Sans'"
               id="path1003828" />
            <path
               d="m 38.498002,30.28 q -0.036,0.084 -0.084,0.18 -0.048,0.108 -0.06,0.132 h -1.056 q 0.072,-0.156 0.156,-0.348 0.084,-0.18 0.204,-0.444 0.072,-0.156 0.132,-0.288 0.06,-0.132 0.132,-0.3 0.084,-0.156 0.192,-0.396 l 0.552,-1.2 -2.532,-5.736 h 1.104 l 1.92,4.548 h 0.024 l 1.848,-4.548 h 1.104 l -3.168,7.308 q -0.048,0.108 -0.156,0.336 -0.096,0.24 -0.192,0.456 -0.084,0.228 -0.12,0.3 z"
               style="font-size:12px;font-family:'Google Sans'"
               id="path1003830" />
            <path
               d="m 42.530014,29.32 -0.492,-0.324 0.648,-0.996 q -0.192,-0.036 -0.384,-0.216 -0.18,-0.18 -0.18,-0.48 0,-0.312 0.216,-0.528 0.228,-0.228 0.552,-0.228 0.168,0 0.3,0.06 0.144,0.06 0.24,0.168 0.108,0.096 0.168,0.24 0.06,0.132 0.06,0.288 0,0.144 -0.048,0.288 -0.048,0.132 -0.12,0.264 -0.072,0.132 -0.168,0.264 z"
               style="font-size:12px;font-family:'Google Sans'"
               id="path1003832" />
            <path
               d="m 49.778029,28.192 q -0.684,0 -1.2,-0.264 -0.516,-0.264 -0.816,-0.72 -0.288,-0.468 -0.288,-1.056 0,-0.672 0.348,-1.128 0.348,-0.468 0.936,-0.696 0.588,-0.24 1.296,-0.24 0.408,0 0.756,0.072 0.348,0.06 0.6,0.156 0.264,0.084 0.396,0.168 v -0.372 q 0,-0.696 -0.492,-1.104 -0.492,-0.408 -1.2,-0.408 -0.504,0 -0.948,0.228 -0.432,0.216 -0.684,0.612 l -0.768,-0.576 q 0.24,-0.36 0.6,-0.624 0.36,-0.264 0.816,-0.408 0.468,-0.144 0.984,-0.144 1.248,0 1.956,0.66 0.708,0.66 0.708,1.776 V 28 h -0.972 v -0.876 h -0.048 q -0.156,0.264 -0.444,0.516 -0.288,0.24 -0.684,0.396 -0.384,0.156 -0.852,0.156 z m 0.096,-0.9 q 0.528,0 0.96,-0.264 0.444,-0.264 0.708,-0.708 0.264,-0.444 0.264,-0.972 -0.276,-0.192 -0.696,-0.312 -0.408,-0.12 -0.9,-0.12 -0.876,0 -1.284,0.36 -0.408,0.36 -0.408,0.888 0,0.504 0.384,0.816 0.384,0.312 0.972,0.312 z"
               style="font-size:12px;font-family:'Google Sans'"
               id="path1003834" />
            <path
               d="m 54.19403,28 v -6.12 h 0.972 v 0.9 h 0.048 q 0.24,-0.444 0.78,-0.768 0.552,-0.324 1.2,-0.324 1.128,0 1.692,0.66 0.576,0.648 0.576,1.728 V 28 h -1.02 v -3.768 q 0,-0.888 -0.432,-1.248 -0.42,-0.372 -1.092,-0.372 -0.504,0 -0.888,0.288 -0.384,0.276 -0.6,0.72 -0.216,0.444 -0.216,0.936 V 28 Z"
               style="font-size:12px;font-family:'Google Sans'"
               id="path1003836" />
            <path
               d="m 63.53004,28.192 q -0.828,0 -1.5,-0.42 -0.66,-0.42 -1.044,-1.152 -0.384,-0.732 -0.384,-1.68 0,-0.948 0.384,-1.68 0.384,-0.732 1.044,-1.152 0.672,-0.42 1.5,-0.42 0.492,0 0.9,0.156 0.408,0.156 0.708,0.408 0.312,0.252 0.48,0.54 h 0.048 l -0.048,-0.852 v -2.532 h 1.02 V 28 h -0.972 v -0.9 h -0.048 q -0.168,0.276 -0.48,0.528 -0.3,0.252 -0.708,0.408 -0.408,0.156 -0.9,0.156 z m 0.108,-0.924 q 0.528,0 0.984,-0.276 0.468,-0.288 0.756,-0.804 0.288,-0.528 0.288,-1.248 0,-0.72 -0.288,-1.236 -0.288,-0.528 -0.756,-0.804 -0.456,-0.288 -0.984,-0.288 -0.528,0 -0.996,0.288 -0.456,0.276 -0.744,0.804 -0.288,0.516 -0.288,1.236 0,0.708 0.288,1.236 0.288,0.528 0.744,0.816 0.468,0.276 0.996,0.276 z"
               style="font-size:12px;font-family:'Google Sans'"
               id="path1003838" />
            <path
               d="m 7.2140001,44.192 q -0.9,0 -1.608,-0.42 -0.696,-0.432 -1.092,-1.164 -0.396,-0.744 -0.396,-1.668 0,-0.936 0.396,-1.668 0.396,-0.732 1.092,-1.152 0.708,-0.432 1.608,-0.432 1.032,0 1.692,0.48 0.672,0.468 0.948,1.212 l -0.924,0.384 q -0.228,-0.564 -0.684,-0.852 -0.444,-0.3 -1.08,-0.3 -0.54,0 -1.008,0.288 -0.456,0.288 -0.744,0.816 -0.288,0.516 -0.288,1.224 0,0.696 0.288,1.224 0.288,0.528 0.744,0.816 0.468,0.288 1.008,0.288 0.648,0 1.116,-0.3 0.468,-0.3 0.696,-0.852 l 0.912,0.384 q -0.3,0.708 -0.972,1.2 -0.672,0.492 -1.704,0.492 z"
               style="font-size:12px;font-family:'Google Sans'"
               id="path1003840" />
            <path
               d="m 13.754005,44.192 q -0.924,0 -1.632,-0.432 -0.708,-0.432 -1.116,-1.164 -0.396,-0.744 -0.396,-1.656 0,-0.912 0.396,-1.644 0.408,-0.744 1.116,-1.176 0.708,-0.432 1.632,-0.432 0.924,0 1.632,0.444 0.708,0.432 1.104,1.176 0.408,0.732 0.408,1.632 0,0.912 -0.408,1.656 -0.396,0.732 -1.104,1.164 -0.708,0.432 -1.632,0.432 z m 0,-0.924 q 0.552,0 1.032,-0.276 0.492,-0.276 0.792,-0.792 0.3,-0.528 0.3,-1.26 0,-0.732 -0.3,-1.248 -0.3,-0.528 -0.792,-0.804 -0.48,-0.276 -1.032,-0.276 -0.552,0 -1.044,0.276 -0.492,0.276 -0.792,0.804 -0.3,0.516 -0.3,1.248 0,0.732 0.3,1.26 0.3,0.516 0.792,0.792 0.492,0.276 1.044,0.276 z"
               style="font-size:12px;font-family:'Google Sans'"
               id="path1003842" />
            <path
               d="m 17.96601,44 v -6.12 h 0.972 v 0.9 h 0.048 q 0.168,-0.3 0.456,-0.54 0.3,-0.252 0.672,-0.396 0.384,-0.156 0.78,-0.156 0.684,0 1.176,0.336 0.492,0.324 0.708,0.852 0.312,-0.516 0.84,-0.852 0.528,-0.336 1.26,-0.336 1.092,0 1.608,0.66 0.516,0.66 0.516,1.728 V 44 h -1.008 v -3.768 q 0,-0.888 -0.36,-1.248 -0.36,-0.372 -1.02,-0.372 -0.468,0 -0.84,0.276 -0.36,0.264 -0.576,0.708 -0.204,0.432 -0.204,0.948 V 44 h -1.02 v -3.756 q 0,-0.888 -0.36,-1.26 -0.36,-0.372 -1.008,-0.372 -0.468,0 -0.84,0.276 -0.36,0.276 -0.576,0.72 -0.204,0.444 -0.204,0.96 V 44 Z"
               style="font-size:12px;font-family:'Google Sans'"
               id="path1003844" />
            <path
               d="M 28.46601,46.592 V 37.88 h 0.972 v 0.912 h 0.048 q 0.168,-0.288 0.468,-0.54 0.312,-0.252 0.72,-0.408 0.408,-0.156 0.9,-0.156 0.84,0 1.5,0.42 0.66,0.42 1.044,1.152 0.384,0.732 0.384,1.68 0,0.948 -0.384,1.68 -0.384,0.732 -1.044,1.152 -0.66,0.42 -1.5,0.42 -0.732,0 -1.284,-0.336 -0.552,-0.336 -0.804,-0.756 h -0.048 l 0.048,0.84 v 2.652 z m 3,-3.324 q 0.528,0 0.984,-0.276 0.468,-0.288 0.744,-0.816 0.288,-0.528 0.288,-1.236 0,-0.72 -0.288,-1.236 -0.276,-0.528 -0.744,-0.804 -0.456,-0.288 -0.984,-0.288 -0.528,0 -0.996,0.288 -0.456,0.276 -0.744,0.804 -0.288,0.516 -0.288,1.236 0,0.72 0.288,1.248 0.288,0.516 0.744,0.804 0.468,0.276 0.996,0.276 z"
               style="font-size:12px;font-family:'Google Sans'"
               id="path1003846" />
            <path
               d="m 35.569998,44 v -8.592 h 1.02 V 44 Z"
               style="font-size:12px;font-family:'Google Sans'"
               id="path1003848" />
            <path
               d="m 38.198004,44 v -6.12 h 1.02 V 44 Z m 0.504,-7.248 q -0.3,0 -0.516,-0.216 -0.216,-0.216 -0.216,-0.516 0,-0.312 0.216,-0.516 0.216,-0.216 0.516,-0.216 0.312,0 0.516,0.216 0.216,0.204 0.216,0.516 0,0.3 -0.216,0.516 -0.204,0.216 -0.516,0.216 z"
               style="font-size:12px;font-family:'Google Sans'"
               id="path1003850" />
            <path
               d="m 42.710012,44.192 q -0.684,0 -1.2,-0.264 -0.516,-0.264 -0.816,-0.72 -0.288,-0.468 -0.288,-1.056 0,-0.672 0.348,-1.128 0.348,-0.468 0.936,-0.696 0.588,-0.24 1.296,-0.24 0.408,0 0.756,0.072 0.348,0.06 0.6,0.156 0.264,0.084 0.396,0.168 v -0.372 q 0,-0.696 -0.492,-1.104 -0.492,-0.408 -1.2,-0.408 -0.504,0 -0.948,0.228 -0.432,0.216 -0.684,0.612 l -0.768,-0.576 q 0.24,-0.36 0.6,-0.624 0.36,-0.264 0.816,-0.408 0.468,-0.144 0.984,-0.144 1.248,0 1.956,0.66 0.708,0.66 0.708,1.776 V 44 h -0.972 v -0.876 h -0.048 q -0.156,0.264 -0.444,0.516 -0.288,0.24 -0.684,0.396 -0.384,0.156 -0.852,0.156 z m 0.096,-0.9 q 0.528,0 0.96,-0.264 0.444,-0.264 0.708,-0.708 0.264,-0.444 0.264,-0.972 -0.276,-0.192 -0.696,-0.312 -0.408,-0.12 -0.9,-0.12 -0.876,0 -1.284,0.36 -0.408,0.36 -0.408,0.888 0,0.504 0.384,0.816 0.384,0.312 0.972,0.312 z"
               style="font-size:12px;font-family:'Google Sans'"
               id="path1003852" />
            <path
               d="m 47.126013,44 v -6.12 h 0.972 v 0.9 h 0.048 q 0.24,-0.444 0.78,-0.768 0.552,-0.324 1.2,-0.324 1.128,0 1.692,0.66 0.576,0.648 0.576,1.728 V 44 h -1.02 v -3.768 q 0,-0.888 -0.432,-1.248 -0.42,-0.372 -1.092,-0.372 -0.504,0 -0.888,0.288 -0.384,0.276 -0.6,0.72 -0.216,0.444 -0.216,0.936 V 44 Z"
               style="font-size:12px;font-family:'Google Sans'"
               id="path1003854" />
            <path
               d="m 56.630023,44.192 q -0.9,0 -1.608,-0.42 -0.696,-0.432 -1.092,-1.164 -0.396,-0.744 -0.396,-1.668 0,-0.936 0.396,-1.668 0.396,-0.732 1.092,-1.152 0.708,-0.432 1.608,-0.432 1.032,0 1.692,0.48 0.672,0.468 0.948,1.212 l -0.924,0.384 q -0.228,-0.564 -0.684,-0.852 -0.444,-0.3 -1.08,-0.3 -0.54,0 -1.008,0.288 -0.456,0.288 -0.744,0.816 -0.288,0.516 -0.288,1.224 0,0.696 0.288,1.224 0.288,0.528 0.744,0.816 0.468,0.288 1.008,0.288 0.648,0 1.116,-0.3 0.468,-0.3 0.696,-0.852 l 0.912,0.384 q -0.3,0.708 -0.972,1.2 -0.672,0.492 -1.704,0.492 z"
               style="font-size:12px;font-family:'Google Sans'"
               id="path1003856" />
            <path
               d="m 63.074028,44.192 q -0.888,0 -1.584,-0.42 -0.684,-0.42 -1.08,-1.152 -0.384,-0.732 -0.384,-1.668 0,-0.876 0.36,-1.62 0.372,-0.744 1.032,-1.188 0.672,-0.456 1.572,-0.456 0.912,0 1.56,0.408 0.66,0.396 1.008,1.104 0.36,0.708 0.36,1.62 0,0.084 -0.012,0.168 0,0.084 -0.012,0.144 h -4.848 q 0.036,0.66 0.3,1.116 0.3,0.516 0.768,0.768 0.48,0.252 0.996,0.252 0.672,0 1.104,-0.312 0.444,-0.324 0.708,-0.792 l 0.864,0.42 q -0.36,0.696 -1.032,1.152 -0.672,0.456 -1.68,0.456 z m -1.968,-3.9 h 3.732 q -0.012,-0.252 -0.12,-0.54 -0.096,-0.3 -0.324,-0.552 -0.216,-0.264 -0.564,-0.42 -0.336,-0.168 -0.84,-0.168 -0.6,0 -1.044,0.312 -0.432,0.3 -0.66,0.828 -0.12,0.252 -0.18,0.54 z"
               style="font-size:12px;font-family:'Google Sans'"
               id="path1003858" />
          </g>
        </g>
        <g
           id="Graphic_139">
          <path
             id="circle1003660"
             style="fill:#ea4335"
             d="M 217.06955,-13 A 26.000042,26.000042 0 0 1 191.0695,13.000042 26.000042,26.000042 0 0 1 165.06946,-13 26.000042,26.000042 0 0 1 191.0695,-39.000042 26.000042,26.000042 0 0 1 217.06955,-13 Z" />
        </g>
        <g
           id="Graphic_169">
          <path
             d="m 191.0695,-26.499998 -11.45455,5.090911 v 7.636367 c 0,7.063639 4.88728,13.66909609 11.45455,15.272733 6.56728,-1.60363691 11.45455,-8.209094 11.45455,-15.272733 v -7.636367 z m 0,13.987278 h 8.9091 c -0.67455,5.243639 -4.17455,9.9145497 -8.9091,11.3781866 V -12.499992 h -8.9091 v -7.254548 l 8.9091,-3.958184 z"
             fill="#ffffff"
             id="path1003663" />
        </g>
      </g>
      <g
         id="Group_191">
        <g
           id="Graphic_123">
          <path
             d="m 396.15203,-145 h 84.95307 c 3.50314,0 6.86275,1.3916 9.33984,3.86868 2.47706,2.47707 3.86866,5.8367 3.86866,9.33981 v 70.25607 c 0,30.754 -24.93104,55.685037 -55.68504,55.685037 -30.754,0 -55.68503,-24.931037 -55.68503,-55.685037 v -70.25607 c 0,-7.29485 5.91364,-13.20849 13.2085,-13.20849 z"
             fill="url(#Obj_Gradient_3)"
             id="path1003667" />
          <path
             d="m 396.15203,-145 h 84.95307 c 3.50314,0 6.86275,1.3916 9.33984,3.86868 2.47706,2.47707 3.86866,5.8367 3.86866,9.33981 v 70.25607 c 0,30.754 -24.93104,55.685037 -55.68504,55.685037 -30.754,0 -55.68503,-24.931037 -55.68503,-55.685037 v -70.25607 c 0,-7.29485 5.91364,-13.20849 13.2085,-13.20849 z"
             stroke="#34a853"
             stroke-linecap="butt"
             stroke-linejoin="round"
             stroke-width="0.25"
             id="path1003669" />
        </g>
        <g
           id="Graphic_133">
          <g
             aria-label="Costoptimization"
             transform="translate(403.37857,-106)"
             id="text1003676"
             style="fill:#000000">
            <path
               d="m 27.366001,12.192 q -0.948,0 -1.764,-0.336 -0.804,-0.348 -1.416,-0.948 -0.6,-0.612 -0.936,-1.428 -0.336,-0.828 -0.336,-1.776 0,-0.96 0.336,-1.776 0.336,-0.816 0.936,-1.416 0.612,-0.612 1.416,-0.948 0.816,-0.348 1.764,-0.348 0.66,0 1.224,0.168 0.576,0.168 1.056,0.48 0.48,0.312 0.864,0.756 l -0.732,0.708 q -0.324,-0.396 -0.696,-0.648 -0.36,-0.252 -0.792,-0.372 -0.42,-0.12 -0.924,-0.12 -0.924,0 -1.704,0.432 -0.78,0.432 -1.248,1.224 -0.468,0.78 -0.468,1.86 0,1.068 0.468,1.86 0.468,0.792 1.248,1.224 0.78,0.432 1.704,0.432 0.564,0 1.032,-0.156 0.48,-0.156 0.876,-0.444 0.408,-0.288 0.744,-0.684 l 0.744,0.72 q -0.372,0.444 -0.9,0.792 -0.516,0.348 -1.152,0.552 -0.624,0.192 -1.344,0.192 z"
               style="font-size:12px;font-family:'Google Sans'"
               id="path1003862" />
            <path
               d="m 34.601986,12.192 q -0.924,0 -1.632,-0.432 -0.708,-0.432 -1.116,-1.164 -0.396,-0.744 -0.396,-1.656 0,-0.912 0.396,-1.644 0.408,-0.744 1.116,-1.176 0.708,-0.432 1.632,-0.432 0.924,0 1.632,0.444 0.708,0.432 1.104,1.176 0.408,0.732 0.408,1.632 0,0.912 -0.408,1.656 -0.396,0.732 -1.104,1.164 -0.708,0.432 -1.632,0.432 z m 0,-0.924 q 0.552,0 1.032,-0.276 0.492,-0.276 0.792,-0.792 0.3,-0.528 0.3,-1.26 0,-0.732 -0.3,-1.248 -0.3,-0.528 -0.792,-0.804 -0.48,-0.276 -1.032,-0.276 -0.552,0 -1.044,0.276 -0.492,0.276 -0.792,0.804 -0.3,0.516 -0.3,1.248 0,0.732 0.3,1.26 0.3,0.516 0.792,0.792 0.492,0.276 1.044,0.276 z"
               style="font-size:12px;font-family:'Google Sans'"
               id="path1003864" />
            <path
               d="m 41.010004,12.192 q -0.684,0 -1.212,-0.216 -0.516,-0.228 -0.864,-0.6 -0.336,-0.384 -0.504,-0.828 l 0.912,-0.408 q 0.24,0.552 0.696,0.852 0.456,0.3 1.044,0.3 0.564,0 0.936,-0.228 0.384,-0.228 0.384,-0.672 0,-0.276 -0.156,-0.456 -0.156,-0.192 -0.456,-0.324 -0.3,-0.132 -0.732,-0.24 l -0.744,-0.192 q -0.432,-0.12 -0.816,-0.336 -0.384,-0.216 -0.624,-0.552 -0.228,-0.348 -0.228,-0.84 0,-0.552 0.324,-0.948 0.324,-0.396 0.852,-0.6 0.528,-0.216 1.128,-0.216 0.528,0 0.984,0.156 0.468,0.144 0.816,0.444 0.348,0.288 0.528,0.72 l -0.888,0.408 q -0.228,-0.456 -0.612,-0.636 -0.384,-0.18 -0.852,-0.18 -0.504,0 -0.876,0.228 -0.372,0.216 -0.372,0.6 0,0.384 0.3,0.576 0.312,0.192 0.756,0.312 l 0.888,0.228 q 0.9,0.228 1.356,0.684 0.456,0.444 0.456,1.092 0,0.576 -0.324,0.996 -0.324,0.42 -0.876,0.648 -0.552,0.228 -1.224,0.228 z"
               style="font-size:12px;font-family:'Google Sans'"
               id="path1003866" />
            <path
               d="m 44.070009,5.88 h 1.068 V 4.152 h 1.02 V 5.88 h 1.5 v 0.924 h -1.5 v 3.336 q 0,0.48 0.192,0.744 0.204,0.264 0.66,0.264 0.204,0 0.372,-0.06 0.168,-0.06 0.3,-0.144 v 0.996 q -0.156,0.072 -0.348,0.108 -0.18,0.048 -0.492,0.048 -0.768,0 -1.236,-0.444 -0.468,-0.456 -0.468,-1.26 V 6.804 h -1.068 z"
               style="font-size:12px;font-family:'Google Sans'"
               id="path1003868" />
            <path
               d="M 5.196,28.192 Q 4.272,28.192 3.564,27.76 2.856,27.328 2.448,26.596 2.052,25.852 2.052,24.94 q 0,-0.912 0.396,-1.644 0.408,-0.744 1.116,-1.176 0.708,-0.432 1.632,-0.432 0.924,0 1.632,0.444 0.708,0.432 1.104,1.176 0.408,0.732 0.408,1.632 0,0.912 -0.408,1.656 -0.396,0.732 -1.104,1.164 -0.708,0.432 -1.632,0.432 z m 0,-0.924 q 0.552,0 1.032,-0.276 0.492,-0.276 0.792,-0.792 0.3,-0.528 0.3,-1.26 0,-0.732 -0.3,-1.248 -0.3,-0.528 -0.792,-0.804 -0.48,-0.276 -1.032,-0.276 -0.552,0 -1.044,0.276 -0.492,0.276 -0.792,0.804 -0.3,0.516 -0.3,1.248 0,0.732 0.3,1.26 0.3,0.516 0.792,0.792 0.492,0.276 1.044,0.276 z"
               style="font-size:12px;font-family:'Google Sans'"
               id="path1003870" />
            <path
               d="M 9.4680181,30.592 V 21.88 h 0.9719999 v 0.912 h 0.048 q 0.168,-0.288 0.468,-0.54 0.312,-0.252 0.72,-0.408 0.408,-0.156 0.9,-0.156 0.84,0 1.5,0.42 0.66,0.42 1.044,1.152 0.384,0.732 0.384,1.68 0,0.948 -0.384,1.68 -0.384,0.732 -1.044,1.152 -0.66,0.42 -1.5,0.42 -0.732,0 -1.284,-0.336 -0.552,-0.336 -0.804,-0.756 h -0.048 l 0.048,0.84 v 2.652 z m 2.9999999,-3.324 q 0.528,0 0.984,-0.276 0.468,-0.288 0.744,-0.816 0.288,-0.528 0.288,-1.236 0,-0.72 -0.288,-1.236 -0.276,-0.528 -0.744,-0.804 -0.456,-0.288 -0.984,-0.288 -0.528,0 -0.996,0.288 -0.456,0.276 -0.744,0.804 -0.288,0.516 -0.288,1.236 0,0.72 0.288,1.248 0.288,0.516 0.744,0.804 0.468,0.276 0.996,0.276 z"
               style="font-size:12px;font-family:'Google Sans'"
               id="path1003872" />
            <path
               d="m 16.032004,21.88 h 1.068 v -1.728 h 1.02 v 1.728 h 1.5 v 0.924 h -1.5 v 3.336 q 0,0.48 0.192,0.744 0.204,0.264 0.66,0.264 0.204,0 0.372,-0.06 0.168,-0.06 0.3,-0.144 v 0.996 q -0.156,0.072 -0.348,0.108 -0.18,0.048 -0.492,0.048 -0.768,0 -1.236,-0.444 -0.468,-0.456 -0.468,-1.26 v -3.588 h -1.068 z"
               style="font-size:12px;font-family:'Google Sans'"
               id="path1003874" />
            <path
               d="m 20.987991,28 v -6.12 h 1.02 V 28 Z m 0.504,-7.248 q -0.3,0 -0.516,-0.216 -0.216,-0.216 -0.216,-0.516 0,-0.312 0.216,-0.516 0.216,-0.216 0.516,-0.216 0.312,0 0.516,0.216 0.216,0.204 0.216,0.516 0,0.3 -0.216,0.516 -0.204,0.216 -0.516,0.216 z"
               style="font-size:12px;font-family:'Google Sans'"
               id="path1003876" />
            <path
               d="m 23.603989,28 v -6.12 h 0.972 v 0.9 h 0.048 q 0.168,-0.3 0.456,-0.54 0.3,-0.252 0.672,-0.396 0.384,-0.156 0.78,-0.156 0.684,0 1.176,0.336 0.492,0.324 0.708,0.852 0.312,-0.516 0.84,-0.852 0.528,-0.336 1.26,-0.336 1.092,0 1.608,0.66 0.516,0.66 0.516,1.728 V 28 h -1.008 v -3.768 q 0,-0.888 -0.36,-1.248 -0.36,-0.372 -1.02,-0.372 -0.468,0 -0.84,0.276 -0.36,0.264 -0.576,0.708 -0.204,0.432 -0.204,0.948 V 28 h -1.02 v -3.756 q 0,-0.888 -0.36,-1.26 -0.36,-0.372 -1.008,-0.372 -0.468,0 -0.84,0.276 -0.36,0.276 -0.576,0.72 -0.204,0.444 -0.204,0.96 V 28 Z"
               style="font-size:12px;font-family:'Google Sans'"
               id="path1003878" />
            <path
               d="m 34.199989,28 v -6.12 h 1.02 V 28 Z m 0.504,-7.248 q -0.3,0 -0.516,-0.216 -0.216,-0.216 -0.216,-0.516 0,-0.312 0.216,-0.516 0.216,-0.216 0.516,-0.216 0.312,0 0.516,0.216 0.216,0.204 0.216,0.516 0,0.3 -0.216,0.516 -0.204,0.216 -0.516,0.216 z"
               style="font-size:12px;font-family:'Google Sans'"
               id="path1003880" />
            <path
               d="m 36.503987,28 v -0.876 l 3.612,-4.32 h -3.504 V 21.88 h 4.752 v 0.876 l -3.612,4.32 h 3.708 V 28 Z"
               style="font-size:12px;font-family:'Google Sans'"
               id="path1003882" />
            <path
               d="m 44.495979,28.192 q -0.684,0 -1.2,-0.264 -0.516,-0.264 -0.816,-0.72 -0.288,-0.468 -0.288,-1.056 0,-0.672 0.348,-1.128 0.348,-0.468 0.936,-0.696 0.588,-0.24 1.296,-0.24 0.408,0 0.756,0.072 0.348,0.06 0.6,0.156 0.264,0.084 0.396,0.168 v -0.372 q 0,-0.696 -0.492,-1.104 -0.492,-0.408 -1.2,-0.408 -0.504,0 -0.948,0.228 -0.432,0.216 -0.684,0.612 l -0.768,-0.576 q 0.24,-0.36 0.6,-0.624 0.36,-0.264 0.816,-0.408 0.468,-0.144 0.984,-0.144 1.248,0 1.956,0.66 0.708,0.66 0.708,1.776 V 28 h -0.972 v -0.876 h -0.048 q -0.156,0.264 -0.444,0.516 -0.288,0.24 -0.684,0.396 -0.384,0.156 -0.852,0.156 z m 0.096,-0.9 q 0.528,0 0.96,-0.264 0.444,-0.264 0.708,-0.708 0.264,-0.444 0.264,-0.972 -0.276,-0.192 -0.696,-0.312 -0.408,-0.12 -0.9,-0.12 -0.876,0 -1.284,0.36 -0.408,0.36 -0.408,0.888 0,0.504 0.384,0.816 0.384,0.312 0.972,0.312 z"
               style="font-size:12px;font-family:'Google Sans'"
               id="path1003884" />
            <path
               d="m 48.371977,21.88 h 1.068 v -1.728 h 1.02 v 1.728 h 1.5 v 0.924 h -1.5 v 3.336 q 0,0.48 0.192,0.744 0.204,0.264 0.66,0.264 0.204,0 0.372,-0.06 0.168,-0.06 0.3,-0.144 v 0.996 q -0.156,0.072 -0.348,0.108 -0.18,0.048 -0.492,0.048 -0.768,0 -1.236,-0.444 -0.468,-0.456 -0.468,-1.26 v -3.588 h -1.068 z"
               style="font-size:12px;font-family:'Google Sans'"
               id="path1003886" />
            <path
               d="m 53.327965,28 v -6.12 h 1.02 V 28 Z m 0.504,-7.248 q -0.3,0 -0.516,-0.216 -0.216,-0.216 -0.216,-0.516 0,-0.312 0.216,-0.516 0.216,-0.216 0.516,-0.216 0.312,0 0.516,0.216 0.216,0.204 0.216,0.516 0,0.3 -0.216,0.516 -0.204,0.216 -0.516,0.216 z"
               style="font-size:12px;font-family:'Google Sans'"
               id="path1003888" />
            <path
               d="m 58.703973,28.192 q -0.924,0 -1.632,-0.432 -0.708,-0.432 -1.116,-1.164 -0.396,-0.744 -0.396,-1.656 0,-0.912 0.396,-1.644 0.408,-0.744 1.116,-1.176 0.708,-0.432 1.632,-0.432 0.924,0 1.632,0.444 0.708,0.432 1.104,1.176 0.408,0.732 0.408,1.632 0,0.912 -0.408,1.656 -0.396,0.732 -1.104,1.164 -0.708,0.432 -1.632,0.432 z m 0,-0.924 q 0.552,0 1.032,-0.276 0.492,-0.276 0.792,-0.792 0.3,-0.528 0.3,-1.26 0,-0.732 -0.3,-1.248 -0.3,-0.528 -0.792,-0.804 -0.48,-0.276 -1.032,-0.276 -0.552,0 -1.044,0.276 -0.492,0.276 -0.792,0.804 -0.3,0.516 -0.3,1.248 0,0.732 0.3,1.26 0.3,0.516 0.792,0.792 0.492,0.276 1.044,0.276 z"
               style="font-size:12px;font-family:'Google Sans'"
               id="path1003890" />
            <path
               d="m 62.915978,28 v -6.12 h 0.972 v 0.9 h 0.048 q 0.24,-0.444 0.78,-0.768 0.552,-0.324 1.2,-0.324 1.128,0 1.692,0.66 0.576,0.648 0.576,1.728 V 28 h -1.02 v -3.768 q 0,-0.888 -0.432,-1.248 -0.42,-0.372 -1.092,-0.372 -0.504,0 -0.888,0.288 -0.384,0.276 -0.6,0.72 -0.216,0.444 -0.216,0.936 V 28 Z"
               style="font-size:12px;font-family:'Google Sans'"
               id="path1003892" />
          </g>
        </g>
        <g
           id="Graphic_141">
          <path
             id="circle1003679"
             style="fill:#34a853"
             d="M 464.62864,-13 A 26.000042,26.000042 0 0 1 438.6286,13.000042 26.000042,26.000042 0 0 1 412.62856,-13 26.000042,26.000042 0 0 1 438.6286,-39.000042 26.000042,26.000042 0 0 1 464.62864,-13 Z" />
        </g>
        <g
           id="Graphic_171">
          <path
             d="m 450.1286,-24.5 h -23.00003 c -1.59562,0 -2.86062,1.279375 -2.86062,2.875 l -0.0144,17.25 c 0,1.595625 1.27938,2.875 2.875,2.875 h 23.00003 c 1.5956,0 2.875,-1.279375 2.875,-2.875 v -17.25 c 0,-1.595625 -1.2794,-2.875 -2.875,-2.875 z m 0,20.125 H 427.12857 V -13 h 23.00003 z m 0,-14.375 h -23.00003 v -2.875 h 23.00003 z"
             fill="#ffffff"
             id="path1003682" />
        </g>
      </g>
      <g
         id="Group_190">
        <g
           id="Graphic_118">
          <path
             d="m 272.37248,-145 h 84.95312 c 3.5031,0 6.86274,1.3916 9.3398,3.86868 2.47707,2.47707 3.86867,5.8367 3.86867,9.33981 v 70.25607 c 0,30.754 -24.93103,55.685037 -55.68503,55.685037 -30.75399,0 -55.68504,-24.931037 -55.68504,-55.685037 v -70.25607 c 0,-7.29485 5.91365,-13.20849 13.20848,-13.20849 z"
             fill="url(#Obj_Gradient_4)"
             id="path1003686" />
          <path
             d="m 272.37248,-145 h 84.95312 c 3.5031,0 6.86274,1.3916 9.3398,3.86868 2.47707,2.47707 3.86867,5.8367 3.86867,9.33981 v 70.25607 c 0,30.754 -24.93103,55.685037 -55.68503,55.685037 -30.75399,0 -55.68504,-24.931037 -55.68504,-55.685037 v -70.25607 c 0,-7.29485 5.91365,-13.20849 13.20848,-13.20849 z"
             stroke="#fbbc04"
             stroke-linecap="butt"
             stroke-linejoin="round"
             stroke-width="0.25"
             id="path1003688" />
        </g>
        <g
           id="Graphic_132">
          <g
             aria-label="Reliability"
             transform="translate(289.38504,-99)"
             id="text1003693"
             style="fill:#000000">
            <path
               d="M 0.96,12 V 3.408 h 2.904 q 0.72,0 1.32,0.324 0.612,0.324 0.972,0.9 0.372,0.564 0.372,1.32 0,0.456 -0.168,0.912 Q 6.192,7.308 5.832,7.68 5.484,8.052 4.944,8.268 4.704,8.364 4.44,8.424 l 2.424,3.528 V 12 h -1.2 L 3.324,8.496 H 1.98 V 12 Z M 1.98,7.548 h 1.824 q 0.444,0 0.828,-0.204 Q 5.016,7.14 5.256,6.78 5.496,6.42 5.496,5.952 5.496,5.568 5.292,5.208 5.1,4.848 4.74,4.62 4.38,4.38 3.876,4.38 H 1.98 Z"
               style="font-size:12px;font-family:'Google Sans'"
               id="path1003896" />
            <path
               d="m 10.392003,12.192 q -0.8880004,0 -1.5840004,-0.42 -0.684,-0.42 -1.08,-1.152 -0.384,-0.732 -0.384,-1.668 0,-0.876 0.36,-1.62 0.372,-0.744 1.032,-1.188 0.672,-0.456 1.5720004,-0.456 0.912,0 1.56,0.408 0.66,0.396 1.008,1.104 0.36,0.708 0.36,1.62 0,0.084 -0.012,0.168 0,0.084 -0.012,0.144 H 8.3640026 q 0.036,0.66 0.3,1.116 0.3,0.516 0.768,0.768 0.48,0.252 0.9960004,0.252 0.672,0 1.104,-0.312 0.444,-0.324 0.708,-0.792 l 0.864,0.42 q -0.36,0.696 -1.032,1.152 -0.672,0.456 -1.68,0.456 z m -1.9680004,-3.9 h 3.7320004 q -0.012,-0.252 -0.12,-0.54 -0.096,-0.3 -0.324,-0.552 -0.216,-0.264 -0.564,-0.42 -0.336,-0.168 -0.84,-0.168 -0.6000004,0 -1.0440004,0.312 -0.432,0.3 -0.66,0.828 -0.12,0.252 -0.18,0.54 z"
               style="font-size:12px;font-family:'Google Sans'"
               id="path1003898" />
            <path
               d="M 14.423999,12 V 3.408 h 1.02 V 12 Z"
               style="font-size:12px;font-family:'Google Sans'"
               id="path1003900" />
            <path
               d="M 17.052005,12 V 5.88 h 1.02 V 12 Z m 0.504,-7.248 q -0.3,0 -0.516,-0.216 -0.216,-0.216 -0.216,-0.516 0,-0.312 0.216,-0.516 0.216,-0.216 0.516,-0.216 0.312,0 0.516,0.216 0.216,0.204 0.216,0.516 0,0.3 -0.216,0.516 -0.204,0.216 -0.516,0.216 z"
               style="font-size:12px;font-family:'Google Sans'"
               id="path1003902" />
            <path
               d="m 21.564013,12.192 q -0.684,0 -1.2,-0.264 -0.516,-0.264 -0.816,-0.72 -0.288,-0.468 -0.288,-1.056 0,-0.672 0.348,-1.128 0.348,-0.468 0.936,-0.696 0.588,-0.24 1.296,-0.24 0.408,0 0.756,0.072 0.348,0.06 0.6,0.156 0.264,0.084 0.396,0.168 V 8.112 q 0,-0.696 -0.492,-1.104 -0.492,-0.408 -1.2,-0.408 -0.504,0 -0.948,0.228 -0.432,0.216 -0.684,0.612 l -0.768,-0.576 q 0.24,-0.36 0.6,-0.624 0.36,-0.264 0.816,-0.408 0.468,-0.144 0.984,-0.144 1.248,0 1.956,0.66 0.708,0.66 0.708,1.776 V 12 h -0.972 v -0.876 h -0.048 q -0.156,0.264 -0.444,0.516 -0.288,0.24 -0.684,0.396 -0.384,0.156 -0.852,0.156 z m 0.096,-0.9 q 0.528,0 0.96,-0.264 0.444,-0.264 0.708,-0.708 0.264,-0.444 0.264,-0.972 -0.276,-0.192 -0.696,-0.312 -0.408,-0.12 -0.9,-0.12 -0.876,0 -1.284,0.36 -0.408,0.36 -0.408,0.888 0,0.504 0.384,0.816 0.384,0.312 0.972,0.312 z"
               style="font-size:12px;font-family:'Google Sans'"
               id="path1003904" />
            <path
               d="m 29.088014,12.192 q -0.492,0 -0.9,-0.156 -0.408,-0.156 -0.72,-0.408 -0.3,-0.252 -0.468,-0.528 h -0.048 V 12 h -0.972 V 3.408 h 1.02 V 5.94 l -0.048,0.852 h 0.048 q 0.168,-0.288 0.468,-0.54 0.312,-0.252 0.72,-0.408 0.408,-0.156 0.9,-0.156 0.84,0 1.5,0.42 0.66,0.42 1.044,1.152 0.384,0.732 0.384,1.68 0,0.948 -0.384,1.68 -0.384,0.732 -1.044,1.152 -0.66,0.42 -1.5,0.42 z m -0.108,-0.924 q 0.528,0 0.984,-0.276 0.468,-0.288 0.744,-0.816 0.288,-0.528 0.288,-1.236 0,-0.72 -0.288,-1.236 -0.276,-0.528 -0.744,-0.804 -0.456,-0.288 -0.984,-0.288 -0.528,0 -0.996,0.288 -0.456,0.276 -0.744,0.804 -0.288,0.516 -0.288,1.236 0,0.72 0.288,1.248 0.288,0.516 0.744,0.804 0.468,0.276 0.996,0.276 z"
               style="font-size:12px;font-family:'Google Sans'"
               id="path1003906" />
            <path
               d="M 33.240016,12 V 5.88 h 1.02 V 12 Z m 0.504,-7.248 q -0.3,0 -0.516,-0.216 -0.216,-0.216 -0.216,-0.516 0,-0.312 0.216,-0.516 0.216,-0.216 0.516,-0.216 0.312,0 0.516,0.216 0.216,0.204 0.216,0.516 0,0.3 -0.216,0.516 -0.204,0.216 -0.516,0.216 z"
               style="font-size:12px;font-family:'Google Sans'"
               id="path1003908" />
            <path
               d="M 35.856014,12 V 3.408 h 1.02 V 12 Z"
               style="font-size:12px;font-family:'Google Sans'"
               id="path1003910" />
            <path
               d="M 38.484019,12 V 5.88 h 1.02 V 12 Z m 0.504,-7.248 q -0.3,0 -0.516,-0.216 -0.216,-0.216 -0.216,-0.516 0,-0.312 0.216,-0.516 0.216,-0.216 0.516,-0.216 0.312,0 0.516,0.216 0.216,0.204 0.216,0.516 0,0.3 -0.216,0.516 -0.204,0.216 -0.516,0.216 z"
               style="font-size:12px;font-family:'Google Sans'"
               id="path1003912" />
            <path
               d="m 40.620027,5.88 h 1.068 V 4.152 h 1.02 V 5.88 h 1.5 v 0.924 h -1.5 v 3.336 q 0,0.48 0.192,0.744 0.204,0.264 0.66,0.264 0.204,0 0.372,-0.06 0.168,-0.06 0.3,-0.144 v 0.996 q -0.156,0.072 -0.348,0.108 -0.18,0.048 -0.492,0.048 -0.768,0 -1.236,-0.444 -0.468,-0.456 -0.468,-1.26 V 6.804 h -1.068 z"
               style="font-size:12px;font-family:'Google Sans'"
               id="path1003914" />
            <path
               d="m 47.232014,14.28 q -0.036,0.084 -0.084,0.18 -0.048,0.108 -0.06,0.132 h -1.056 q 0.072,-0.156 0.156,-0.348 0.084,-0.18 0.204,-0.444 0.072,-0.156 0.132,-0.288 0.06,-0.132 0.132,-0.3 0.084,-0.156 0.192,-0.396 l 0.552,-1.2 -2.532,-5.736 h 1.104 l 1.92,4.548 h 0.024 l 1.848,-4.548 h 1.104 l -3.168,7.308 q -0.048,0.108 -0.156,0.336 -0.096,0.24 -0.192,0.456 -0.084,0.228 -0.12,0.3 z"
               style="font-size:12px;font-family:'Google Sans'"
               id="path1003916" />
          </g>
        </g>
        <g
           id="Graphic_140">
          <path
             id="circle1003696"
             style="fill:#fbbc04"
             d="M 340.84907,-13 A 26.000042,26.000042 0 0 1 314.84903,13.000042 26.000042,26.000042 0 0 1 288.84899,-13 26.000042,26.000042 0 0 1 314.84903,-39.000042 26.000042,26.000042 0 0 1 340.84907,-13 Z" />
        </g>
        <g
           id="Graphic_173">
          <path
             d="m 316.93237,-25.000007 c -6.90277,0 -12.50001,5.597229 -12.50001,12.500015 h -4.16666 l 5.55555,5.541673 5.55555,-5.541673 h -4.16666 c 0,-5.375006 4.34723,-9.722234 9.72223,-9.722234 5.37501,0 9.72223,4.347228 9.72223,9.722234 0,5.375006 -4.34722,9.7222332 -9.72223,9.7222332 -2.68057,0 -5.11112,-1.0972235 -6.86112,-2.8611142 l -1.97222,1.9722243 c 2.26389,2.2638915 5.375,3.66667090182 8.83334,3.66667090182 6.90279,0 12.50003,-5.59722870182 12.50003,-12.50001420182 0,-6.902786 -5.59724,-12.500015 -12.50003,-12.500015 z m -1.38887,6.944453 v 6.944452 l 5.90277,3.500004 1.06943,-1.77778 -4.8889,-2.902781 v -5.763895 z"
             fill="#ffffff"
             id="path1003699" />
        </g>
      </g>
      <g
         id="Group_192">
        <g
           id="Graphic_121">
          <path
             d="m 519.9652,-145 h 85.1693 c 3.51204,0 6.8802,1.39515 9.3636,3.87852 2.48334,2.48338 3.8785,5.85156 3.8785,9.36359 v 70.01773 c 0,30.832275 -24.9945,55.826775 -55.82674,55.826775 -30.83226,0 -55.82676,-24.9945 -55.82676,-55.826775 v -70.01773 c 0,-7.31341 5.92866,-13.24211 13.2421,-13.24211 z"
             fill="url(#Obj_Gradient_5)"
             id="path1003703" />
          <path
             d="m 519.9652,-145 h 85.1693 c 3.51204,0 6.8802,1.39515 9.3636,3.87852 2.48334,2.48338 3.8785,5.85156 3.8785,9.36359 v 70.01773 c 0,30.832275 -24.9945,55.826775 -55.82674,55.826775 -30.83226,0 -55.82676,-24.9945 -55.82676,-55.826775 v -70.01773 c 0,-7.31341 5.92866,-13.24211 13.2421,-13.24211 z"
             stroke="#9aa0a6"
             stroke-linecap="butt"
             stroke-linejoin="round"
             stroke-width="0.25"
             id="path1003705" />
        </g>
        <g
           id="Graphic_134">
          <g
             aria-label="Performanceoptimization"
             transform="translate(526.5633,-106.06298)"
             id="text1003712"
             style="fill:#000000">
            <path
               d="M 1.8044998,12 V 3.408 h 2.892 q 0.72,0 1.332,0.324 0.612,0.324 0.972,0.9 0.372,0.564 0.372,1.32 0,0.744 -0.372,1.32 -0.36,0.576 -0.972,0.9 -0.612,0.324 -1.332,0.324 h -1.872 V 12 Z m 1.02,-4.476 h 1.896 q 0.504,0 0.864,-0.228 0.36,-0.24 0.552,-0.6 0.204,-0.36 0.204,-0.744 0,-0.384 -0.204,-0.744 -0.192,-0.36 -0.552,-0.588 -0.36,-0.24 -0.864,-0.24 h -1.896 z"
               style="font-size:12px;font-family:'Google Sans'"
               id="path1003920" />
            <path
               d="m 10.816504,12.192 q -0.8879998,0 -1.5839998,-0.42 -0.684,-0.42 -1.08,-1.152 -0.384,-0.732 -0.384,-1.668 0,-0.876 0.36,-1.62 0.372,-0.744 1.032,-1.188 0.672,-0.456 1.5719998,-0.456 0.912,0 1.56,0.408 0.66,0.396 1.008,1.104 0.36,0.708 0.36,1.62 0,0.084 -0.012,0.168 0,0.084 -0.012,0.144 H 8.7885042 q 0.036,0.66 0.3,1.116 0.3,0.516 0.768,0.768 0.4799998,0.252 0.9959998,0.252 0.672,0 1.104,-0.312 0.444,-0.324 0.708,-0.792 l 0.864,0.42 q -0.36,0.696 -1.032,1.152 -0.672,0.456 -1.68,0.456 z m -1.9679998,-3.9 h 3.7319998 q -0.012,-0.252 -0.12,-0.54 -0.096,-0.3 -0.324,-0.552 -0.216,-0.264 -0.564,-0.42 -0.336,-0.168 -0.84,-0.168 -0.6,0 -1.0439998,0.312 -0.432,0.3 -0.66,0.828 -0.12,0.252 -0.18,0.54 z"
               style="font-size:12px;font-family:'Google Sans'"
               id="path1003922" />
            <path
               d="M 14.848501,12 V 5.88 h 0.972 v 0.984 h 0.048 q 0.12,-0.348 0.396,-0.6 0.288,-0.264 0.648,-0.408 0.372,-0.156 0.732,-0.156 0.276,0 0.432,0.036 0.156,0.024 0.288,0.084 v 1.104 q -0.192,-0.096 -0.42,-0.144 -0.216,-0.048 -0.444,-0.048 -0.444,0 -0.816,0.252 -0.372,0.252 -0.6,0.672 -0.216,0.42 -0.216,0.924 V 12 Z"
               style="font-size:12px;font-family:'Google Sans'"
               id="path1003924" />
            <path
               d="M 18.928501,6.804 V 5.88 h 1.128 V 5.22 q 0,-0.6 0.264,-1.02 0.264,-0.432 0.708,-0.66 0.456,-0.228 0.984,-0.228 0.348,0 0.552,0.048 0.204,0.036 0.348,0.096 v 0.996 q -0.156,-0.06 -0.36,-0.12 -0.204,-0.072 -0.504,-0.072 -0.372,0 -0.672,0.276 -0.3,0.264 -0.3,0.792 V 5.88 h 1.572 v 0.924 h -1.572 V 12 h -1.02 V 6.804 Z"
               style="font-size:12px;font-family:'Google Sans'"
               id="path1003926" />
            <path
               d="m 26.344496,12.192 q -0.924,0 -1.632,-0.432 -0.708,-0.432 -1.116,-1.164 -0.396,-0.744 -0.396,-1.656 0,-0.912 0.396,-1.644 0.408,-0.744 1.116,-1.176 0.708,-0.432 1.632,-0.432 0.924,0 1.632,0.444 0.708,0.432 1.104,1.176 0.408,0.732 0.408,1.632 0,0.912 -0.408,1.656 -0.396,0.732 -1.104,1.164 -0.708,0.432 -1.632,0.432 z m 0,-0.924 q 0.552,0 1.032,-0.276 0.492,-0.276 0.792,-0.792 0.3,-0.528 0.3,-1.26 0,-0.732 -0.3,-1.248 -0.3,-0.528 -0.792,-0.804 -0.48,-0.276 -1.032,-0.276 -0.552,0 -1.044,0.276 -0.492,0.276 -0.792,0.804 -0.3,0.516 -0.3,1.248 0,0.732 0.3,1.26 0.3,0.516 0.792,0.792 0.492,0.276 1.044,0.276 z"
               style="font-size:12px;font-family:'Google Sans'"
               id="path1003928" />
            <path
               d="M 30.556501,12 V 5.88 h 0.972 v 0.984 h 0.048 q 0.12,-0.348 0.396,-0.6 0.288,-0.264 0.648,-0.408 0.372,-0.156 0.732,-0.156 0.276,0 0.432,0.036 0.156,0.024 0.288,0.084 v 1.104 q -0.192,-0.096 -0.42,-0.144 -0.216,-0.048 -0.444,-0.048 -0.444,0 -0.816,0.252 -0.372,0.252 -0.6,0.672 -0.216,0.42 -0.216,0.924 V 12 Z"
               style="font-size:12px;font-family:'Google Sans'"
               id="path1003930" />
            <path
               d="M 35.056501,12 V 5.88 h 0.972 v 0.9 h 0.048 q 0.168,-0.3 0.456,-0.54 0.3,-0.252 0.672,-0.396 0.384,-0.156 0.78,-0.156 0.684,0 1.176,0.336 0.492,0.324 0.708,0.852 0.312,-0.516 0.84,-0.852 0.528,-0.336 1.26,-0.336 1.092,0 1.608,0.66 0.516,0.66 0.516,1.728 V 12 h -1.008 V 8.232 q 0,-0.888 -0.36,-1.248 -0.36,-0.372 -1.02,-0.372 -0.468,0 -0.84,0.276 -0.36,0.264 -0.576,0.708 -0.204,0.432 -0.204,0.948 V 12 h -1.02 V 8.244 q 0,-0.888 -0.36,-1.26 -0.36,-0.372 -1.008,-0.372 -0.468,0 -0.84,0.276 -0.36,0.276 -0.576,0.72 -0.204,0.444 -0.204,0.96 V 12 Z"
               style="font-size:12px;font-family:'Google Sans'"
               id="path1003932" />
            <path
               d="m 47.452511,12.192 q -0.684,0 -1.2,-0.264 -0.516,-0.264 -0.816,-0.72 -0.288,-0.468 -0.288,-1.056 0,-0.672 0.348,-1.128 0.348,-0.468 0.936,-0.696 0.588,-0.24 1.296,-0.24 0.408,0 0.756,0.072 0.348,0.06 0.6,0.156 0.264,0.084 0.396,0.168 V 8.112 q 0,-0.696 -0.492,-1.104 -0.492,-0.408 -1.2,-0.408 -0.504,0 -0.948,0.228 -0.432,0.216 -0.684,0.612 l -0.768,-0.576 q 0.24,-0.36 0.6,-0.624 0.36,-0.264 0.816,-0.408 0.468,-0.144 0.984,-0.144 1.248,0 1.956,0.66 0.708,0.66 0.708,1.776 V 12 h -0.972 v -0.876 h -0.048 q -0.156,0.264 -0.444,0.516 -0.288,0.24 -0.684,0.396 -0.384,0.156 -0.852,0.156 z m 0.096,-0.9 q 0.528,0 0.96,-0.264 0.444,-0.264 0.708,-0.708 0.264,-0.444 0.264,-0.972 -0.276,-0.192 -0.696,-0.312 -0.408,-0.12 -0.9,-0.12 -0.876,0 -1.284,0.36 -0.408,0.36 -0.408,0.888 0,0.504 0.384,0.816 0.384,0.312 0.972,0.312 z"
               style="font-size:12px;font-family:'Google Sans'"
               id="path1003934" />
            <path
               d="M 51.868513,12 V 5.88 h 0.972 v 0.9 h 0.048 q 0.24,-0.444 0.78,-0.768 0.552,-0.324 1.2,-0.324 1.128,0 1.692,0.66 0.576,0.648 0.576,1.728 V 12 h -1.02 V 8.232 q 0,-0.888 -0.432,-1.248 -0.42,-0.372 -1.092,-0.372 -0.504,0 -0.888,0.288 -0.384,0.276 -0.6,0.72 -0.216,0.444 -0.216,0.936 V 12 Z"
               style="font-size:12px;font-family:'Google Sans'"
               id="path1003936" />
            <path
               d="m 61.372523,12.192 q -0.9,0 -1.608,-0.42 -0.696,-0.432 -1.092,-1.164 -0.396,-0.744 -0.396,-1.668 0,-0.936 0.396,-1.668 0.396,-0.732 1.092,-1.152 0.708,-0.432 1.608,-0.432 1.032,0 1.692,0.48 0.672,0.468 0.948,1.212 l -0.924,0.384 q -0.228,-0.564 -0.684,-0.852 -0.444,-0.3 -1.08,-0.3 -0.54,0 -1.008,0.288 -0.456,0.288 -0.744,0.816 -0.288,0.516 -0.288,1.224 0,0.696 0.288,1.224 0.288,0.528 0.744,0.816 0.468,0.288 1.008,0.288 0.648,0 1.116,-0.3 0.468,-0.3 0.696,-0.852 l 0.912,0.384 q -0.3,0.708 -0.972,1.2 -0.672,0.492 -1.704,0.492 z"
               style="font-size:12px;font-family:'Google Sans'"
               id="path1003938" />
            <path
               d="m 67.816527,12.192 q -0.888,0 -1.584,-0.42 -0.684,-0.42 -1.08,-1.152 -0.384,-0.732 -0.384,-1.668 0,-0.876 0.36,-1.62 0.372,-0.744 1.032,-1.188 0.672,-0.456 1.572,-0.456 0.912,0 1.56,0.408 0.66,0.396 1.008,1.104 0.36,0.708 0.36,1.62 0,0.084 -0.012,0.168 0,0.084 -0.012,0.144 h -4.848 q 0.036,0.66 0.3,1.116 0.3,0.516 0.768,0.768 0.48,0.252 0.996,0.252 0.672,0 1.104,-0.312 0.444,-0.324 0.708,-0.792 l 0.864,0.42 q -0.36,0.696 -1.032,1.152 -0.672,0.456 -1.68,0.456 z m -1.968,-3.9 h 3.732 q -0.012,-0.252 -0.12,-0.54 -0.096,-0.3 -0.324,-0.552 -0.216,-0.264 -0.564,-0.42 -0.336,-0.168 -0.84,-0.168 -0.6,0 -1.044,0.312 -0.432,0.3 -0.66,0.828 -0.12,0.252 -0.18,0.54 z"
               style="font-size:12px;font-family:'Google Sans'"
               id="path1003940" />
            <path
               d="m 5.9324999,28.192 q -0.924,0 -1.632,-0.432 -0.708,-0.432 -1.116,-1.164 -0.396,-0.744 -0.396,-1.656 0,-0.912 0.396,-1.644 0.408,-0.744 1.116,-1.176 0.708,-0.432 1.632,-0.432 0.924,0 1.632,0.444 0.708,0.432 1.104,1.176 0.408,0.732 0.408,1.632 0,0.912 -0.408,1.656 -0.396,0.732 -1.104,1.164 -0.708,0.432 -1.632,0.432 z m 0,-0.924 q 0.552,0 1.032,-0.276 0.492,-0.276 0.792,-0.792 0.3,-0.528 0.3,-1.26 0,-0.732 -0.3,-1.248 -0.3,-0.528 -0.792,-0.804 -0.48,-0.276 -1.032,-0.276 -0.552,0 -1.044,0.276 -0.492,0.276 -0.792,0.804 -0.3,0.516 -0.3,1.248 0,0.732 0.3,1.26 0.3,0.516 0.792,0.792 0.492,0.276 1.044,0.276 z"
               style="font-size:12px;font-family:'Google Sans'"
               id="path1003942" />
            <path
               d="M 10.204518,30.592 V 21.88 h 0.972 v 0.912 h 0.048 q 0.168,-0.288 0.468,-0.54 0.312,-0.252 0.72,-0.408 0.408,-0.156 0.9,-0.156 0.84,0 1.5,0.42 0.66,0.42 1.044,1.152 0.384,0.732 0.384,1.68 0,0.948 -0.384,1.68 -0.384,0.732 -1.044,1.152 -0.66,0.42 -1.5,0.42 -0.732,0 -1.284,-0.336 -0.552,-0.336 -0.804,-0.756 h -0.048 l 0.048,0.84 v 2.652 z m 3,-3.324 q 0.528,0 0.984,-0.276 0.468,-0.288 0.744,-0.816 0.288,-0.528 0.288,-1.236 0,-0.72 -0.288,-1.236 -0.276,-0.528 -0.744,-0.804 -0.456,-0.288 -0.984,-0.288 -0.528,0 -0.996,0.288 -0.456,0.276 -0.744,0.804 -0.288,0.516 -0.288,1.236 0,0.72 0.288,1.248 0.288,0.516 0.744,0.804 0.468,0.276 0.996,0.276 z"
               style="font-size:12px;font-family:'Google Sans'"
               id="path1003944" />
            <path
               d="m 16.768504,21.88 h 1.068 v -1.728 h 1.02 v 1.728 h 1.5 v 0.924 h -1.5 v 3.336 q 0,0.48 0.192,0.744 0.204,0.264 0.66,0.264 0.204,0 0.372,-0.06 0.168,-0.06 0.3,-0.144 v 0.996 q -0.156,0.072 -0.348,0.108 -0.18,0.048 -0.492,0.048 -0.768,0 -1.236,-0.444 -0.468,-0.456 -0.468,-1.26 v -3.588 h -1.068 z"
               style="font-size:12px;font-family:'Google Sans'"
               id="path1003946" />
            <path
               d="m 21.724491,28 v -6.12 h 1.02 V 28 Z m 0.504,-7.248 q -0.3,0 -0.516,-0.216 -0.216,-0.216 -0.216,-0.516 0,-0.312 0.216,-0.516 0.216,-0.216 0.516,-0.216 0.312,0 0.516,0.216 0.216,0.204 0.216,0.516 0,0.3 -0.216,0.516 -0.204,0.216 -0.516,0.216 z"
               style="font-size:12px;font-family:'Google Sans'"
               id="path1003948" />
            <path
               d="m 24.340489,28 v -6.12 h 0.972 v 0.9 h 0.048 q 0.168,-0.3 0.456,-0.54 0.3,-0.252 0.672,-0.396 0.384,-0.156 0.78,-0.156 0.684,0 1.176,0.336 0.492,0.324 0.708,0.852 0.312,-0.516 0.84,-0.852 0.528,-0.336 1.26,-0.336 1.092,0 1.608,0.66 0.516,0.66 0.516,1.728 V 28 h -1.008 v -3.768 q 0,-0.888 -0.36,-1.248 -0.36,-0.372 -1.02,-0.372 -0.468,0 -0.84,0.276 -0.36,0.264 -0.576,0.708 -0.204,0.432 -0.204,0.948 V 28 h -1.02 v -3.756 q 0,-0.888 -0.36,-1.26 -0.36,-0.372 -1.008,-0.372 -0.468,0 -0.84,0.276 -0.36,0.276 -0.576,0.72 -0.204,0.444 -0.204,0.96 V 28 Z"
               style="font-size:12px;font-family:'Google Sans'"
               id="path1003950" />
            <path
               d="m 34.936489,28 v -6.12 h 1.02 V 28 Z m 0.504,-7.248 q -0.3,0 -0.516,-0.216 -0.216,-0.216 -0.216,-0.516 0,-0.312 0.216,-0.516 0.216,-0.216 0.516,-0.216 0.312,0 0.516,0.216 0.216,0.204 0.216,0.516 0,0.3 -0.216,0.516 -0.204,0.216 -0.516,0.216 z"
               style="font-size:12px;font-family:'Google Sans'"
               id="path1003952" />
            <path
               d="m 37.240487,28 v -0.876 l 3.612,-4.32 h -3.504 V 21.88 h 4.752 v 0.876 l -3.612,4.32 h 3.708 V 28 Z"
               style="font-size:12px;font-family:'Google Sans'"
               id="path1003954" />
            <path
               d="m 45.232478,28.192 q -0.684,0 -1.2,-0.264 -0.516,-0.264 -0.816,-0.72 -0.288,-0.468 -0.288,-1.056 0,-0.672 0.348,-1.128 0.348,-0.468 0.936,-0.696 0.588,-0.24 1.296,-0.24 0.408,0 0.756,0.072 0.348,0.06 0.6,0.156 0.264,0.084 0.396,0.168 v -0.372 q 0,-0.696 -0.492,-1.104 -0.492,-0.408 -1.2,-0.408 -0.504,0 -0.948,0.228 -0.432,0.216 -0.684,0.612 l -0.768,-0.576 q 0.24,-0.36 0.6,-0.624 0.36,-0.264 0.816,-0.408 0.468,-0.144 0.984,-0.144 1.248,0 1.956,0.66 0.708,0.66 0.708,1.776 V 28 h -0.972 v -0.876 h -0.048 q -0.156,0.264 -0.444,0.516 -0.288,0.24 -0.684,0.396 -0.384,0.156 -0.852,0.156 z m 0.096,-0.9 q 0.528,0 0.96,-0.264 0.444,-0.264 0.708,-0.708 0.264,-0.444 0.264,-0.972 -0.276,-0.192 -0.696,-0.312 -0.408,-0.12 -0.9,-0.12 -0.876,0 -1.284,0.36 -0.408,0.36 -0.408,0.888 0,0.504 0.384,0.816 0.384,0.312 0.972,0.312 z"
               style="font-size:12px;font-family:'Google Sans'"
               id="path1003956" />
            <path
               d="m 49.108477,21.88 h 1.068 v -1.728 h 1.02 v 1.728 h 1.5 v 0.924 h -1.5 v 3.336 q 0,0.48 0.192,0.744 0.204,0.264 0.66,0.264 0.204,0 0.372,-0.06 0.168,-0.06 0.3,-0.144 v 0.996 q -0.156,0.072 -0.348,0.108 -0.18,0.048 -0.492,0.048 -0.768,0 -1.236,-0.444 -0.468,-0.456 -0.468,-1.26 v -3.588 h -1.068 z"
               style="font-size:12px;font-family:'Google Sans'"
               id="path1003958" />
            <path
               d="m 54.064465,28 v -6.12 h 1.02 V 28 Z m 0.504,-7.248 q -0.3,0 -0.516,-0.216 -0.216,-0.216 -0.216,-0.516 0,-0.312 0.216,-0.516 0.216,-0.216 0.516,-0.216 0.312,0 0.516,0.216 0.216,0.204 0.216,0.516 0,0.3 -0.216,0.516 -0.204,0.216 -0.516,0.216 z"
               style="font-size:12px;font-family:'Google Sans'"
               id="path1003960" />
            <path
               d="m 59.440473,28.192 q -0.924,0 -1.632,-0.432 -0.708,-0.432 -1.116,-1.164 -0.396,-0.744 -0.396,-1.656 0,-0.912 0.396,-1.644 0.408,-0.744 1.116,-1.176 0.708,-0.432 1.632,-0.432 0.924,0 1.632,0.444 0.708,0.432 1.104,1.176 0.408,0.732 0.408,1.632 0,0.912 -0.408,1.656 -0.396,0.732 -1.104,1.164 -0.708,0.432 -1.632,0.432 z m 0,-0.924 q 0.552,0 1.032,-0.276 0.492,-0.276 0.792,-0.792 0.3,-0.528 0.3,-1.26 0,-0.732 -0.3,-1.248 -0.3,-0.528 -0.792,-0.804 -0.48,-0.276 -1.032,-0.276 -0.552,0 -1.044,0.276 -0.492,0.276 -0.792,0.804 -0.3,0.516 -0.3,1.248 0,0.732 0.3,1.26 0.3,0.516 0.792,0.792 0.492,0.276 1.044,0.276 z"
               style="font-size:12px;font-family:'Google Sans'"
               id="path1003962" />
            <path
               d="m 63.652478,28 v -6.12 h 0.972 v 0.9 h 0.048 q 0.24,-0.444 0.78,-0.768 0.552,-0.324 1.2,-0.324 1.128,0 1.692,0.66 0.576,0.648 0.576,1.728 V 28 h -1.02 v -3.768 q 0,-0.888 -0.432,-1.248 -0.42,-0.372 -1.092,-0.372 -0.504,0 -0.888,0.288 -0.384,0.276 -0.6,0.72 -0.216,0.444 -0.216,0.936 V 28 Z"
               style="font-size:12px;font-family:'Google Sans'"
               id="path1003964" />
          </g>
        </g>
        <g
           id="Graphic_142">
          <path
             id="circle1003715"
             style="fill:#9aa0a6"
             d="M 588.54985,-13.062982 A 26.000042,26.000042 0 0 1 562.5498,12.93706 26.000042,26.000042 0 0 1 536.54976,-13.062982 26.000042,26.000042 0 0 1 562.5498,-39.063024 26.000042,26.000042 0 0 1 588.54985,-13.062982 Z" />
        </g>
        <g
           id="Graphic_176">
          <path
             d="m 575.65016,-17.964702 -1.92646,2.897477 c 1.88715,3.763813 1.7577,8.223801 -0.34454,11.871828 H 551.6716 c -2.762,-4.791503 -2.05585,-10.827147 1.73764,-14.851644 3.7935,-4.024497 9.77692,-5.085813 14.72316,-2.611532 l 2.89746,-1.926431 c -6.07091,-3.8929 -14.01536,-3.137019 -19.24316,1.830911 -5.22786,4.967929 -6.3875,12.863533 -2.809,19.1249 0.5562,0.9633551 1.5815,1.55948996 2.6939,1.56620416 h 21.6919 c 1.12355,0.0044606 2.1634,-0.59317106 2.7252,-1.56620416 2.94234,-5.096945 2.779,-11.413128 -0.4229,-16.351171 z"
             fill="#ffffff"
             id="path1003718" />
        </g>
        <g
           id="Graphic_175">
          <path
             d="m 561.6296,-7.838482 c 0.49595,0.496515 1.16895,0.7755 1.87074,0.7755 0.70176,0 1.37476,-0.278985 1.87076,-0.7755 l 7.483,-11.2245 -11.2245,7.483 c -0.4965,0.495962 -0.7755,1.168963 -0.7755,1.87075 0,0.701787 0.279,1.374788 0.7755,1.87075 z"
             fill="#ffffff"
             id="path1003721" />
        </g>
      </g>
    </g>
  </g>
</svg>
