<svg width="177" height="40" viewBox="0 0 177 40" fill="none" xmlns="http://www.w3.org/2000/svg">
<path d="M17.6101 2.64794L2.27425 11.7934V30.2133L12.3077 36.1967V22.0736H14.1806V40L0 31.505V10.5017L17.6101 0L35.2203 10.5017V31.505L21.1371 40V22.0736H23.01V36.1386L32.946 30.2133V11.7934L17.6101 2.64794Z" fill="#01172F"/>
<path d="M18.5953 15.3846H16.7224V40H18.5953V15.3846Z" fill="#01172F"/>
<path d="M57.036 32.68C54.928 32.68 53.0693 32.17 51.46 31.15C49.8733 30.13 48.6493 28.7473 47.788 27.002C46.9267 25.234 46.496 23.2733 46.496 21.12C46.496 18.8987 46.9607 16.8473 47.89 14.966C48.842 13.0847 50.1227 11.6 51.732 10.512C53.364 9.424 55.132 8.88 57.036 8.88C58.8493 8.88 60.436 9.14067 61.796 9.662C63.1787 10.1607 64.1987 10.8067 64.856 11.6C65.2413 12.076 65.4793 12.7107 65.57 13.504C65.6607 14.2747 65.706 15.34 65.706 16.7H65.026C64.5953 14.5013 63.802 12.8807 62.646 11.838C61.49 10.7727 59.96 10.24 58.056 10.24C55.608 10.24 53.636 11.1013 52.14 12.824C50.644 14.5467 49.896 17.312 49.896 21.12C49.896 22.9107 50.1793 24.5767 50.746 26.118C51.3353 27.6593 52.242 28.9173 53.466 29.892C54.69 30.844 56.22 31.32 58.056 31.32C59.7107 31.32 61.15 30.9233 62.374 30.13C63.6207 29.3367 64.7313 28.1467 65.706 26.56L66.386 27.07C65.3433 29.11 64.0513 30.5607 62.51 31.422C60.9913 32.2607 59.1667 32.68 57.036 32.68ZM70.1953 13.64C70.1953 12.484 70.0367 11.634 69.7193 11.09C69.402 10.5233 68.7673 10.24 67.8153 10.24H67.1353V9.56H70.1953C71.034 9.56 71.6573 9.67333 72.0653 9.9C72.496 10.104 72.802 10.4893 72.9833 11.056C73.1647 11.6227 73.2553 12.484 73.2553 13.64V32H70.1953V13.64ZM78.8037 20.1C78.8037 18.944 78.645 18.094 78.3277 17.55C78.0104 16.9833 77.3757 16.7 76.4237 16.7H75.7437V16.02H78.8037C79.6424 16.02 80.2657 16.1333 80.6737 16.36C81.1044 16.564 81.4104 16.9493 81.5917 17.516C81.773 18.0827 81.8637 18.944 81.8637 20.1V32H78.8037V20.1ZM79.0757 14.49L80.4357 10.07H83.6657L80.4357 14.49H79.0757ZM87.1709 20.1C87.1709 18.944 87.0122 18.094 86.6949 17.55C86.3776 16.9833 85.7429 16.7 84.7909 16.7H84.1109V16.02H87.1709C88.0096 16.02 88.6442 16.1333 89.0749 16.36C89.5282 16.5867 89.8569 16.9267 90.0609 17.38H90.2309C90.7069 16.904 91.3189 16.5073 92.0669 16.19C92.8376 15.85 93.6989 15.68 94.6509 15.68C95.6029 15.68 96.4189 15.8613 97.0989 16.224C97.7789 16.564 98.3229 17.176 98.7309 18.06C99.3202 17.312 100.068 16.734 100.975 16.326C101.904 15.8953 102.856 15.68 103.831 15.68C105.282 15.68 106.438 16.1333 107.299 17.04C108.16 17.9467 108.591 19.5333 108.591 21.8V32H105.531V21.8C105.531 20.168 105.304 19.0007 104.851 18.298C104.398 17.5727 103.718 17.21 102.811 17.21C102.176 17.21 101.508 17.448 100.805 17.924C100.102 18.3773 99.5809 18.876 99.2409 19.42C99.3542 19.76 99.4109 20.5533 99.4109 21.8V32H96.3509V21.8C96.3509 20.168 96.1242 19.0007 95.6709 18.298C95.2176 17.5727 94.5376 17.21 93.6309 17.21C92.4296 17.21 91.2962 17.8107 90.2309 19.012V32H87.1709V20.1ZM117.164 32.34C116.439 32.34 115.702 32.1927 114.954 31.898C114.206 31.5807 113.56 31.0707 113.016 30.368C112.495 29.6653 112.234 28.736 112.234 27.58C112.234 25.8573 113.028 24.6333 114.614 23.908C116.224 23.1827 118.32 22.82 120.904 22.82H121.924C121.924 20.5987 121.618 19.08 121.006 18.264C120.394 17.448 119.51 17.04 118.354 17.04C117.334 17.04 116.518 17.2553 115.906 17.686C115.294 18.1167 114.864 18.8647 114.614 19.93H113.084C113.084 19.1593 113.13 18.5587 113.22 18.128C113.311 17.6747 113.549 17.2553 113.934 16.87C114.342 16.462 115.011 16.1673 115.94 15.986C116.892 15.782 117.924 15.68 119.034 15.68C120.87 15.68 122.321 16.1787 123.386 17.176C124.452 18.1507 124.984 20.032 124.984 22.82V32H123.284L122.094 30.47H121.924C121.516 30.9913 120.916 31.4333 120.122 31.796C119.329 32.1587 118.343 32.34 117.164 32.34ZM118.694 30.81C119.442 30.81 120.066 30.6287 120.564 30.266C121.063 29.9033 121.516 29.4047 121.924 28.77V24.18H120.904C119.227 24.18 117.901 24.4973 116.926 25.132C115.952 25.744 115.464 26.56 115.464 27.58C115.464 28.6227 115.77 29.4273 116.382 29.994C117.017 30.538 117.788 30.81 118.694 30.81ZM136.287 32.34C134.655 32.34 133.273 31.9773 132.139 31.252C131.029 30.504 130.19 29.5067 129.623 28.26C129.079 26.9907 128.807 25.574 128.807 24.01C128.807 22.446 129.079 21.0407 129.623 19.794C130.19 18.5247 131.029 17.5273 132.139 16.802C133.273 16.054 134.655 15.68 136.287 15.68C138.781 15.68 140.424 16.0767 141.217 16.87C141.603 17.2553 141.841 17.7313 141.931 18.298C142.022 18.842 142.067 19.8393 142.067 21.29H141.387C141.297 19.8847 140.855 18.8307 140.061 18.128C139.268 17.4027 138.237 17.04 136.967 17.04C135.335 17.04 134.1 17.686 133.261 18.978C132.445 20.27 132.037 21.9473 132.037 24.01C132.037 26.0727 132.445 27.75 133.261 29.042C134.1 30.334 135.335 30.98 136.967 30.98C138.123 30.98 139.075 30.7647 139.823 30.334C140.571 29.8807 141.263 29.1893 141.897 28.26L142.577 28.77C141.829 30.0393 140.945 30.9573 139.925 31.524C138.905 32.068 137.693 32.34 136.287 32.34ZM152.723 32.34C151.182 32.34 149.844 31.9773 148.711 31.252C147.578 30.504 146.716 29.4953 146.127 28.226C145.538 26.9567 145.243 25.5513 145.243 24.01C145.243 22.4687 145.538 21.0633 146.127 19.794C146.716 18.5247 147.578 17.5273 148.711 16.802C149.844 16.054 151.182 15.68 152.723 15.68C154.264 15.68 155.602 16.054 156.735 16.802C157.868 17.5273 158.73 18.5247 159.319 19.794C159.908 21.0633 160.203 22.4687 160.203 24.01C160.203 25.5513 159.908 26.9567 159.319 28.226C158.73 29.4953 157.868 30.504 156.735 31.252C155.602 31.9773 154.264 32.34 152.723 32.34ZM152.723 30.98C153.562 30.98 154.298 30.674 154.933 30.062C155.59 29.45 156.089 28.6113 156.429 27.546C156.792 26.4807 156.973 25.302 156.973 24.01C156.973 22.718 156.792 21.5393 156.429 20.474C156.089 19.4087 155.59 18.57 154.933 17.958C154.298 17.346 153.562 17.04 152.723 17.04C151.884 17.04 151.136 17.346 150.479 17.958C149.844 18.57 149.346 19.4087 148.983 20.474C148.643 21.5393 148.473 22.718 148.473 24.01C148.473 25.302 148.643 26.4807 148.983 27.546C149.346 28.6113 149.844 29.45 150.479 30.062C151.136 30.674 151.884 30.98 152.723 30.98Z" fill="#01172F"/>
</svg>
