<?xml version="1.0" encoding="UTF-8"?>
<svg xmlns="http://www.w3.org/2000/svg" xmlns:xlink="http://www.w3.org/1999/xlink" width="93px" height="35px" viewBox="0 0 93 35" version="1.1">
<defs>
<linearGradient id="linear0" gradientUnits="userSpaceOnUse" x1="77.4882" y1="25.776" x2="97.9112" y2="25.776" gradientTransform="matrix(0.58125,0,0,0.583333,0,0)">
<stop offset="0" style="stop-color:rgb(4.705882%,24.313725%,47.058824%);stop-opacity:1;"/>
<stop offset="1" style="stop-color:rgb(0%,77.647059%,72.941176%);stop-opacity:1;"/>
</linearGradient>
</defs>
<g id="surface1">
<path style=" stroke:none;fill-rule:nonzero;fill:rgb(0%,58.039216%,100%);fill-opacity:1;" d="M 56.847656 19.132812 C 55.628906 20.5625 53.792969 21.46875 51.734375 21.46875 C 48.0625 21.46875 45.085938 18.570312 45.085938 14.988281 C 45.085938 11.410156 48.0625 8.507812 51.734375 8.507812 C 53.800781 8.507812 55.648438 9.425781 56.867188 10.867188 L 54.648438 12.839844 C 53.980469 11.980469 52.925781 11.425781 51.734375 11.425781 C 49.71875 11.425781 48.082031 13.023438 48.082031 14.988281 C 48.082031 16.957031 49.71875 18.550781 51.734375 18.550781 C 52.914062 18.550781 53.964844 18.003906 54.632812 17.160156 Z M 56.847656 19.132812 "/>
<path style=" stroke:none;fill-rule:nonzero;fill:url(#linear0);" d="M 56.847656 19.132812 C 55.628906 20.5625 53.792969 21.46875 51.734375 21.46875 C 48.0625 21.46875 45.085938 18.570312 45.085938 14.988281 C 45.085938 11.410156 48.0625 8.507812 51.734375 8.507812 C 53.800781 8.507812 55.648438 9.425781 56.867188 10.867188 L 54.648438 12.839844 C 53.980469 11.980469 52.925781 11.425781 51.734375 11.425781 C 49.71875 11.425781 48.082031 13.023438 48.082031 14.988281 C 48.082031 16.957031 49.71875 18.550781 51.734375 18.550781 C 52.914062 18.550781 53.964844 18.003906 54.632812 17.160156 Z M 56.847656 19.132812 "/>
<path style=" stroke:none;fill-rule:nonzero;fill:rgb(0%,77.647059%,72.941176%);fill-opacity:0.8;" d="M 41.621094 11.140625 C 40.511719 16.273438 45.128906 20.960938 51.433594 22.3125 C 51.121094 22.199219 50.835938 22.148438 50.546875 22.015625 C 47.109375 21.523438 44.453125 18.503906 44.453125 14.941406 C 44.453125 11.742188 46.578125 9.042969 49.496094 8.164062 C 51.433594 7.582031 52.714844 3.574219 51.621094 0.136719 C 47.707031 0.136719 42.78125 5.761719 41.621094 11.140625 Z M 41.621094 11.140625 "/>
<path style=" stroke:none;fill-rule:nonzero;fill:rgb(0%,68.627451%,64.705882%);fill-opacity:0.8;" d="M 50.488281 22.015625 C 47.066406 21.511719 44.453125 18.492188 44.453125 14.941406 C 44.453125 12.996094 45.238281 11.234375 46.511719 9.957031 C 47.804688 7.710938 46.535156 3.308594 43 1.273438 C 40.929688 4.527344 40.28125 11.371094 43.066406 16.125 C 44.925781 19.296875 47.308594 21.90625 50.488281 22.015625 Z M 50.488281 22.015625 "/>
<path style=" stroke:none;fill-rule:nonzero;fill:rgb(0.392157%,44.313725%,58.039216%);fill-opacity:0.8;" d="M 44.855469 12.589844 C 44.59375 13.324219 44.453125 14.117188 44.453125 14.941406 C 44.453125 18.847656 47.632812 22.078125 51.550781 22.078125 C 53.511719 22.078125 55.292969 21.527344 56.578125 20.246094 C 53.355469 24.15625 49.023438 22.867188 44.933594 20.449219 C 40.183594 17.640625 37.417969 11.339844 37.640625 7.496094 C 41.3125 7.554688 44.3125 10.179688 44.855469 12.589844 Z M 44.855469 12.589844 "/>
<path style=" stroke:none;fill-rule:nonzero;fill:rgb(4.705882%,24.313725%,47.058824%);fill-opacity:0.8;" d="M 44.539062 16.273438 C 42.773438 14.582031 38.976562 13.941406 35.875 15.707031 C 38.125 19.71875 43.25 23.140625 48.769531 23.140625 C 52.792969 23.140625 55.945312 22.011719 57.542969 19.101562 C 56.21875 20.90625 54.082031 22.078125 51.667969 22.078125 C 48.152344 22.078125 45.214844 19.585938 44.539062 16.273438 Z M 44.539062 16.273438 "/>
<path style=" stroke:none;fill-rule:nonzero;fill:rgb(4.705882%,24.313725%,47.058824%);fill-opacity:1;" d="M 4.433594 35 C 3.023438 35 1.929688 34.617188 1.160156 33.855469 C 0.386719 33.09375 0 32.007812 0 30.589844 C 0 29.175781 0.378906 28.085938 1.132812 27.324219 C 1.898438 26.5625 2.984375 26.179688 4.398438 26.179688 C 4.960938 26.179688 5.484375 26.238281 5.964844 26.355469 C 6.449219 26.472656 6.855469 26.636719 7.1875 26.851562 C 7.261719 26.902344 7.300781 26.957031 7.300781 27.015625 C 7.300781 27.0625 7.277344 27.121094 7.238281 27.1875 L 6.886719 27.785156 C 6.839844 27.859375 6.792969 27.894531 6.75 27.894531 C 6.71875 27.894531 6.660156 27.875 6.578125 27.832031 C 6.054688 27.519531 5.386719 27.363281 4.570312 27.363281 C 3.632812 27.363281 2.898438 27.628906 2.367188 28.167969 C 1.835938 28.707031 1.570312 29.515625 1.570312 30.589844 C 1.570312 31.683594 1.84375 32.5 2.390625 33.039062 C 2.941406 33.566406 3.679688 33.832031 4.609375 33.832031 C 5.472656 33.832031 6.183594 33.671875 6.738281 33.347656 C 6.820312 33.308594 6.875 33.285156 6.902344 33.285156 C 6.949219 33.285156 7 33.324219 7.050781 33.398438 L 7.4375 34.042969 C 7.460938 34.09375 7.472656 34.132812 7.472656 34.167969 C 7.472656 34.21875 7.429688 34.269531 7.335938 34.328125 C 6.695312 34.777344 5.730469 35 4.433594 35 Z M 4.433594 35 "/>
<path style=" stroke:none;fill-rule:nonzero;fill:rgb(4.705882%,24.313725%,47.058824%);fill-opacity:1;" d="M 12.128906 35 C 10.761719 35 9.707031 34.613281 8.964844 33.84375 C 8.234375 33.074219 7.871094 31.988281 7.871094 30.589844 C 7.871094 29.191406 8.234375 28.105469 8.964844 27.335938 C 9.707031 26.566406 10.761719 26.179688 12.128906 26.179688 C 13.492188 26.179688 14.542969 26.566406 15.28125 27.335938 C 16.019531 28.105469 16.390625 29.191406 16.390625 30.589844 C 16.390625 31.988281 16.019531 33.074219 15.28125 33.84375 C 14.542969 34.613281 13.492188 35 12.128906 35 Z M 12.128906 33.832031 C 13 33.832031 13.667969 33.558594 14.121094 33.011719 C 14.578125 32.457031 14.808594 31.652344 14.808594 30.589844 C 14.808594 29.53125 14.578125 28.726562 14.121094 28.179688 C 13.667969 27.636719 13 27.363281 12.128906 27.363281 C 11.257812 27.363281 10.589844 27.636719 10.125 28.179688 C 9.667969 28.726562 9.441406 29.53125 9.441406 30.589844 C 9.441406 31.652344 9.667969 32.457031 10.125 33.011719 C 10.589844 33.558594 11.257812 33.832031 12.128906 33.832031 Z M 12.128906 33.832031 "/>
<path style=" stroke:none;fill-rule:nonzero;fill:rgb(4.705882%,24.313725%,47.058824%);fill-opacity:1;" d="M 18.066406 34.8125 C 17.902344 34.8125 17.78125 34.777344 17.707031 34.703125 C 17.640625 34.628906 17.605469 34.515625 17.605469 34.367188 L 17.605469 26.828125 C 17.605469 26.671875 17.640625 26.554688 17.707031 26.480469 C 17.78125 26.40625 17.90625 26.367188 18.082031 26.367188 L 18.652344 26.367188 C 18.769531 26.367188 18.859375 26.382812 18.925781 26.417969 C 18.992188 26.449219 19.058594 26.515625 19.125 26.617188 L 23.238281 32.304688 L 23.238281 26.828125 C 23.238281 26.671875 23.269531 26.554688 23.335938 26.480469 C 23.410156 26.40625 23.53125 26.367188 23.699219 26.367188 L 24.359375 26.367188 C 24.523438 26.367188 24.644531 26.40625 24.71875 26.480469 C 24.792969 26.554688 24.832031 26.671875 24.832031 26.828125 L 24.832031 34.367188 C 24.832031 34.515625 24.792969 34.628906 24.71875 34.703125 C 24.652344 34.777344 24.53125 34.8125 24.359375 34.8125 L 23.773438 34.8125 C 23.65625 34.8125 23.570312 34.800781 23.511719 34.777344 C 23.453125 34.742188 23.386719 34.675781 23.3125 34.578125 L 19.203125 28.902344 L 19.203125 34.367188 C 19.203125 34.515625 19.164062 34.628906 19.089844 34.703125 C 19.023438 34.777344 18.902344 34.8125 18.726562 34.8125 Z M 18.066406 34.8125 "/>
<path style=" stroke:none;fill-rule:nonzero;fill:rgb(4.705882%,24.313725%,47.058824%);fill-opacity:1;" d="M 26.765625 34.8125 C 26.597656 34.8125 26.480469 34.777344 26.402344 34.703125 C 26.335938 34.628906 26.304688 34.515625 26.304688 34.367188 L 26.304688 26.828125 C 26.304688 26.671875 26.335938 26.554688 26.402344 26.480469 C 26.480469 26.40625 26.597656 26.367188 26.765625 26.367188 L 31.945312 26.367188 C 32.113281 26.367188 32.226562 26.402344 32.285156 26.46875 C 32.351562 26.535156 32.382812 26.644531 32.382812 26.800781 L 32.382812 27.136719 C 32.382812 27.296875 32.351562 27.410156 32.285156 27.484375 C 32.226562 27.550781 32.113281 27.585938 31.945312 27.585938 L 27.898438 27.585938 L 27.898438 29.996094 L 30.839844 29.996094 C 31.003906 29.996094 31.121094 30.027344 31.1875 30.09375 C 31.253906 30.160156 31.285156 30.273438 31.285156 30.429688 L 31.285156 30.738281 C 31.285156 30.898438 31.253906 31.011719 31.1875 31.085938 C 31.121094 31.152344 31.003906 31.1875 30.839844 31.1875 L 27.898438 31.1875 L 27.898438 33.609375 L 31.933594 33.609375 C 32.101562 33.609375 32.214844 33.644531 32.285156 33.71875 C 32.351562 33.785156 32.382812 33.898438 32.382812 34.054688 L 32.382812 34.390625 C 32.382812 34.539062 32.351562 34.648438 32.285156 34.714844 C 32.214844 34.78125 32.101562 34.8125 31.933594 34.8125 Z M 26.765625 34.8125 "/>
<path style=" stroke:none;fill-rule:nonzero;fill:rgb(4.705882%,24.313725%,47.058824%);fill-opacity:1;" d="M 37.105469 35 C 35.695312 35 34.601562 34.617188 33.832031 33.855469 C 33.058594 33.09375 32.671875 32.007812 32.671875 30.589844 C 32.671875 29.175781 33.050781 28.085938 33.804688 27.324219 C 34.570312 26.5625 35.65625 26.179688 37.070312 26.179688 C 37.632812 26.179688 38.15625 26.238281 38.640625 26.355469 C 39.121094 26.472656 39.527344 26.636719 39.859375 26.851562 C 39.933594 26.902344 39.972656 26.957031 39.972656 27.015625 C 39.972656 27.0625 39.949219 27.121094 39.910156 27.1875 L 39.5625 27.785156 C 39.511719 27.859375 39.464844 27.894531 39.421875 27.894531 C 39.390625 27.894531 39.332031 27.875 39.25 27.832031 C 38.726562 27.519531 38.058594 27.363281 37.242188 27.363281 C 36.304688 27.363281 35.570312 27.628906 35.039062 28.167969 C 34.507812 28.707031 34.242188 29.515625 34.242188 30.589844 C 34.242188 31.683594 34.515625 32.5 35.0625 33.039062 C 35.613281 33.566406 36.351562 33.832031 37.28125 33.832031 C 38.144531 33.832031 38.855469 33.671875 39.410156 33.347656 C 39.492188 33.308594 39.546875 33.285156 39.574219 33.285156 C 39.621094 33.285156 39.671875 33.324219 39.722656 33.398438 L 40.109375 34.042969 C 40.132812 34.09375 40.144531 34.132812 40.144531 34.167969 C 40.144531 34.21875 40.101562 34.269531 40.007812 34.328125 C 39.371094 34.777344 38.402344 35 37.105469 35 Z M 37.105469 35 "/>
<path style=" stroke:none;fill-rule:nonzero;fill:rgb(4.705882%,24.313725%,47.058824%);fill-opacity:1;" d="M 43.625 34.8125 C 43.460938 34.8125 43.339844 34.777344 43.265625 34.703125 C 43.191406 34.628906 43.152344 34.515625 43.152344 34.367188 L 43.152344 27.585938 L 40.972656 27.585938 C 40.804688 27.585938 40.691406 27.550781 40.625 27.484375 C 40.566406 27.417969 40.535156 27.308594 40.535156 27.152344 L 40.535156 26.816406 C 40.535156 26.65625 40.566406 26.546875 40.625 26.480469 C 40.691406 26.40625 40.804688 26.367188 40.972656 26.367188 L 46.925781 26.367188 C 47.09375 26.367188 47.207031 26.40625 47.273438 26.480469 C 47.339844 26.546875 47.375 26.65625 47.375 26.816406 L 47.375 27.152344 C 47.375 27.308594 47.339844 27.417969 47.273438 27.484375 C 47.207031 27.550781 47.09375 27.585938 46.925781 27.585938 L 44.746094 27.585938 L 44.746094 34.367188 C 44.746094 34.515625 44.710938 34.628906 44.632812 34.703125 C 44.566406 34.777344 44.449219 34.8125 44.273438 34.8125 Z M 43.625 34.8125 "/>
<path style=" stroke:none;fill-rule:nonzero;fill:rgb(4.705882%,24.313725%,47.058824%);fill-opacity:1;" d="M 46.75 34.8125 C 46.609375 34.8125 46.539062 34.75 46.539062 34.628906 C 46.539062 34.578125 46.550781 34.523438 46.578125 34.464844 L 49.863281 26.691406 C 49.914062 26.566406 49.96875 26.484375 50.027344 26.441406 C 50.085938 26.394531 50.167969 26.367188 50.277344 26.367188 L 50.960938 26.367188 C 51.078125 26.367188 51.160156 26.394531 51.210938 26.441406 C 51.269531 26.484375 51.324219 26.566406 51.371094 26.691406 L 54.660156 34.464844 C 54.683594 34.523438 54.699219 34.578125 54.699219 34.628906 C 54.699219 34.75 54.628906 34.8125 54.484375 34.8125 L 53.402344 34.8125 C 53.292969 34.8125 53.214844 34.800781 53.164062 34.777344 C 53.125 34.742188 53.082031 34.679688 53.042969 34.589844 L 52.332031 32.851562 L 48.894531 32.851562 L 48.195312 34.589844 C 48.15625 34.679688 48.109375 34.742188 48.058594 34.777344 C 48.015625 34.800781 47.941406 34.8125 47.835938 34.8125 Z M 51.933594 31.695312 L 50.613281 28.441406 L 49.292969 31.695312 Z M 51.933594 31.695312 "/>
<path style=" stroke:none;fill-rule:nonzero;fill:rgb(0%,77.647059%,72.941176%);fill-opacity:1;" d="M 60.332031 34.566406 C 60.1875 34.566406 60.117188 34.503906 60.117188 34.378906 C 60.117188 34.328125 60.132812 34.277344 60.15625 34.21875 L 63.445312 26.441406 C 63.492188 26.316406 63.546875 26.234375 63.605469 26.195312 C 63.664062 26.144531 63.746094 26.121094 63.855469 26.121094 L 64.539062 26.121094 C 64.65625 26.121094 64.738281 26.144531 64.789062 26.195312 C 64.847656 26.234375 64.902344 26.316406 64.953125 26.441406 L 68.238281 34.21875 C 68.265625 34.277344 68.277344 34.328125 68.277344 34.378906 C 68.277344 34.503906 68.207031 34.566406 68.066406 34.566406 L 66.980469 34.566406 C 66.875 34.566406 66.796875 34.554688 66.746094 34.527344 C 66.703125 34.496094 66.660156 34.433594 66.621094 34.339844 L 65.910156 32.601562 L 62.472656 32.601562 L 61.773438 34.339844 C 61.734375 34.433594 61.6875 34.496094 61.636719 34.527344 C 61.597656 34.554688 61.523438 34.566406 61.414062 34.566406 Z M 65.511719 31.449219 L 64.191406 28.195312 L 62.871094 31.449219 Z M 65.511719 31.449219 "/>
<path style=" stroke:none;fill-rule:nonzero;fill:rgb(0%,77.647059%,72.941176%);fill-opacity:1;" d="M 72.839844 25.214844 C 72.667969 25.214844 72.578125 25.148438 72.578125 25.015625 C 72.578125 24.949219 72.585938 24.898438 72.605469 24.863281 L 73.191406 23.238281 C 73.238281 23.121094 73.289062 23.042969 73.339844 23.003906 C 73.398438 22.960938 73.5 22.941406 73.652344 22.941406 L 74.574219 22.941406 C 74.78125 22.941406 74.882812 23.011719 74.882812 23.152344 C 74.882812 23.210938 74.867188 23.269531 74.835938 23.335938 L 74.011719 24.941406 C 73.953125 25.046875 73.890625 25.121094 73.824219 25.164062 C 73.757812 25.195312 73.648438 25.214844 73.488281 25.214844 Z M 73.226562 34.75 C 72.480469 34.75 71.820312 34.628906 71.246094 34.378906 C 70.671875 34.121094 70.230469 33.753906 69.914062 33.273438 C 69.597656 32.792969 69.441406 32.230469 69.441406 31.585938 L 69.441406 26.578125 C 69.441406 26.421875 69.472656 26.304688 69.539062 26.230469 C 69.613281 26.15625 69.734375 26.121094 69.902344 26.121094 L 70.5625 26.121094 C 70.726562 26.121094 70.847656 26.15625 70.921875 26.230469 C 70.996094 26.304688 71.035156 26.421875 71.035156 26.578125 L 71.035156 31.621094 C 71.035156 32.265625 71.222656 32.757812 71.59375 33.085938 C 71.976562 33.417969 72.519531 33.585938 73.226562 33.585938 C 73.925781 33.585938 74.460938 33.417969 74.835938 33.085938 C 75.214844 32.757812 75.40625 32.265625 75.40625 31.621094 L 75.40625 26.578125 C 75.40625 26.421875 75.445312 26.304688 75.519531 26.230469 C 75.59375 26.15625 75.714844 26.121094 75.878906 26.121094 L 76.527344 26.121094 C 76.851562 26.121094 77.015625 26.273438 77.015625 26.578125 L 77.015625 31.585938 C 77.015625 32.230469 76.851562 32.792969 76.527344 33.273438 C 76.210938 33.746094 75.769531 34.109375 75.195312 34.367188 C 74.621094 34.625 73.964844 34.75 73.226562 34.75 Z M 73.226562 34.75 "/>
<path style=" stroke:none;fill-rule:nonzero;fill:rgb(0%,77.647059%,72.941176%);fill-opacity:1;" d="M 78.878906 34.566406 C 78.714844 34.566406 78.59375 34.527344 78.519531 34.453125 C 78.453125 34.378906 78.417969 34.265625 78.417969 34.117188 L 78.417969 26.578125 C 78.417969 26.421875 78.453125 26.304688 78.519531 26.230469 C 78.59375 26.15625 78.714844 26.121094 78.878906 26.121094 L 81.371094 26.121094 C 82.773438 26.121094 83.847656 26.453125 84.585938 27.125 C 85.332031 27.796875 85.707031 28.867188 85.707031 30.34375 C 85.707031 33.15625 84.261719 34.566406 81.371094 34.566406 Z M 81.472656 33.359375 C 82.351562 33.359375 83.011719 33.132812 83.453125 32.675781 C 83.898438 32.222656 84.125 31.445312 84.125 30.34375 C 84.125 29.242188 83.898438 28.46875 83.453125 28.019531 C 83.011719 27.5625 82.351562 27.335938 81.472656 27.335938 L 80.011719 27.335938 L 80.011719 33.359375 Z M 81.472656 33.359375 "/>
<path style=" stroke:none;fill-rule:nonzero;fill:rgb(0%,77.647059%,72.941176%);fill-opacity:1;" d="M 87.382812 34.566406 C 87.214844 34.566406 87.097656 34.527344 87.019531 34.453125 C 86.953125 34.378906 86.921875 34.265625 86.921875 34.117188 L 86.921875 26.578125 C 86.921875 26.421875 86.953125 26.304688 87.019531 26.230469 C 87.097656 26.15625 87.214844 26.121094 87.382812 26.121094 L 92.5625 26.121094 C 92.730469 26.121094 92.84375 26.152344 92.902344 26.21875 C 92.96875 26.285156 93 26.398438 93 26.554688 L 93 26.890625 C 93 27.046875 92.96875 27.164062 92.902344 27.238281 C 92.84375 27.304688 92.730469 27.335938 92.5625 27.335938 L 88.515625 27.335938 L 88.515625 29.746094 L 91.457031 29.746094 C 91.621094 29.746094 91.738281 29.78125 91.804688 29.84375 C 91.871094 29.910156 91.902344 30.023438 91.902344 30.179688 L 91.902344 30.492188 C 91.902344 30.648438 91.871094 30.765625 91.804688 30.839844 C 91.738281 30.90625 91.621094 30.9375 91.457031 30.9375 L 88.515625 30.9375 L 88.515625 33.359375 L 92.550781 33.359375 C 92.71875 33.359375 92.832031 33.398438 92.902344 33.472656 C 92.96875 33.539062 93 33.648438 93 33.808594 L 93 34.144531 C 93 34.292969 92.96875 34.398438 92.902344 34.464844 C 92.832031 34.53125 92.71875 34.566406 92.550781 34.566406 Z M 87.382812 34.566406 "/>
<path style=" stroke:none;fill-rule:nonzero;fill:rgb(0%,77.647059%,72.941176%);fill-opacity:1;" d="M 56.203125 34.738281 C 56.367188 34.746094 56.535156 34.75 56.699219 34.75 C 57.6875 34.75 58.449219 34.546875 58.980469 34.144531 C 59.519531 33.730469 59.789062 33.164062 59.789062 32.453125 C 59.789062 31.980469 59.691406 31.597656 59.503906 31.296875 C 59.320312 30.992188 59.058594 30.738281 58.71875 30.542969 C 58.375 30.335938 57.902344 30.109375 57.296875 29.871094 L 56.984375 29.746094 C 56.503906 29.5625 56.15625 29.417969 55.941406 29.3125 C 55.722656 29.203125 55.558594 29.074219 55.441406 28.925781 C 55.332031 28.769531 55.28125 28.5625 55.28125 28.304688 C 55.28125 27.890625 55.414062 27.589844 55.679688 27.398438 C 55.945312 27.207031 56.339844 27.113281 56.863281 27.113281 C 57.648438 27.113281 58.308594 27.28125 58.839844 27.621094 C 58.917969 27.671875 58.972656 27.695312 59.003906 27.695312 C 59.035156 27.695312 59.078125 27.660156 59.128906 27.585938 L 59.527344 26.9375 C 59.558594 26.898438 59.578125 26.851562 59.578125 26.800781 C 59.578125 26.738281 59.527344 26.667969 59.425781 26.589844 C 59.121094 26.367188 58.753906 26.203125 58.332031 26.09375 C 57.914062 25.988281 57.421875 25.933594 56.847656 25.933594 C 55.910156 25.933594 55.152344 26.140625 54.570312 26.554688 C 53.996094 26.960938 53.710938 27.539062 53.710938 28.292969 C 53.710938 28.757812 53.828125 29.148438 54.058594 29.472656 C 54.292969 29.796875 54.582031 30.058594 54.929688 30.253906 C 55.289062 30.453125 55.734375 30.660156 56.277344 30.875 L 56.5625 30.988281 C 57.027344 31.171875 57.363281 31.316406 57.570312 31.421875 C 57.777344 31.53125 57.9375 31.660156 58.042969 31.808594 C 58.152344 31.957031 58.207031 32.15625 58.207031 32.402344 C 58.207031 32.816406 58.0625 33.121094 57.769531 33.3125 C 57.488281 33.492188 57.066406 33.585938 56.5 33.585938 C 56.226562 33.585938 55.953125 33.5625 55.683594 33.515625 Z M 56.203125 34.738281 "/>
</g>
</svg>
