<svg xmlns="http://www.w3.org/2000/svg" xmlns:xlink="http://www.w3.org/1999/xlink" width="55" height="75" viewBox="0 0 55 75">
  <defs>
    <clipPath id="clip-i-modernizacao-menu">
      <rect width="55" height="75"/>
    </clipPath>
  </defs>
  <g id="i-modernizacao-menu" clip-path="url(#clip-i-modernizacao-menu)">
    <g id="Grupo_1555" data-name="Grupo 1555" transform="translate(-52 -531.898)">
      <g id="water-cycle" transform="translate(52 541.029)">
        <path id="Caminho_651" data-name="Caminho 651" d="M58.813,47.42a.811.811,0,0,1-.7-1.216A24.508,24.508,0,0,0,44.333,10.612a.811.811,0,1,1,.491-1.545A26.129,26.129,0,0,1,59.518,47.016a.811.811,0,0,1-.705.4Z" transform="translate(-10.783 -3.332)" fill="#5a9fff" stroke="#5a9fff" stroke-linejoin="round" stroke-width="1"/>
        <path id="Caminho_652" data-name="Caminho 652" d="M29.976,68.66A26.213,26.213,0,0,1,7.357,55.606a.811.811,0,1,1,1.4-.811,24.5,24.5,0,0,0,37.545,6,.811.811,0,1,1,1.081,1.208A26.071,26.071,0,0,1,29.976,68.66Z" transform="translate(-3.861 -11.922)" fill="#5a9fff" stroke="#5a9fff" stroke-width="1"/>
        <path id="Caminho_653" data-name="Caminho 653" d="M4.315,39.174a.811.811,0,0,1-.8-.661A26.137,26.137,0,0,1,29.187,7.564a.811.811,0,1,1,0,1.621A24.516,24.516,0,0,0,5.113,38.215a.811.811,0,0,1-.8.96Z" transform="translate(-3.072 -3.054)" fill="#5a9fff" stroke="#5a9fff" stroke-width="1"/>
        <path id="Caminho_654" data-name="Caminho 654" d="M29.538,12.641a.811.811,0,0,1-.573-1.384L32.9,7.32,28.964,3.384a.81.81,0,1,1,1.146-1.146l4.511,4.51a.811.811,0,0,1,0,1.146l-4.51,4.51A.811.811,0,0,1,29.538,12.641Z" transform="translate(-7.933 -2)" fill="#5a9fff" stroke="#5a9fff" stroke-width="1"/>
        <path id="Caminho_655" data-name="Caminho 655" d="M6.03,62.174a.811.811,0,0,1-.783-1.02L6.9,54.994a.811.811,0,0,1,.993-.573l6.16,1.651a.811.811,0,0,1-.42,1.566L8.253,56.195l-1.44,5.378a.811.811,0,0,1-.783.6Z" transform="translate(-3.479 -11.926)" fill="#5a9fff" stroke="#5a9fff" stroke-width="1"/>
        <path id="Caminho_656" data-name="Caminho 656" d="M61.751,54.573a.811.811,0,0,1-.782-.6l-1.651-6.16a.811.811,0,1,1,1.566-.42l1.441,5.378L67.7,51.328a.811.811,0,0,1,.42,1.566l-6.16,1.651A.8.8,0,0,1,61.751,54.573Z" transform="translate(-13.723 -10.486)" fill="#5a9fff" stroke="#5a9fff" stroke-width="1"/>
      </g>
      <g id="cloud-computing_4_" data-name="cloud-computing (4)" transform="translate(65.158 559.035)">
        <g id="Grupo_1217" data-name="Grupo 1217" transform="translate(0 0)">
          <path id="Caminho_657" data-name="Caminho 657" d="M20.188,15.777a2.39,2.39,0,0,0-2.3,1.735H13.908V13.852H16.26a4.633,4.633,0,0,0,1.346-9.067A5.3,5.3,0,0,0,12.476.777a5.239,5.239,0,0,0-2.652.71A4.635,4.635,0,0,0,2.069,4.756a4.633,4.633,0,0,0,1.244,9.1H5.665v3.661H1.681a2.39,2.39,0,0,0-2.3-1.735A2.389,2.389,0,0,0-3,18.163,2.389,2.389,0,0,0-.614,20.549a2.39,2.39,0,0,0,2.3-1.735H6.316a.651.651,0,0,0,.651-.651V13.852H9.136v6.734a2.386,2.386,0,1,0,1.3,0V13.852h2.169v4.311a.651.651,0,0,0,.651.651h4.635a2.386,2.386,0,1,0,2.3-3.037Z" transform="translate(3 -0.277)" fill="#5a9fff"/>
        </g>
      </g>
    </g>
  </g>
</svg>
