<svg xmlns="http://www.w3.org/2000/svg" xmlns:xlink="http://www.w3.org/1999/xlink" width="55" height="75" viewBox="0 0 55 75">
  <defs>
    <clipPath id="clip-i-produtividade-menu">
      <rect width="55" height="75"/>
    </clipPath>
  </defs>
  <g id="i-produtividade-menu" clip-path="url(#clip-i-produtividade-menu)">
    <g id="Grupo_1554" data-name="Grupo 1554" transform="translate(-1322.877 -363.922)">
      <g id="Elipse_39" data-name="Elipse 39" transform="translate(1357.753 391.713)" fill="#4e1da6" stroke="#fff" stroke-linecap="round" stroke-width="2">
        <circle cx="7.669" cy="7.669" r="7.669" stroke="none"/>
        <circle cx="7.669" cy="7.669" r="6.669" fill="none"/>
      </g>
      <g id="Elipse_40" data-name="Elipse 40" transform="translate(1330.41 391.713)" fill="#4e1da6" stroke="#fff" stroke-linecap="round" stroke-width="2">
        <ellipse cx="7.336" cy="7.669" rx="7.336" ry="7.669" stroke="none"/>
        <ellipse cx="7.336" cy="7.669" rx="6.336" ry="6.669" fill="none"/>
      </g>
      <g id="Retângulo_443" data-name="Retângulo 443" transform="translate(1353.084 405.051)" fill="#4e1da6" stroke="#fff" stroke-linecap="round" stroke-width="2">
        <path d="M12.484,0h0A11.524,11.524,0,0,1,24.008,11.524v7.149a0,0,0,0,1,0,0H0a0,0,0,0,1,0,0V12.484A12.484,12.484,0,0,1,12.484,0Z" stroke="none"/>
        <path d="M12.482,1h0A10.526,10.526,0,0,1,23.008,11.526v5.19a.957.957,0,0,1-.957.957H1.957A.957.957,0,0,1,1,16.716V12.482A11.482,11.482,0,0,1,12.482,1Z" fill="none"/>
      </g>
      <g id="Retângulo_444" data-name="Retângulo 444" transform="translate(1325.075 405.051)" fill="#4e1da6" stroke="#fff" stroke-linecap="round" stroke-width="2">
        <path d="M12.484,0h0A11.524,11.524,0,0,1,24.008,11.524v7.149a0,0,0,0,1,0,0H0a0,0,0,0,1,0,0V12.484A12.484,12.484,0,0,1,12.484,0Z" stroke="none"/>
        <path d="M12.482,1h0A10.526,10.526,0,0,1,23.008,11.526v5.19a.957.957,0,0,1-.957.957H1.957A.957.957,0,0,1,1,16.716V12.482A11.482,11.482,0,0,1,12.482,1Z" fill="none"/>
      </g>
      <g id="Elipse_38" data-name="Elipse 38" transform="translate(1344.415 399.715)" fill="#4e1da6" stroke="#fff" stroke-linecap="round" stroke-width="2">
        <circle cx="7.669" cy="7.669" r="7.669" stroke="none"/>
        <circle cx="7.669" cy="7.669" r="6.669" fill="none"/>
      </g>
      <g id="Retângulo_442" data-name="Retângulo 442" transform="translate(1339.747 413.053)" fill="#4e1da6" stroke="#fff" stroke-linecap="round" stroke-width="2">
        <path d="M12.484,0h0A11.524,11.524,0,0,1,24.008,11.524v7.149a0,0,0,0,1,0,0H0a0,0,0,0,1,0,0V12.484A12.484,12.484,0,0,1,12.484,0Z" stroke="none"/>
        <path d="M12.482,1h0A10.526,10.526,0,0,1,23.008,11.526v5.19a.957.957,0,0,1-.957.957H1.957A.957.957,0,0,1,1,16.716V12.482A11.482,11.482,0,0,1,12.482,1Z" fill="none"/>
      </g>
      <path id="Caminho_640" data-name="Caminho 640" d="M-3234.439,2036.842h12.556v12.25" transform="translate(4596.52 -1665.725)" fill="none" stroke="#4e1da6" stroke-linecap="round" stroke-width="2"/>
      <path id="Caminho_639" data-name="Caminho 639" d="M-3288.339,1951.2l14.134-13.993,13.992,13.993,22.058-22.058" transform="translate(4612 -1557.211)" fill="none" stroke="#4e1da6" stroke-linecap="round" stroke-width="2"/>
    </g>
  </g>
</svg>
